<svg width="14" height="17" viewBox="0 0 14 17" fill="none" xmlns="http://www.w3.org/2000/svg">
<path fill-rule="evenodd" clip-rule="evenodd" d="M4.89827 0.849618C5.79291 -0.283206 7.51082 -0.283206 8.40545 0.849618C8.52768 1.00439 8.72146 1.08465 8.91733 1.06164C10.351 0.893216 11.5657 2.10797 11.3973 3.54159C11.3743 3.73746 11.4545 3.93124 11.6093 4.05347C12.7421 4.9481 12.7421 6.66602 11.6093 7.56065C11.4545 7.68288 11.3743 7.87666 11.3973 8.07252C11.4207 8.27222 11.4174 8.46767 11.3903 8.65572C11.415 8.69998 11.4359 8.74713 11.4526 8.7969L13.2474 14.1396C13.348 14.4391 13.2706 14.7698 13.0474 14.9935C12.8242 15.2172 12.4937 15.2954 12.1939 15.1955L10.5694 14.6539L9.61604 16.0764C9.44046 16.3384 9.13204 16.4788 8.81917 16.4392C8.50629 16.3996 8.24257 16.1868 8.1378 15.8893L6.64541 11.6524L5.15302 15.8893C5.04825 16.1868 4.78453 16.3996 4.47166 16.4392C4.15878 16.4788 3.85036 16.3384 3.67478 16.0764L2.72143 14.6539L1.0969 15.1955C0.79712 15.2954 0.466606 15.2172 0.24342 14.9935C0.0202333 14.7698 -0.0572233 14.4391 0.0434048 14.1395L1.83818 8.79687C1.8572 8.74026 1.8817 8.68705 1.9109 8.63762C1.88618 8.45513 1.88374 8.26582 1.90645 8.07252C1.92946 7.87665 1.84919 7.68288 1.69442 7.56065C0.561601 6.66602 0.561601 4.9481 1.69443 4.05347C1.84919 3.93124 1.92946 3.73746 1.90645 3.54159C1.73802 2.10797 2.95277 0.893216 4.3864 1.06164C4.58227 1.08465 4.77605 1.00439 4.89827 0.849618ZM3.08716 10.3127L2.15562 13.0857L2.79666 12.872C3.15246 12.7534 3.54365 12.8871 3.75245 13.1986L4.13349 13.7672L5.10223 11.0169C5.10457 11.0103 5.10699 11.0037 5.10948 10.9971C5.03502 10.9258 4.9644 10.8482 4.89827 10.7645C4.77605 10.6097 4.58227 10.5295 4.3864 10.5525C3.91605 10.6077 3.46927 10.5141 3.08716 10.3127ZM8.18473 11.0062C8.26269 10.9324 8.33652 10.8518 8.40545 10.7645C8.52768 10.6097 8.72146 10.5295 8.91733 10.5525C9.38317 10.6072 9.82591 10.5159 10.2056 10.3185L11.1352 13.0857L10.4942 12.872C10.1384 12.7534 9.74717 12.8871 9.53837 13.1986L9.15733 13.7672L8.18859 11.0169C8.18733 11.0133 8.18604 11.0098 8.18473 11.0062ZM7.09748 1.88257C6.87014 1.5947 6.43359 1.5947 6.20625 1.88257C5.72526 2.49162 4.9627 2.80748 4.19193 2.71693C3.82762 2.67413 3.51893 2.98282 3.56173 3.34713C3.65229 4.1179 3.33642 4.88045 2.72738 5.36144C2.43951 5.58878 2.43951 6.02533 2.72738 6.25268C3.33642 6.73366 3.65229 7.49622 3.56173 8.26699C3.51893 8.6313 3.82762 8.93999 4.19193 8.89719C4.9627 8.80664 5.72526 9.1225 6.20625 9.73155C6.43359 10.0194 6.87014 10.0194 7.09748 9.73155C7.57847 9.1225 8.34102 8.80664 9.1118 8.89719C9.47611 8.93999 9.7848 8.6313 9.742 8.26699C9.65144 7.49622 9.96731 6.73366 10.5764 6.25268C10.8642 6.02533 10.8642 5.58878 10.5764 5.36144C9.9673 4.88045 9.65144 4.1179 9.742 3.34713C9.7848 2.98282 9.47611 2.67413 9.1118 2.71693C8.34103 2.80748 7.57847 2.49162 7.09748 1.88257ZM6.65186 4.97372C6.19163 4.97372 5.81853 5.34682 5.81853 5.80706C5.81853 6.2673 6.19163 6.64039 6.65186 6.64039C7.1121 6.64039 7.4852 6.2673 7.4852 5.80706C7.4852 5.34682 7.1121 4.97372 6.65186 4.97372ZM4.15186 5.80706C4.15186 4.42635 5.27115 3.30706 6.65186 3.30706C8.03258 3.30706 9.15186 4.42635 9.15186 5.80706C9.15186 7.18777 8.03258 8.30706 6.65186 8.30706C5.27115 8.30706 4.15186 7.18777 4.15186 5.80706Z" fill="#4A5565"/>
</svg>
