<svg width="28" height="30" viewBox="0 0 28 30" fill="none" xmlns="http://www.w3.org/2000/svg">
<path fill-rule="evenodd" clip-rule="evenodd" d="M13.701 0C14.5294 0 15.201 0.671573 15.201 1.5V3.71494C17.1228 4.08705 18.8957 5.04643 20.2648 6.47822C21.9698 8.26128 22.9149 10.6372 22.9005 13.1041V15.7995C22.9005 17.1186 23.3857 17.9155 23.982 18.6773C24.0579 18.7743 24.1516 18.8892 24.2538 19.0144C24.501 19.3173 24.7974 19.6806 25.0091 19.9962C25.3526 20.5083 25.701 21.1945 25.701 22.062C25.701 22.0855 25.7011 22.1104 25.7011 22.1365C25.702 22.5185 25.7035 23.1661 25.5368 23.7214C25.4381 24.0505 25.245 24.4823 24.8425 24.8309C24.4127 25.2031 23.8942 25.3515 23.394 25.3515H20.095C19.7313 26.4734 19.076 27.4879 18.1856 28.2855C16.9528 29.3897 15.356 30.0003 13.701 30.0003C12.046 30.0003 10.4492 29.3897 9.21639 28.2855C8.32599 27.4879 7.67072 26.4734 7.30704 25.3515H4.008C3.50778 25.3515 2.98926 25.2031 2.55951 24.8309C2.15699 24.4823 1.9639 24.0505 1.86516 23.7214C1.69853 23.1661 1.70001 22.5185 1.70088 22.1365C1.70094 22.1104 1.701 22.0855 1.701 22.062C1.701 21.1945 2.04938 20.5083 2.3929 19.9962C2.6046 19.6806 2.90101 19.3173 3.14822 19.0144C3.25036 18.8892 3.34411 18.7743 3.42001 18.6773C4.01626 17.9155 4.5015 17.1186 4.5015 15.7995V13.104C4.48711 10.6372 5.43217 8.26126 7.13715 6.47822C8.50627 5.04643 10.2792 4.08705 12.201 3.71494V1.5C12.201 0.671573 12.8726 0 13.701 0ZM13.701 6.54886C12.0339 6.62767 10.4599 7.34423 9.3054 8.55155C8.13765 9.77276 7.49073 11.4003 7.50147 13.09L7.50153 13.0995L7.5015 15.7995C7.5015 18.0594 6.58649 19.499 5.78249 20.5263C5.60782 20.7495 5.46597 20.9221 5.34429 21.0702C5.15908 21.2957 5.0206 21.4642 4.88426 21.6675C4.70268 21.9381 4.701 22.0348 4.701 22.062C4.701 22.1692 4.70111 22.2645 4.70215 22.3515H22.6999C22.7009 22.2645 22.701 22.1692 22.701 22.062C22.701 22.0348 22.6993 21.9381 22.5177 21.6675C22.3814 21.4642 22.2429 21.2957 22.0577 21.0702C21.936 20.9221 21.7942 20.7495 21.6195 20.5263C20.8155 19.499 19.9005 18.0594 19.9005 15.7995V13.09C19.9112 11.4003 19.2643 9.77276 18.0966 8.55155C16.9421 7.34423 15.3681 6.62767 13.701 6.54886ZM10.6101 25.3515C10.7815 25.6071 10.9853 25.8424 11.218 26.0509C11.9006 26.6623 12.7847 27.0003 13.701 27.0003C14.6173 27.0003 15.5014 26.6623 16.184 26.0509C16.4167 25.8424 16.6205 25.6071 16.7919 25.3515H10.6101ZM5.89715 3.4279C6.505 3.99076 6.54147 4.93981 5.9786 5.54765C4.07383 7.60465 3.01081 10.3018 2.99999 13.1053C2.99679 13.9337 2.32263 14.6027 1.49421 14.5995C0.665787 14.5963 -0.00318764 13.9221 1.14259e-05 13.0937C0.0137402 9.53847 1.36183 6.11797 3.7774 3.50935C4.34026 2.9015 5.28931 2.86503 5.89715 3.4279ZM21.5048 3.4279C22.1127 2.86503 23.0617 2.9015 23.6246 3.50935C26.0402 6.11797 27.3883 9.53847 27.402 13.0937C27.4052 13.9221 26.7362 14.5963 25.9078 14.5995C25.0794 14.6027 24.4052 13.9337 24.402 13.1053C24.3912 10.3019 23.3282 7.60465 21.4234 5.54765C20.8605 4.93981 20.897 3.99076 21.5048 3.4279Z" fill="#194170"/>
</svg>
