<svg width="28" height="28" viewBox="0 0 28 28" fill="none" xmlns="http://www.w3.org/2000/svg">
<path fill-rule="evenodd" clip-rule="evenodd" d="M8.16671 5.83337C8.16671 3.90038 9.73371 2.33337 11.6667 2.33337H16.3334C18.2664 2.33337 19.8334 3.90038 19.8334 5.83337V7.00004H22.1667C24.0997 7.00004 25.6667 8.56704 25.6667 10.5V22.1667C25.6667 24.0997 24.0997 25.6667 22.1667 25.6667H5.83337C3.90038 25.6667 2.33337 24.0997 2.33337 22.1667V10.5C2.33337 8.56704 3.90038 7.00004 5.83337 7.00004H8.16671V5.83337ZM10.5 7.00004H17.5V5.83337C17.5 5.18904 16.9777 4.66671 16.3334 4.66671H11.6667C11.0224 4.66671 10.5 5.18904 10.5 5.83337V7.00004ZM5.83337 9.33337C5.18904 9.33337 4.66671 9.85571 4.66671 10.5V14.4117C4.69883 14.4252 4.73208 14.4391 4.76643 14.4533C5.26634 14.6601 5.99742 14.9388 6.90564 15.2183C8.72744 15.7789 11.233 16.3334 14 16.3334C16.7671 16.3334 19.2726 15.7789 21.0944 15.2183C22.0027 14.9388 22.7337 14.6601 23.2337 14.4533C23.268 14.4391 23.3012 14.4252 23.3334 14.4117V10.5C23.3334 9.85571 22.811 9.33337 22.1667 9.33337H5.83337ZM23.3334 16.9208C22.89 17.0864 22.3685 17.2676 21.7806 17.4484C19.8108 18.0546 17.0663 18.6667 14 18.6667C10.9337 18.6667 8.18931 18.0546 6.21944 17.4484C5.63155 17.2676 5.11009 17.0864 4.66671 16.9208V22.1667C4.66671 22.811 5.18904 23.3334 5.83337 23.3334H22.1667C22.811 23.3334 23.3334 22.811 23.3334 22.1667V16.9208ZM12.8334 12.8334C12.8334 12.189 13.3557 11.6667 14 11.6667H14.0117C14.656 11.6667 15.1784 12.189 15.1784 12.8334C15.1784 13.4777 14.656 14 14.0117 14H14C13.3557 14 12.8334 13.4777 12.8334 12.8334Z" fill="#194170"/>
</svg>
