<svg width="14" height="15" viewBox="0 0 14 15" fill="none" xmlns="http://www.w3.org/2000/svg">
<path fill-rule="evenodd" clip-rule="evenodd" d="M0 0.833333C0 0.373096 0.373096 0 0.833333 0H12.5C12.9602 0 13.3333 0.373096 13.3333 0.833333C13.3333 1.29357 12.9602 1.66667 12.5 1.66667V13.3333C12.9602 13.3333 13.3333 13.7064 13.3333 14.1667C13.3333 14.6269 12.9602 15 12.5 15H0.833333C0.373096 15 0 14.6269 0 14.1667C0 13.7064 0.373096 13.3333 0.833333 13.3333V1.66667C0.373096 1.66667 0 1.29357 0 0.833333ZM2.5 1.66667V13.3333H4.16667V10.8333C4.16667 10.3913 4.34226 9.96738 4.65482 9.65482C4.96738 9.34226 5.3913 9.16667 5.83333 9.16667H7.5C7.94203 9.16667 8.36595 9.34226 8.67851 9.65482C8.99107 9.96738 9.16667 10.3913 9.16667 10.8333V13.3333H10.8333V1.66667H2.5ZM7.5 13.3333V10.8333H5.83333V13.3333H7.5ZM3.33333 3.33333C3.33333 2.8731 3.70643 2.5 4.16667 2.5H5C5.46024 2.5 5.83333 2.8731 5.83333 3.33333V4.16667C5.83333 4.6269 5.46024 5 5 5H4.16667C3.70643 5 3.33333 4.6269 3.33333 4.16667V3.33333ZM7.5 3.33333C7.5 2.8731 7.8731 2.5 8.33333 2.5H9.16667C9.6269 2.5 10 2.8731 10 3.33333V4.16667C10 4.6269 9.6269 5 9.16667 5H8.33333C7.8731 5 7.5 4.6269 7.5 4.16667V3.33333ZM3.33333 6.66667C3.33333 6.20643 3.70643 5.83333 4.16667 5.83333H5C5.46024 5.83333 5.83333 6.20643 5.83333 6.66667V7.5C5.83333 7.96024 5.46024 8.33333 5 8.33333H4.16667C3.70643 8.33333 3.33333 7.96024 3.33333 7.5V6.66667ZM7.5 6.66667C7.5 6.20643 7.8731 5.83333 8.33333 5.83333H9.16667C9.6269 5.83333 10 6.20643 10 6.66667V7.5C10 7.96024 9.6269 8.33333 9.16667 8.33333H8.33333C7.8731 8.33333 7.5 7.96024 7.5 7.5V6.66667Z" fill="#6A7282"/>
</svg>
