<svg width="17" height="17" viewBox="0 0 17 17" fill="none" xmlns="http://www.w3.org/2000/svg">
<path fill-rule="evenodd" clip-rule="evenodd" d="M5.16667 2.58496C5.53486 2.58496 5.83333 2.88344 5.83333 3.25163V3.91829H7.83333V3.25163C7.83333 2.88344 8.13181 2.58496 8.5 2.58496C8.86819 2.58496 9.16667 2.88344 9.16667 3.25163V3.91829H11.1667V3.25163C11.1667 2.88344 11.4651 2.58496 11.8333 2.58496C12.2015 2.58496 12.5 2.88344 12.5 3.25163V3.91829H13.1667C13.903 3.91829 14.5 4.51525 14.5 5.25163V13.2516C14.5 13.988 13.903 14.585 13.1667 14.585H3.83333C3.09695 14.585 2.5 13.988 2.5 13.2516V5.25163C2.5 4.51525 3.09695 3.91829 3.83333 3.91829H4.5L4.5 3.25163C4.5 2.88344 4.79848 2.58496 5.16667 2.58496ZM4.5 5.25163L3.83333 5.25163V6.58496H13.1667V5.25163H12.5C12.5 5.61982 12.2015 5.91829 11.8333 5.91829C11.4651 5.91829 11.1667 5.61982 11.1667 5.25163H9.16667C9.16667 5.61982 8.86819 5.91829 8.5 5.91829C8.13181 5.91829 7.83333 5.61982 7.83333 5.25163H5.83333C5.83333 5.61982 5.53486 5.91829 5.16667 5.91829C4.79848 5.91829 4.5 5.61982 4.5 5.25163ZM13.1667 7.91829H3.83333V13.2516H13.1667V7.91829ZM5.16667 9.25163C5.16667 8.88344 5.46514 8.58496 5.83333 8.58496H5.84C6.20819 8.58496 6.50667 8.88344 6.50667 9.25163V9.25829C6.50667 9.62648 6.20819 9.92496 5.84 9.92496H5.83333C5.46514 9.92496 5.16667 9.62648 5.16667 9.25829V9.25163ZM7.83333 9.25163C7.83333 8.88344 8.13181 8.58496 8.5 8.58496H8.50667C8.87486 8.58496 9.17333 8.88344 9.17333 9.25163V9.25829C9.17333 9.62648 8.87486 9.92496 8.50667 9.92496H8.5C8.13181 9.92496 7.83333 9.62648 7.83333 9.25829V9.25163ZM10.5 9.25163C10.5 8.88344 10.7985 8.58496 11.1667 8.58496H11.1733C11.5415 8.58496 11.84 8.88344 11.84 9.25163V9.25829C11.84 9.62648 11.5415 9.92496 11.1733 9.92496H11.1667C10.7985 9.92496 10.5 9.62648 10.5 9.25829V9.25163ZM5.16667 11.9183C5.16667 11.5501 5.46514 11.2516 5.83333 11.2516H5.84C6.20819 11.2516 6.50667 11.5501 6.50667 11.9183V11.925C6.50667 12.2932 6.20819 12.5916 5.84 12.5916H5.83333C5.46514 12.5916 5.16667 12.2932 5.16667 11.925V11.9183ZM7.83333 11.9183C7.83333 11.5501 8.13181 11.2516 8.5 11.2516H8.50667C8.87486 11.2516 9.17333 11.5501 9.17333 11.9183V11.925C9.17333 12.2932 8.87486 12.5916 8.50667 12.5916H8.5C8.13181 12.5916 7.83333 12.2932 7.83333 11.925V11.9183ZM10.5 11.9183C10.5 11.5501 10.7985 11.2516 11.1667 11.2516H11.1733C11.5415 11.2516 11.84 11.5501 11.84 11.9183V11.925C11.84 12.2932 11.5415 12.5916 11.1733 12.5916H11.1667C10.7985 12.5916 10.5 12.2932 10.5 11.925V11.9183Z" fill="#194170"/>
</svg>
