<svg width="23" height="16" viewBox="0 0 23 16" fill="none" xmlns="http://www.w3.org/2000/svg">
<path fill-rule="evenodd" clip-rule="evenodd" d="M0.666016 2.16862C0.666016 0.972002 1.63607 0.00195312 2.83268 0.00195312H20.166C21.3626 0.00195312 22.3327 0.972002 22.3327 2.16862V13.002C22.3327 14.1986 21.3626 15.1686 20.166 15.1686H2.83268C1.63607 15.1686 0.666016 14.1986 0.666016 13.002V2.16862ZM2.83268 6.50196V13.002H20.166V6.50196H2.83268ZM20.166 4.33529H2.83268V2.16862H20.166V4.33529ZM3.91602 9.75196C3.91602 9.15365 4.40104 8.66862 4.99935 8.66862H7.16602C7.76432 8.66862 8.24935 9.15365 8.24935 9.75196C8.24935 10.3503 7.76432 10.8353 7.16602 10.8353H4.99935C4.40104 10.8353 3.91602 10.3503 3.91602 9.75196ZM9.33268 9.75196C9.33268 9.15365 9.81771 8.66862 10.416 8.66862H15.8327C16.431 8.66862 16.916 9.15365 16.916 9.75196C16.916 10.3503 16.431 10.8353 15.8327 10.8353H10.416C9.81771 10.8353 9.33268 10.3503 9.33268 9.75196Z" fill="#194170"/>
</svg>
