<svg width="28" height="28" viewBox="0 0 28 28" fill="none" xmlns="http://www.w3.org/2000/svg">
<path fill-rule="evenodd" clip-rule="evenodd" d="M8.16671 6.99996C8.16671 5.7113 9.21138 4.66663 10.5 4.66663H23.3334C24.622 4.66663 25.6667 5.7113 25.6667 6.99996V15.1666C25.6667 16.4553 24.622 17.5 23.3334 17.5H22.1667C21.5224 17.5 21 16.9776 21 16.3333C21 15.689 21.5224 15.1666 22.1667 15.1666H23.3334V6.99996H10.5V8.16663C10.5 8.81096 9.97771 9.33329 9.33337 9.33329C8.68904 9.33329 8.16671 8.81096 8.16671 8.16663V6.99996ZM2.33337 12.8333C2.33337 11.5446 3.37804 10.5 4.66671 10.5H17.5C18.7887 10.5 19.8334 11.5446 19.8334 12.8333V21C19.8334 22.2886 18.7887 23.3333 17.5 23.3333H4.66671C3.37804 23.3333 2.33337 22.2886 2.33337 21V12.8333ZM17.5 12.8333H4.66671V21H17.5V12.8333ZM11.0834 16.3333C10.7612 16.3333 10.5 16.5945 10.5 16.9166C10.5 17.2388 10.7612 17.5 11.0834 17.5C11.4055 17.5 11.6667 17.2388 11.6667 16.9166C11.6667 16.5945 11.4055 16.3333 11.0834 16.3333ZM8.16671 16.9166C8.16671 15.3058 9.47254 14 11.0834 14C12.6942 14 14 15.3058 14 16.9166C14 18.5275 12.6942 19.8333 11.0834 19.8333C9.47254 19.8333 8.16671 18.5275 8.16671 16.9166Z" fill="#194170"/>
</svg>
