<svg width="30" height="24" viewBox="0 0 30 24" fill="none" xmlns="http://www.w3.org/2000/svg">
<path fill-rule="evenodd" clip-rule="evenodd" d="M7.5 3C7.5 1.34315 8.84315 0 10.5 0H27C28.6569 0 30 1.34315 30 3V13.5C30 15.1569 28.6569 16.5 27 16.5H25.5C24.6716 16.5 24 15.8284 24 15C24 14.1716 24.6716 13.5 25.5 13.5H27V3H10.5V4.5C10.5 5.32843 9.82843 6 9 6C8.17157 6 7.5 5.32843 7.5 4.5V3ZM0 10.5C0 8.84315 1.34315 7.5 3 7.5H19.5C21.1569 7.5 22.5 8.84315 22.5 10.5V21C22.5 22.6569 21.1569 24 19.5 24H3C1.34315 24 0 22.6569 0 21V10.5ZM19.5 10.5H3V21H19.5V10.5ZM11.25 15C10.8358 15 10.5 15.3358 10.5 15.75C10.5 16.1642 10.8358 16.5 11.25 16.5C11.6642 16.5 12 16.1642 12 15.75C12 15.3358 11.6642 15 11.25 15ZM7.5 15.75C7.5 13.6789 9.17893 12 11.25 12C13.3211 12 15 13.6789 15 15.75C15 17.8211 13.3211 19.5 11.25 19.5C9.17893 19.5 7.5 17.8211 7.5 15.75Z" fill="#194170"/>
</svg>
