<svg width="36" height="36" viewBox="0 0 36 36" fill="none" xmlns="http://www.w3.org/2000/svg">
<path fill-rule="evenodd" clip-rule="evenodd" d="M12.75 3.87868C13.3126 3.31607 14.0757 3 14.8713 3H27C28.6569 3 30 4.34315 30 6V30C30 31.6569 28.6569 33 27 33H9C7.34315 33 6 31.6569 6 30V11.8713C6 11.0757 6.31607 10.3126 6.87868 9.75L12.75 3.87868ZM9 13.5V30H27V6H16.5V10.5C16.5 12.1569 15.1569 13.5 13.5 13.5H9ZM13.5 7.37132V10.5H10.3713L13.5 7.37132ZM18 16.5C18.8284 16.5 19.5 17.1716 19.5 18V27C19.5 27.8284 18.8284 28.5 18 28.5C17.1716 28.5 16.5 27.8284 16.5 27V18C16.5 17.1716 17.1716 16.5 18 16.5ZM22.5 21C23.3284 21 24 21.6716 24 22.5V27C24 27.8284 23.3284 28.5 22.5 28.5C21.6716 28.5 21 27.8284 21 27V22.5C21 21.6716 21.6716 21 22.5 21ZM13.5 22.5C14.3284 22.5 15 23.1716 15 24V27C15 27.8284 14.3284 28.5 13.5 28.5C12.6716 28.5 12 27.8284 12 27V24C12 23.1716 12.6716 22.5 13.5 22.5Z" fill="#194170"/>
</svg>
