<svg width="17" height="13" viewBox="0 0 17 13" fill="none" xmlns="http://www.w3.org/2000/svg">
<path fill-rule="evenodd" clip-rule="evenodd" d="M16.0059 0.244078C16.3314 0.569515 16.3314 1.09715 16.0059 1.42259L11.4226 6.00592C11.1178 6.31069 10.631 6.33277 10.2999 6.05685L5.83336 2.33476L1.36684 6.05685C1.01328 6.35149 0.487807 6.30372 0.19317 5.95015C-0.101467 5.59659 -0.0536969 5.07112 0.299867 4.77648L5.29987 0.609816C5.60891 0.352284 6.0578 0.352284 6.36684 0.609816L10.7822 4.28929L14.8274 0.244078C15.1529 -0.0813592 15.6805 -0.0813592 16.0059 0.244078ZM5.83336 6.25C6.29359 6.25 6.66669 6.6231 6.66669 7.08333V12.0833C6.66669 12.5436 6.29359 12.9167 5.83336 12.9167C5.37312 12.9167 5.00002 12.5436 5.00002 12.0833V7.08333C5.00002 6.6231 5.37312 6.25 5.83336 6.25ZM15.8334 6.25C16.2936 6.25 16.6667 6.6231 16.6667 7.08333V12.0833C16.6667 12.5436 16.2936 12.9167 15.8334 12.9167C15.3731 12.9167 15 12.5436 15 12.0833V7.08333C15 6.6231 15.3731 6.25 15.8334 6.25ZM0.833354 7.91667C1.29359 7.91667 1.66669 8.28976 1.66669 8.75V12.0833C1.66669 12.5436 1.29359 12.9167 0.833354 12.9167C0.373117 12.9167 2.09216e-05 12.5436 2.09216e-05 12.0833V8.75C2.09216e-05 8.28976 0.373117 7.91667 0.833354 7.91667ZM10 12.0833V8.75C10 8.28976 10.3731 7.91667 10.8334 7.91667C11.2936 7.91667 11.6667 8.28976 11.6667 8.75V12.0833C11.6667 12.5436 11.2936 12.9167 10.8334 12.9167C10.3731 12.9167 10 12.5436 10 12.0833Z" fill="#4A5565"/>
</svg>
