<svg width="182" height="176" viewBox="0 0 182 176" fill="none" xmlns="http://www.w3.org/2000/svg">
<path d="M121.927 49.7293C121.927 49.3984 122.195 49.1301 122.526 49.1301H180.943C181.274 49.1301 181.542 49.3984 181.542 49.7293V175.251C181.542 175.582 181.274 175.85 180.943 175.85H122.526C122.195 175.85 121.927 175.582 121.927 175.251V49.7293Z" fill="#E1EFFE"/>
<path d="M121.927 49.7293C121.927 49.3984 122.195 49.1301 122.526 49.1301H180.943C181.274 49.1301 181.542 49.3984 181.542 49.7293V175.251C181.542 175.582 181.274 175.85 180.943 175.85H122.526C122.195 175.85 121.927 175.582 121.927 175.251V49.7293Z" fill="url(#paint0_linear_535_98439)"/>
<path d="M121.927 52.7251H181.542V2.39659C181.542 1.07299 180.469 -7.62939e-06 179.145 -7.62939e-06H124.323C123 -7.62939e-06 121.927 1.07299 121.927 2.39659V52.7251Z" fill="#E1EFFE"/>
<path d="M121.927 52.7251H181.542V2.39659C181.542 1.07299 180.469 -7.62939e-06 179.145 -7.62939e-06H124.323C123 -7.62939e-06 121.927 1.07299 121.927 2.39659V52.7251Z" fill="url(#paint1_linear_535_98439)"/>
<path d="M153.831 38.9447C152.633 36.5481 150.636 34.1515 149.787 33.2527L158.025 32.0544C157.326 33.2028 156.108 36.0388 156.827 38.1957C157.726 40.8919 157.876 43.1387 156.827 43.1387C155.779 43.1387 155.329 41.9404 153.831 38.9447Z" fill="#F9FAFB"/>
<path d="M153.831 38.9447C152.633 36.5481 150.636 34.1515 149.787 33.2527L158.025 32.0544C157.326 33.2028 156.108 36.0388 156.827 38.1957C157.726 40.8919 157.876 43.1387 156.827 43.1387C155.779 43.1387 155.329 41.9404 153.831 38.9447Z" fill="#A4CAFE"/>
<path d="M153.831 38.9447C152.633 36.5481 150.636 34.1515 149.787 33.2527L158.025 32.0544C157.326 33.2028 156.108 36.0388 156.827 38.1957C157.726 40.8919 157.876 43.1387 156.827 43.1387C155.779 43.1387 155.329 41.9404 153.831 38.9447Z" fill="url(#paint2_linear_535_98439)"/>
<path d="M153.831 38.9447C152.633 36.5481 150.636 34.1515 149.787 33.2527L158.025 32.0544C157.326 33.2028 156.108 36.0388 156.827 38.1957C157.726 40.8919 157.876 43.1387 156.827 43.1387C155.779 43.1387 155.329 41.9404 153.831 38.9447Z" fill="url(#paint3_linear_535_98439)"/>
<path d="M154.88 37.1474C154.88 35.7094 156.577 33.8021 158.025 33.1031C161.071 31.8549 168.241 30.4968 167.762 34.4512C167.162 39.3942 162.369 39.3942 160.122 39.2444C157.876 39.0946 154.88 38.9448 154.88 37.1474Z" fill="#F9FAFB"/>
<path d="M154.88 37.1474C154.88 35.7094 156.577 33.8021 158.025 33.1031C161.071 31.8549 168.241 30.4968 167.762 34.4512C167.162 39.3942 162.369 39.3942 160.122 39.2444C157.876 39.0946 154.88 38.9448 154.88 37.1474Z" fill="#A4CAFE"/>
<path d="M154.88 37.1474C154.88 35.7094 156.577 33.8021 158.025 33.1031C161.071 31.8549 168.241 30.4968 167.762 34.4512C167.162 39.3942 162.369 39.3942 160.122 39.2444C157.876 39.0946 154.88 38.9448 154.88 37.1474Z" fill="url(#paint4_linear_535_98439)"/>
<path d="M154.88 37.1474C154.88 35.7094 156.577 33.8021 158.025 33.1031C161.071 31.8549 168.241 30.4968 167.762 34.4512C167.162 39.3942 162.369 39.3942 160.122 39.2444C157.876 39.0946 154.88 38.9448 154.88 37.1474Z" fill="url(#paint5_linear_535_98439)"/>
<path d="M131.363 16.6263C130.165 17.7048 130.365 19.3724 130.614 20.0715C130.115 20.2712 129.176 21.06 129.416 22.6178C129.656 24.1756 131.214 24.5651 131.963 24.5651C133.91 28.6093 137.205 27.411 137.954 28.0102C138.553 28.4895 138.903 29.508 139.003 29.9574C139.122 31.5152 140.75 31.9046 141.549 31.9046C142.298 34.7506 144.994 35.1999 150.836 34.3012C156.677 33.4025 162.669 34.3012 165.964 34.9004C169.26 35.4995 170.608 32.6536 170.608 30.8561C170.608 29.0587 171.956 28.4595 172.106 26.2127C172.255 23.9659 170.608 22.9174 170.608 20.9702C170.608 19.4124 169.21 17.8246 168.511 17.2255C168.75 14.5892 166.713 13.5307 165.665 13.331C165.665 11.5336 160.422 8.98718 158.475 8.53781C156.528 8.08845 154.88 7.93869 154.131 7.63909C153.382 7.33949 151.285 7.18975 150.087 7.03997C148.888 6.89018 147.241 7.7889 144.545 7.93869C141.848 8.08848 140.5 10.0357 139.751 10.1855C139.003 10.3353 137.355 10.3353 136.306 11.5336C135.258 12.7319 134.958 12.5821 134.06 13.6306C133.161 14.6791 132.861 15.2783 131.363 16.6263Z" fill="#F9FAFB"/>
<path d="M131.363 16.6263C130.165 17.7048 130.365 19.3724 130.614 20.0715C130.115 20.2712 129.176 21.06 129.416 22.6178C129.656 24.1756 131.214 24.5651 131.963 24.5651C133.91 28.6093 137.205 27.411 137.954 28.0102C138.553 28.4895 138.903 29.508 139.003 29.9574C139.122 31.5152 140.75 31.9046 141.549 31.9046C142.298 34.7506 144.994 35.1999 150.836 34.3012C156.677 33.4025 162.669 34.3012 165.964 34.9004C169.26 35.4995 170.608 32.6536 170.608 30.8561C170.608 29.0587 171.956 28.4595 172.106 26.2127C172.255 23.9659 170.608 22.9174 170.608 20.9702C170.608 19.4124 169.21 17.8246 168.511 17.2255C168.75 14.5892 166.713 13.5307 165.665 13.331C165.665 11.5336 160.422 8.98718 158.475 8.53781C156.528 8.08845 154.88 7.93869 154.131 7.63909C153.382 7.33949 151.285 7.18975 150.087 7.03997C148.888 6.89018 147.241 7.7889 144.545 7.93869C141.848 8.08848 140.5 10.0357 139.751 10.1855C139.003 10.3353 137.355 10.3353 136.306 11.5336C135.258 12.7319 134.958 12.5821 134.06 13.6306C133.161 14.6791 132.861 15.2783 131.363 16.6263Z" fill="#A4CAFE"/>
<path d="M131.363 16.6263C130.165 17.7048 130.365 19.3724 130.614 20.0715C130.115 20.2712 129.176 21.06 129.416 22.6178C129.656 24.1756 131.214 24.5651 131.963 24.5651C133.91 28.6093 137.205 27.411 137.954 28.0102C138.553 28.4895 138.903 29.508 139.003 29.9574C139.122 31.5152 140.75 31.9046 141.549 31.9046C142.298 34.7506 144.994 35.1999 150.836 34.3012C156.677 33.4025 162.669 34.3012 165.964 34.9004C169.26 35.4995 170.608 32.6536 170.608 30.8561C170.608 29.0587 171.956 28.4595 172.106 26.2127C172.255 23.9659 170.608 22.9174 170.608 20.9702C170.608 19.4124 169.21 17.8246 168.511 17.2255C168.75 14.5892 166.713 13.5307 165.665 13.331C165.665 11.5336 160.422 8.98718 158.475 8.53781C156.528 8.08845 154.88 7.93869 154.131 7.63909C153.382 7.33949 151.285 7.18975 150.087 7.03997C148.888 6.89018 147.241 7.7889 144.545 7.93869C141.848 8.08848 140.5 10.0357 139.751 10.1855C139.003 10.3353 137.355 10.3353 136.306 11.5336C135.258 12.7319 134.958 12.5821 134.06 13.6306C133.161 14.6791 132.861 15.2783 131.363 16.6263Z" fill="url(#paint6_linear_535_98439)"/>
<path fill-rule="evenodd" clip-rule="evenodd" d="M147.78 9.16459C148.117 8.12726 148.732 7.54971 149.121 7.35547L149.255 7.62342C148.939 7.78125 148.352 8.31204 148.042 9.33046C147.942 9.66028 147.871 10.0414 147.848 10.4775C148.094 10.2442 148.318 10.0547 148.498 9.91684L148.68 10.1548C148.153 10.5575 147.225 11.4355 146.466 12.5667C146.029 13.2184 145.652 13.95 145.438 14.7193C145.41 14.8176 145.387 14.9147 145.366 15.0106C144.941 16.9612 145.804 18.4235 146.298 18.9171L146.086 19.129C145.543 18.5855 144.656 17.0685 145.05 15.0569C144.679 14.8743 143.758 14.6127 142.472 14.827C141.738 14.9494 141.002 15.5629 140.393 16.2745C139.954 16.7877 139.595 17.336 139.366 17.7456C139.49 17.8121 139.602 17.9147 139.701 18.0305C139.85 18.2044 139.988 18.4272 140.109 18.6623C140.352 19.1328 140.543 19.6743 140.644 20.0304L140.356 20.1127C140.258 19.7698 140.074 19.2479 139.843 18.7997C139.727 18.5754 139.602 18.375 139.474 18.2257C139.343 18.0731 139.224 17.9918 139.123 17.9716C139.001 17.9473 138.821 17.9563 138.596 17.9965C138.374 18.0362 138.124 18.1034 137.868 18.1847C137.357 18.3472 136.839 18.5619 136.519 18.7097L136.393 18.4377C136.722 18.2859 137.252 18.0663 137.777 17.8992C138.04 17.8157 138.304 17.7444 138.543 17.7017C138.731 17.668 138.913 17.6502 139.069 17.6626C139.285 17.2681 139.625 16.737 140.045 16.2238C139.467 15.8972 139.034 15.3832 138.724 14.8688C138.385 14.3047 138.186 13.7276 138.107 13.363L138.4 13.2993C138.473 13.6337 138.659 14.18 138.981 14.7143C139.284 15.2183 139.701 15.7005 140.243 15.9907C140.807 15.349 141.511 14.752 142.261 14.5652C142.171 14.1726 142.155 13.6084 142.17 13.0574C142.188 12.4176 142.248 11.7686 142.299 11.3653L142.596 11.4025C142.547 11.7981 142.487 12.4372 142.47 13.0657C142.454 13.6306 142.474 14.1661 142.556 14.5108C143.761 14.3355 144.667 14.5561 145.118 14.7578C145.128 14.7184 145.138 14.6789 145.149 14.6391C145.355 13.8985 145.703 13.1979 146.106 12.5703C145.711 12.4359 145.288 12.1841 144.911 11.9193C144.466 11.6063 144.071 11.2638 143.841 11.0424L144.049 10.8267C144.269 11.0386 144.653 11.371 145.084 11.6742C145.482 11.9545 145.909 12.2006 146.278 12.311C146.683 11.7205 147.13 11.2002 147.54 10.7804C147.541 10.2941 147.597 9.86333 147.689 9.485C147.676 9.48705 147.662 9.48907 147.648 9.49106C147.515 9.50999 147.347 9.52839 147.154 9.54606C146.767 9.5814 146.273 9.61429 145.746 9.64242C144.693 9.69868 143.5 9.73625 142.747 9.73625C142.191 9.73625 141.622 9.99249 141.127 10.3283C140.635 10.6626 140.233 11.0644 140.017 11.329L139.978 11.3762L139.918 11.383C138.598 11.5296 137.88 11.9297 137.345 12.4296C137.073 12.6832 136.845 12.9651 136.606 13.2653C136.595 13.2784 136.585 13.2915 136.575 13.3046C136.346 13.5912 136.106 13.8928 135.813 14.186C134.899 15.1002 134.862 16.2827 134.955 16.7469L134.661 16.8056C134.614 16.5662 134.596 16.1742 134.681 15.7243C134.112 16.1252 133.388 16.6539 132.744 17.1635C132.349 17.4764 131.986 17.7805 131.707 18.0422C131.568 18.1731 131.452 18.2917 131.365 18.3943C131.275 18.4995 131.223 18.5779 131.203 18.6293C130.947 19.2676 131.456 19.9218 132.112 19.9218C132.191 19.9218 132.283 19.9117 132.384 19.8925C132.902 19.7939 133.59 19.4743 133.993 19.2584C133.836 18.9175 133.663 18.5647 133.476 18.1913L133.744 18.0573C133.954 18.478 134.149 18.8756 134.324 19.2608C134.897 20.5253 135.258 21.6607 135.258 23.0673C135.258 23.7472 135.517 24.3418 135.848 24.8123C136.18 25.2837 136.577 25.6223 136.836 25.7869L136.675 26.0396C136.385 25.8548 135.958 25.4893 135.603 24.9846C135.248 24.4791 134.958 23.8254 134.958 23.0673C134.958 21.7728 134.642 20.7149 134.117 19.5319C133.718 19.7444 133.052 20.0547 132.509 20.1727C132.309 20.5414 132.22 21.0035 132.194 21.4471C132.168 21.912 132.212 22.3409 132.259 22.5897L131.965 22.6462C131.913 22.3744 131.867 21.9207 131.895 21.4299C131.918 21.0333 131.99 20.6021 132.153 20.2207C132.139 20.2211 132.126 20.2214 132.112 20.2214C131.271 20.2214 130.581 19.3777 130.925 18.5181C130.964 18.4197 131.042 18.3108 131.137 18.1996C131.234 18.0858 131.359 17.959 131.502 17.824C131.789 17.5538 132.16 17.2438 132.558 16.9286C133.323 16.3238 134.197 15.6937 134.797 15.278C134.942 14.8426 135.191 14.3841 135.601 13.9742C135.882 13.6932 136.113 13.4035 136.343 13.1145C136.353 13.1026 136.362 13.0906 136.372 13.0787C136.61 12.7797 136.85 12.4812 137.14 12.2106C137.719 11.67 138.485 11.2507 139.824 11.0922C140.064 10.8094 140.468 10.4136 140.959 10.0804C141.476 9.72965 142.105 9.43668 142.747 9.43668C143.493 9.43668 144.68 9.39935 145.73 9.34327C146.255 9.31524 146.745 9.28259 147.126 9.24772C147.317 9.23028 147.48 9.2124 147.606 9.19447C147.681 9.18372 147.739 9.17354 147.78 9.16459ZM152.96 7.90173C153.189 7.7892 153.46 7.69644 153.64 7.64499L153.723 7.93304C153.553 7.98145 153.3 8.06843 153.092 8.1706C152.988 8.22202 152.902 8.27384 152.844 8.3222C152.79 8.36787 152.783 8.39103 152.783 8.39089C152.783 8.57401 152.845 9.11959 152.895 9.53049C153.083 9.3853 153.296 9.27499 153.5 9.19301C153.791 9.07583 154.074 9.012 154.262 8.98847L154.299 9.28573C154.136 9.30617 153.878 9.36373 153.611 9.47091C153.344 9.57848 153.08 9.7315 152.894 9.93662C152.843 9.99188 152.799 10.0506 152.761 10.1129C152.706 10.2052 152.655 10.2943 152.604 10.3816C152.455 10.6388 152.316 10.8801 152.115 11.1388C151.842 11.489 151.458 11.872 150.778 12.4009C150.284 12.785 150.005 13.4992 149.867 14.2712C149.73 15.0366 149.737 15.8238 149.786 16.312L149.488 16.3418C149.437 15.8314 149.43 15.0159 149.572 14.2185C149.714 13.4277 150.009 12.6191 150.594 12.1644C151.262 11.6447 151.626 11.2789 151.878 10.9549C152.066 10.7137 152.192 10.4962 152.337 10.2445C152.389 10.1545 152.444 10.0601 152.505 9.95876C152.541 9.89846 152.581 9.8417 152.626 9.78835C152.574 9.38683 152.483 8.62619 152.483 8.38817C152.483 8.25733 152.574 8.15743 152.651 8.09277C152.736 8.02192 152.846 7.95766 152.96 7.90173ZM157.043 9.31995C157.397 8.98729 157.82 8.7106 158.103 8.55624L158.247 8.81924C157.981 8.96445 157.58 9.227 157.248 9.53843C157.082 9.69402 156.937 9.85822 156.835 10.0224C156.732 10.1874 156.677 10.3432 156.677 10.4852C156.677 10.4937 156.677 10.5023 156.677 10.5109C157.402 10.1989 158.382 10.1646 159.321 10.2461C160.399 10.3395 161.462 10.5892 162.114 10.7915L162.025 11.0776C161.39 10.8805 160.348 10.6358 159.295 10.5445C158.258 10.4546 157.246 10.5171 156.592 10.8864C156.492 11.1564 156.313 11.477 156.106 11.8185C155.994 12.0023 155.872 12.1951 155.748 12.3924L155.744 12.3984C155.62 12.5942 155.494 12.7945 155.37 12.997C155.119 13.4067 154.883 13.8206 154.71 14.2138C154.536 14.6089 154.43 14.9707 154.43 15.2784C154.43 15.6046 154.445 15.9454 154.459 16.2933C154.461 16.3405 154.463 16.3879 154.465 16.4354C154.482 16.8309 154.496 17.2332 154.487 17.6225C154.468 18.3962 154.355 19.1466 153.953 19.7093L153.709 19.5351C154.056 19.0493 154.169 18.3767 154.187 17.6152C154.196 17.2368 154.182 16.8433 154.166 16.4478C154.164 16.4005 154.162 16.3533 154.16 16.306C154.146 15.9589 154.131 15.6114 154.131 15.2784C154.131 14.9094 154.255 14.5026 154.436 14.0929C154.617 13.6812 154.862 13.2537 155.114 12.8408C155.239 12.6365 155.367 12.4346 155.49 12.2395L155.494 12.2324C155.619 12.0347 155.74 11.8441 155.85 11.663C156.072 11.2977 156.244 10.9827 156.327 10.7371C156.362 10.6329 156.378 10.5494 156.378 10.4852C156.378 10.2677 156.46 10.0566 156.581 9.86386C156.701 9.67045 156.865 9.48639 157.043 9.31995ZM158.393 13.9996C158.448 13.4808 158.634 12.9748 158.79 12.6647L159.058 12.7993C158.914 13.0853 158.741 13.5563 158.691 14.0311C158.644 14.4774 158.708 14.8945 158.966 15.1788C159.48 15.0284 160.054 15.0152 160.746 15.1306C162.093 15.3551 162.955 16.024 163.303 16.4301C164.627 15.6047 165.334 14.1961 165.521 13.5867L165.808 13.6748C165.607 14.3274 164.868 15.804 163.469 16.6797C163.724 17.1871 163.721 17.82 163.621 18.3969C163.512 19.0304 163.282 19.6285 163.102 19.9888L162.834 19.8548C163.004 19.516 163.223 18.9459 163.326 18.3461C163.43 17.743 163.411 17.1415 163.143 16.7098C162.913 16.3913 162.091 15.6585 160.697 15.4261C159.996 15.3093 159.448 15.3344 158.971 15.491C158.25 15.7274 157.661 16.273 156.944 17.1694L156.71 16.9823C157.37 16.1578 157.956 15.5815 158.666 15.2851C158.393 14.9188 158.347 14.4408 158.393 13.9996ZM142.681 17.9608C142.559 17.6162 142.413 17.3173 142.317 17.1501L142.578 17.0015C142.682 17.1839 142.835 17.4991 142.963 17.861C143.09 18.2213 143.196 18.6392 143.196 19.0231C143.196 19.3592 143.34 20.0147 143.528 20.7166C143.701 21.3614 143.907 22.0263 144.054 22.4769C145.187 22.5044 147.244 22.5905 148.354 22.6404C148.396 22.5773 148.45 22.5198 148.522 22.484C148.62 22.435 149.077 22.2286 149.725 21.9631C149.502 21.6906 149.35 21.3185 149.246 20.9607C149.117 20.5158 149.055 20.064 149.038 19.781L149.337 19.763C149.353 20.0272 149.412 20.4566 149.534 20.8772C149.646 21.2654 149.807 21.6227 150.02 21.844C151.475 21.2614 153.693 20.4699 155.169 20.3715C156.257 20.299 157.085 20.5778 157.649 20.9193C158.015 20.4464 158.607 19.8868 159.204 19.3738C159.852 18.8166 160.517 18.3048 160.933 18.0031L161.109 18.2456C160.699 18.5431 160.04 19.0498 159.399 19.601C158.81 20.1075 158.245 20.6437 157.898 21.0862C158.158 21.278 158.343 21.4762 158.45 21.6361L158.2 21.8023C158.102 21.6555 157.905 21.4455 157.603 21.2448C157.091 20.9047 156.288 20.5971 155.189 20.6704C153.738 20.7672 151.501 21.57 150.042 22.1577C149.288 22.4618 148.753 22.7035 148.656 22.7519C148.638 22.7606 148.608 22.7886 148.574 22.8591C148.526 22.9595 148.491 23.1039 148.469 23.2585C148.447 23.4106 148.439 23.5611 148.439 23.6665H148.139C148.139 23.5484 148.148 23.3837 148.172 23.216C148.185 23.1238 148.204 23.0269 148.229 22.9347C147.06 22.8825 145.009 22.7975 143.942 22.7739C143.761 22.7699 143.61 22.7677 143.496 22.7677C143.314 22.7677 143.084 22.8387 142.813 22.978C142.544 23.1162 142.246 23.3148 141.933 23.5545C141.306 24.0338 140.629 24.6664 140.006 25.2769C139.744 25.5332 139.492 25.7849 139.258 26.0192C138.731 26.546 138.485 26.9873 138.386 27.316C138.285 27.6487 138.336 27.8562 138.382 27.9332L138.125 28.0874C138.021 27.9148 137.982 27.6129 138.099 27.2291C138.216 26.8414 138.495 26.3591 139.046 25.8074L139.047 25.807C139.214 25.6395 139.391 25.4624 139.575 25.2809C139.199 25.1946 138.811 24.9745 138.47 24.7302C138.021 24.4092 137.623 24.0245 137.393 23.7663L137.616 23.5667C137.835 23.8114 138.216 24.1806 138.644 24.4866C139.055 24.781 139.484 24.9982 139.842 25.0185C140.454 24.4199 141.124 23.7957 141.751 23.3165C142.072 23.071 142.385 22.8609 142.676 22.7115C142.965 22.5634 143.245 22.4682 143.496 22.4682C143.564 22.4682 143.645 22.4689 143.737 22.4704C143.591 22.0206 143.401 21.3992 143.239 20.7943C143.053 20.1005 142.897 19.4059 142.897 19.0231C142.897 18.688 142.803 18.3069 142.681 17.9608ZM137.928 21.3233C137.515 21.1313 137.114 21.0151 136.876 20.9674L136.935 20.6736C137.196 20.7258 137.619 20.8493 138.054 21.0516C138.489 21.2534 138.948 21.5394 139.267 21.9229C139.847 22.6185 140.673 23.0856 141.009 23.2292L140.891 23.5046C140.527 23.3486 139.656 22.8571 139.037 22.1147C138.757 21.7792 138.343 21.516 137.928 21.3233ZM164.374 24.2145C165.256 23.0876 166.007 21.7716 166.428 20.9049L166.698 21.0357C166.27 21.9165 165.508 23.2517 164.61 24.3991C164.161 24.9728 163.675 25.5036 163.176 25.9075C162.679 26.3099 162.158 26.5962 161.639 26.6611C160.933 26.7492 159.981 26.9156 158.907 27.1031C158.465 27.1803 158.002 27.261 157.528 27.3414C155.907 27.6162 154.153 27.8854 152.643 27.9838C152.044 28.0229 151.481 28.0353 150.978 28.0101C149.33 27.9277 148.093 28.0737 147.113 28.2207C146.957 28.2441 146.806 28.2678 146.66 28.2906C146.079 28.3817 145.582 28.4597 145.144 28.4597C144.547 28.4597 144.046 28.4976 143.623 28.6561C143.208 28.8118 142.86 29.0874 142.578 29.5825C142.111 30.3988 141.896 31.3866 141.847 31.7736L141.55 31.7364C141.601 31.3244 141.825 30.2951 142.317 29.4338C142.467 29.1727 142.635 28.9627 142.822 28.7947C142.652 28.6758 142.385 28.4589 142.042 28.1162C141.607 27.6813 141.044 27.6649 140.829 27.7078L140.77 27.4141C141.055 27.3571 141.73 27.3806 142.254 27.9044C142.668 28.3182 142.953 28.5281 143.072 28.6013C143.212 28.5089 143.361 28.4347 143.518 28.3756C143.994 28.197 144.542 28.1601 145.144 28.1601C145.556 28.1601 146.023 28.0869 146.601 27.9966C146.7 27.9809 146.803 27.9648 146.91 27.9485C146.869 27.7079 146.846 27.3232 146.946 26.9255C147.061 26.4648 147.091 25.761 147.091 25.4639H147.39C147.39 25.766 147.361 26.5002 147.236 26.9981C147.147 27.3545 147.171 27.7012 147.206 27.904C148.176 27.7627 149.394 27.631 150.993 27.7109C151.443 27.7334 151.947 27.7251 152.487 27.6934C152.498 27.4345 152.538 27.0598 152.618 26.7004C152.666 26.4844 152.729 26.2687 152.812 26.0849C152.894 25.9047 153.002 25.737 153.149 25.6389C153.215 25.5949 153.294 25.5089 153.38 25.3835C153.464 25.2607 153.547 25.1111 153.626 24.9519C153.783 24.6335 153.916 24.2881 153.989 24.0685L154.273 24.1632C154.196 24.3929 154.059 24.7515 153.894 25.0847C153.812 25.2512 153.722 25.4143 153.627 25.5527C153.534 25.6886 153.429 25.8122 153.315 25.8881C153.238 25.9398 153.159 26.0463 153.085 26.2082C153.014 26.3665 152.956 26.5607 152.91 26.7655C152.837 27.0927 152.8 27.4338 152.787 27.6736C154.244 27.5681 155.916 27.3107 157.478 27.046C157.947 26.9666 158.406 26.8864 158.846 26.8095C159.924 26.6213 160.889 26.4529 161.602 26.3638C162.041 26.3088 162.511 26.0609 162.988 25.6747C163.463 25.29 163.933 24.7779 164.374 24.2145ZM169.172 23.245C169.969 22.6757 170.366 21.6679 170.461 21.2374L170.754 21.3024C170.65 21.7706 170.227 22.8597 169.346 23.4888C169.119 23.6514 168.908 23.9824 168.7 24.427C168.527 24.7967 168.366 25.2241 168.201 25.6605C168.17 25.743 168.139 25.8258 168.107 25.9086C167.911 26.4249 167.706 26.941 167.473 27.3531C167.243 27.7587 166.966 28.0997 166.609 28.2151C166.386 28.2873 166.022 28.468 165.57 28.7219C165.121 28.9739 164.597 29.292 164.055 29.6324C163.152 30.2007 162.205 30.8291 161.497 31.3111C162.279 31.418 163.014 31.5119 163.857 31.4557C165.62 31.3382 167.141 30.523 167.673 30.136L167.85 30.3782C167.283 30.7901 165.709 31.6325 163.877 31.7546C162.968 31.8152 162.179 31.7071 161.365 31.5955C161.324 31.5898 161.282 31.5841 161.24 31.5783C161.203 31.5733 161.166 31.5682 161.129 31.5632C161.121 31.5684 161.114 31.5736 161.106 31.5787L161.092 31.5583C160.32 31.4545 159.504 31.3622 158.508 31.4095C158.654 31.9959 159.013 32.5104 159.186 32.7037L158.962 32.9032C158.764 32.6816 158.358 32.0999 158.204 31.428C157.789 31.4587 157.341 31.5141 156.854 31.6028C155.297 31.8858 153.709 31.9036 152.24 31.92C152.14 31.9212 152.041 31.9223 151.942 31.9235C150.382 31.9423 148.984 31.9807 147.887 32.3464L147.792 32.0622C148.942 31.679 150.39 31.6426 151.938 31.6239C152.036 31.6227 152.133 31.6216 152.231 31.6205C153.705 31.604 155.269 31.5864 156.8 31.308C157.35 31.208 157.852 31.1492 158.316 31.1201C159.386 31.053 160.254 31.1448 161.054 31.251C161.782 30.7512 162.866 30.0265 163.896 29.3788C164.439 29.0371 164.969 28.7161 165.423 28.4607C165.874 28.2074 166.262 28.0126 166.517 27.93C166.759 27.8518 166.988 27.6014 167.212 27.2054C167.433 26.8159 167.631 26.3203 167.827 25.8022C167.858 25.721 167.889 25.6393 167.92 25.5575C168.085 25.1214 168.251 24.6813 168.429 24.3003C168.637 23.8529 168.876 23.4569 169.172 23.245ZM168.725 28.575C168.59 28.2607 168.389 27.9738 168.247 27.8082L168.474 27.6132C168.632 27.7971 168.851 28.1094 169 28.4566C169.147 28.7984 169.241 29.2076 169.099 29.5638L168.821 29.4525C168.918 29.2096 168.862 28.8948 168.725 28.575Z" fill="url(#paint7_linear_535_98439)"/>
<path fill-rule="evenodd" clip-rule="evenodd" d="M147.78 9.16459C148.117 8.12726 148.732 7.54971 149.121 7.35547L149.255 7.62342C148.939 7.78125 148.352 8.31204 148.042 9.33046C147.942 9.66028 147.871 10.0414 147.848 10.4775C148.094 10.2442 148.318 10.0547 148.498 9.91684L148.68 10.1548C148.153 10.5575 147.225 11.4355 146.466 12.5667C146.029 13.2184 145.652 13.95 145.438 14.7193C145.41 14.8176 145.387 14.9147 145.366 15.0106C144.941 16.9612 145.804 18.4235 146.298 18.9171L146.086 19.129C145.543 18.5855 144.656 17.0685 145.05 15.0569C144.679 14.8743 143.758 14.6127 142.472 14.827C141.738 14.9494 141.002 15.5629 140.393 16.2745C139.954 16.7877 139.595 17.336 139.366 17.7456C139.49 17.8121 139.602 17.9147 139.701 18.0305C139.85 18.2044 139.988 18.4272 140.109 18.6623C140.352 19.1328 140.543 19.6743 140.644 20.0304L140.356 20.1127C140.258 19.7698 140.074 19.2479 139.843 18.7997C139.727 18.5754 139.602 18.375 139.474 18.2257C139.343 18.0731 139.224 17.9918 139.123 17.9716C139.001 17.9473 138.821 17.9563 138.596 17.9965C138.374 18.0362 138.124 18.1034 137.868 18.1847C137.357 18.3472 136.839 18.5619 136.519 18.7097L136.393 18.4377C136.722 18.2859 137.252 18.0663 137.777 17.8992C138.04 17.8157 138.304 17.7444 138.543 17.7017C138.731 17.668 138.913 17.6502 139.069 17.6626C139.285 17.2681 139.625 16.737 140.045 16.2238C139.467 15.8972 139.034 15.3832 138.724 14.8688C138.385 14.3047 138.186 13.7276 138.107 13.363L138.4 13.2993C138.473 13.6337 138.659 14.18 138.981 14.7143C139.284 15.2183 139.701 15.7005 140.243 15.9907C140.807 15.349 141.511 14.752 142.261 14.5652C142.171 14.1726 142.155 13.6084 142.17 13.0574C142.188 12.4176 142.248 11.7686 142.299 11.3653L142.596 11.4025C142.547 11.7981 142.487 12.4372 142.47 13.0657C142.454 13.6306 142.474 14.1661 142.556 14.5108C143.761 14.3355 144.667 14.5561 145.118 14.7578C145.128 14.7184 145.138 14.6789 145.149 14.6391C145.355 13.8985 145.703 13.1979 146.106 12.5703C145.711 12.4359 145.288 12.1841 144.911 11.9193C144.466 11.6063 144.071 11.2638 143.841 11.0424L144.049 10.8267C144.269 11.0386 144.653 11.371 145.084 11.6742C145.482 11.9545 145.909 12.2006 146.278 12.311C146.683 11.7205 147.13 11.2002 147.54 10.7804C147.541 10.2941 147.597 9.86333 147.689 9.485C147.676 9.48705 147.662 9.48907 147.648 9.49106C147.515 9.50999 147.347 9.52839 147.154 9.54606C146.767 9.5814 146.273 9.61429 145.746 9.64242C144.693 9.69868 143.5 9.73625 142.747 9.73625C142.191 9.73625 141.622 9.99249 141.127 10.3283C140.635 10.6626 140.233 11.0644 140.017 11.329L139.978 11.3762L139.918 11.383C138.598 11.5296 137.88 11.9297 137.345 12.4296C137.073 12.6832 136.845 12.9651 136.606 13.2653C136.595 13.2784 136.585 13.2915 136.575 13.3046C136.346 13.5912 136.106 13.8928 135.813 14.186C134.899 15.1002 134.862 16.2827 134.955 16.7469L134.661 16.8056C134.614 16.5662 134.596 16.1742 134.681 15.7243C134.112 16.1252 133.388 16.6539 132.744 17.1635C132.349 17.4764 131.986 17.7805 131.707 18.0422C131.568 18.1731 131.452 18.2917 131.365 18.3943C131.275 18.4995 131.223 18.5779 131.203 18.6293C130.947 19.2676 131.456 19.9218 132.112 19.9218C132.191 19.9218 132.283 19.9117 132.384 19.8925C132.902 19.7939 133.59 19.4743 133.993 19.2584C133.836 18.9175 133.663 18.5647 133.476 18.1913L133.744 18.0573C133.954 18.478 134.149 18.8756 134.324 19.2608C134.897 20.5253 135.258 21.6607 135.258 23.0673C135.258 23.7472 135.517 24.3418 135.848 24.8123C136.18 25.2837 136.577 25.6223 136.836 25.7869L136.675 26.0396C136.385 25.8548 135.958 25.4893 135.603 24.9846C135.248 24.4791 134.958 23.8254 134.958 23.0673C134.958 21.7728 134.642 20.7149 134.117 19.5319C133.718 19.7444 133.052 20.0547 132.509 20.1727C132.309 20.5414 132.22 21.0035 132.194 21.4471C132.168 21.912 132.212 22.3409 132.259 22.5897L131.965 22.6462C131.913 22.3744 131.867 21.9207 131.895 21.4299C131.918 21.0333 131.99 20.6021 132.153 20.2207C132.139 20.2211 132.126 20.2214 132.112 20.2214C131.271 20.2214 130.581 19.3777 130.925 18.5181C130.964 18.4197 131.042 18.3108 131.137 18.1996C131.234 18.0858 131.359 17.959 131.502 17.824C131.789 17.5538 132.16 17.2438 132.558 16.9286C133.323 16.3238 134.197 15.6937 134.797 15.278C134.942 14.8426 135.191 14.3841 135.601 13.9742C135.882 13.6932 136.113 13.4035 136.343 13.1145C136.353 13.1026 136.362 13.0906 136.372 13.0787C136.61 12.7797 136.85 12.4812 137.14 12.2106C137.719 11.67 138.485 11.2507 139.824 11.0922C140.064 10.8094 140.468 10.4136 140.959 10.0804C141.476 9.72965 142.105 9.43668 142.747 9.43668C143.493 9.43668 144.68 9.39935 145.73 9.34327C146.255 9.31524 146.745 9.28259 147.126 9.24772C147.317 9.23028 147.48 9.2124 147.606 9.19447C147.681 9.18372 147.739 9.17354 147.78 9.16459ZM152.96 7.90173C153.189 7.7892 153.46 7.69644 153.64 7.64499L153.723 7.93304C153.553 7.98145 153.3 8.06843 153.092 8.1706C152.988 8.22202 152.902 8.27384 152.844 8.3222C152.79 8.36787 152.783 8.39103 152.783 8.39089C152.783 8.57401 152.845 9.11959 152.895 9.53049C153.083 9.3853 153.296 9.27499 153.5 9.19301C153.791 9.07583 154.074 9.012 154.262 8.98847L154.299 9.28573C154.136 9.30617 153.878 9.36373 153.611 9.47091C153.344 9.57848 153.08 9.7315 152.894 9.93662C152.843 9.99188 152.799 10.0506 152.761 10.1129C152.706 10.2052 152.655 10.2943 152.604 10.3816C152.455 10.6388 152.316 10.8801 152.115 11.1388C151.842 11.489 151.458 11.872 150.778 12.4009C150.284 12.785 150.005 13.4992 149.867 14.2712C149.73 15.0366 149.737 15.8238 149.786 16.312L149.488 16.3418C149.437 15.8314 149.43 15.0159 149.572 14.2185C149.714 13.4277 150.009 12.6191 150.594 12.1644C151.262 11.6447 151.626 11.2789 151.878 10.9549C152.066 10.7137 152.192 10.4962 152.337 10.2445C152.389 10.1545 152.444 10.0601 152.505 9.95876C152.541 9.89846 152.581 9.8417 152.626 9.78835C152.574 9.38683 152.483 8.62619 152.483 8.38817C152.483 8.25733 152.574 8.15743 152.651 8.09277C152.736 8.02192 152.846 7.95766 152.96 7.90173ZM157.043 9.31995C157.397 8.98729 157.82 8.7106 158.103 8.55624L158.247 8.81924C157.981 8.96445 157.58 9.227 157.248 9.53843C157.082 9.69402 156.937 9.85822 156.835 10.0224C156.732 10.1874 156.677 10.3432 156.677 10.4852C156.677 10.4937 156.677 10.5023 156.677 10.5109C157.402 10.1989 158.382 10.1646 159.321 10.2461C160.399 10.3395 161.462 10.5892 162.114 10.7915L162.025 11.0776C161.39 10.8805 160.348 10.6358 159.295 10.5445C158.258 10.4546 157.246 10.5171 156.592 10.8864C156.492 11.1564 156.313 11.477 156.106 11.8185C155.994 12.0023 155.872 12.1951 155.748 12.3924L155.744 12.3984C155.62 12.5942 155.494 12.7945 155.37 12.997C155.119 13.4067 154.883 13.8206 154.71 14.2138C154.536 14.6089 154.43 14.9707 154.43 15.2784C154.43 15.6046 154.445 15.9454 154.459 16.2933C154.461 16.3405 154.463 16.3879 154.465 16.4354C154.482 16.8309 154.496 17.2332 154.487 17.6225C154.468 18.3962 154.355 19.1466 153.953 19.7093L153.709 19.5351C154.056 19.0493 154.169 18.3767 154.187 17.6152C154.196 17.2368 154.182 16.8433 154.166 16.4478C154.164 16.4005 154.162 16.3533 154.16 16.306C154.146 15.9589 154.131 15.6114 154.131 15.2784C154.131 14.9094 154.255 14.5026 154.436 14.0929C154.617 13.6812 154.862 13.2537 155.114 12.8408C155.239 12.6365 155.367 12.4346 155.49 12.2395L155.494 12.2324C155.619 12.0347 155.74 11.8441 155.85 11.663C156.072 11.2977 156.244 10.9827 156.327 10.7371C156.362 10.6329 156.378 10.5494 156.378 10.4852C156.378 10.2677 156.46 10.0566 156.581 9.86386C156.701 9.67045 156.865 9.48639 157.043 9.31995ZM158.393 13.9996C158.448 13.4808 158.634 12.9748 158.79 12.6647L159.058 12.7993C158.914 13.0853 158.741 13.5563 158.691 14.0311C158.644 14.4774 158.708 14.8945 158.966 15.1788C159.48 15.0284 160.054 15.0152 160.746 15.1306C162.093 15.3551 162.955 16.024 163.303 16.4301C164.627 15.6047 165.334 14.1961 165.521 13.5867L165.808 13.6748C165.607 14.3274 164.868 15.804 163.469 16.6797C163.724 17.1871 163.721 17.82 163.621 18.3969C163.512 19.0304 163.282 19.6285 163.102 19.9888L162.834 19.8548C163.004 19.516 163.223 18.9459 163.326 18.3461C163.43 17.743 163.411 17.1415 163.143 16.7098C162.913 16.3913 162.091 15.6585 160.697 15.4261C159.996 15.3093 159.448 15.3344 158.971 15.491C158.25 15.7274 157.661 16.273 156.944 17.1694L156.71 16.9823C157.37 16.1578 157.956 15.5815 158.666 15.2851C158.393 14.9188 158.347 14.4408 158.393 13.9996ZM142.681 17.9608C142.559 17.6162 142.413 17.3173 142.317 17.1501L142.578 17.0015C142.682 17.1839 142.835 17.4991 142.963 17.861C143.09 18.2213 143.196 18.6392 143.196 19.0231C143.196 19.3592 143.34 20.0147 143.528 20.7166C143.701 21.3614 143.907 22.0263 144.054 22.4769C145.187 22.5044 147.244 22.5905 148.354 22.6404C148.396 22.5773 148.45 22.5198 148.522 22.484C148.62 22.435 149.077 22.2286 149.725 21.9631C149.502 21.6906 149.35 21.3185 149.246 20.9607C149.117 20.5158 149.055 20.064 149.038 19.781L149.337 19.763C149.353 20.0272 149.412 20.4566 149.534 20.8772C149.646 21.2654 149.807 21.6227 150.02 21.844C151.475 21.2614 153.693 20.4699 155.169 20.3715C156.257 20.299 157.085 20.5778 157.649 20.9193C158.015 20.4464 158.607 19.8868 159.204 19.3738C159.852 18.8166 160.517 18.3048 160.933 18.0031L161.109 18.2456C160.699 18.5431 160.04 19.0498 159.399 19.601C158.81 20.1075 158.245 20.6437 157.898 21.0862C158.158 21.278 158.343 21.4762 158.45 21.6361L158.2 21.8023C158.102 21.6555 157.905 21.4455 157.603 21.2448C157.091 20.9047 156.288 20.5971 155.189 20.6704C153.738 20.7672 151.501 21.57 150.042 22.1577C149.288 22.4618 148.753 22.7035 148.656 22.7519C148.638 22.7606 148.608 22.7886 148.574 22.8591C148.526 22.9595 148.491 23.1039 148.469 23.2585C148.447 23.4106 148.439 23.5611 148.439 23.6665H148.139C148.139 23.5484 148.148 23.3837 148.172 23.216C148.185 23.1238 148.204 23.0269 148.229 22.9347C147.06 22.8825 145.009 22.7975 143.942 22.7739C143.761 22.7699 143.61 22.7677 143.496 22.7677C143.314 22.7677 143.084 22.8387 142.813 22.978C142.544 23.1162 142.246 23.3148 141.933 23.5545C141.306 24.0338 140.629 24.6664 140.006 25.2769C139.744 25.5332 139.492 25.7849 139.258 26.0192C138.731 26.546 138.485 26.9873 138.386 27.316C138.285 27.6487 138.336 27.8562 138.382 27.9332L138.125 28.0874C138.021 27.9148 137.982 27.6129 138.099 27.2291C138.216 26.8414 138.495 26.3591 139.046 25.8074L139.047 25.807C139.214 25.6395 139.391 25.4624 139.575 25.2809C139.199 25.1946 138.811 24.9745 138.47 24.7302C138.021 24.4092 137.623 24.0245 137.393 23.7663L137.616 23.5667C137.835 23.8114 138.216 24.1806 138.644 24.4866C139.055 24.781 139.484 24.9982 139.842 25.0185C140.454 24.4199 141.124 23.7957 141.751 23.3165C142.072 23.071 142.385 22.8609 142.676 22.7115C142.965 22.5634 143.245 22.4682 143.496 22.4682C143.564 22.4682 143.645 22.4689 143.737 22.4704C143.591 22.0206 143.401 21.3992 143.239 20.7943C143.053 20.1005 142.897 19.4059 142.897 19.0231C142.897 18.688 142.803 18.3069 142.681 17.9608ZM137.928 21.3233C137.515 21.1313 137.114 21.0151 136.876 20.9674L136.935 20.6736C137.196 20.7258 137.619 20.8493 138.054 21.0516C138.489 21.2534 138.948 21.5394 139.267 21.9229C139.847 22.6185 140.673 23.0856 141.009 23.2292L140.891 23.5046C140.527 23.3486 139.656 22.8571 139.037 22.1147C138.757 21.7792 138.343 21.516 137.928 21.3233ZM164.374 24.2145C165.256 23.0876 166.007 21.7716 166.428 20.9049L166.698 21.0357C166.27 21.9165 165.508 23.2517 164.61 24.3991C164.161 24.9728 163.675 25.5036 163.176 25.9075C162.679 26.3099 162.158 26.5962 161.639 26.6611C160.933 26.7492 159.981 26.9156 158.907 27.1031C158.465 27.1803 158.002 27.261 157.528 27.3414C155.907 27.6162 154.153 27.8854 152.643 27.9838C152.044 28.0229 151.481 28.0353 150.978 28.0101C149.33 27.9277 148.093 28.0737 147.113 28.2207C146.957 28.2441 146.806 28.2678 146.66 28.2906C146.079 28.3817 145.582 28.4597 145.144 28.4597C144.547 28.4597 144.046 28.4976 143.623 28.6561C143.208 28.8118 142.86 29.0874 142.578 29.5825C142.111 30.3988 141.896 31.3866 141.847 31.7736L141.55 31.7364C141.601 31.3244 141.825 30.2951 142.317 29.4338C142.467 29.1727 142.635 28.9627 142.822 28.7947C142.652 28.6758 142.385 28.4589 142.042 28.1162C141.607 27.6813 141.044 27.6649 140.829 27.7078L140.77 27.4141C141.055 27.3571 141.73 27.3806 142.254 27.9044C142.668 28.3182 142.953 28.5281 143.072 28.6013C143.212 28.5089 143.361 28.4347 143.518 28.3756C143.994 28.197 144.542 28.1601 145.144 28.1601C145.556 28.1601 146.023 28.0869 146.601 27.9966C146.7 27.9809 146.803 27.9648 146.91 27.9485C146.869 27.7079 146.846 27.3232 146.946 26.9255C147.061 26.4648 147.091 25.761 147.091 25.4639H147.39C147.39 25.766 147.361 26.5002 147.236 26.9981C147.147 27.3545 147.171 27.7012 147.206 27.904C148.176 27.7627 149.394 27.631 150.993 27.7109C151.443 27.7334 151.947 27.7251 152.487 27.6934C152.498 27.4345 152.538 27.0598 152.618 26.7004C152.666 26.4844 152.729 26.2687 152.812 26.0849C152.894 25.9047 153.002 25.737 153.149 25.6389C153.215 25.5949 153.294 25.5089 153.38 25.3835C153.464 25.2607 153.547 25.1111 153.626 24.9519C153.783 24.6335 153.916 24.2881 153.989 24.0685L154.273 24.1632C154.196 24.3929 154.059 24.7515 153.894 25.0847C153.812 25.2512 153.722 25.4143 153.627 25.5527C153.534 25.6886 153.429 25.8122 153.315 25.8881C153.238 25.9398 153.159 26.0463 153.085 26.2082C153.014 26.3665 152.956 26.5607 152.91 26.7655C152.837 27.0927 152.8 27.4338 152.787 27.6736C154.244 27.5681 155.916 27.3107 157.478 27.046C157.947 26.9666 158.406 26.8864 158.846 26.8095C159.924 26.6213 160.889 26.4529 161.602 26.3638C162.041 26.3088 162.511 26.0609 162.988 25.6747C163.463 25.29 163.933 24.7779 164.374 24.2145ZM169.172 23.245C169.969 22.6757 170.366 21.6679 170.461 21.2374L170.754 21.3024C170.65 21.7706 170.227 22.8597 169.346 23.4888C169.119 23.6514 168.908 23.9824 168.7 24.427C168.527 24.7967 168.366 25.2241 168.201 25.6605C168.17 25.743 168.139 25.8258 168.107 25.9086C167.911 26.4249 167.706 26.941 167.473 27.3531C167.243 27.7587 166.966 28.0997 166.609 28.2151C166.386 28.2873 166.022 28.468 165.57 28.7219C165.121 28.9739 164.597 29.292 164.055 29.6324C163.152 30.2007 162.205 30.8291 161.497 31.3111C162.279 31.418 163.014 31.5119 163.857 31.4557C165.62 31.3382 167.141 30.523 167.673 30.136L167.85 30.3782C167.283 30.7901 165.709 31.6325 163.877 31.7546C162.968 31.8152 162.179 31.7071 161.365 31.5955C161.324 31.5898 161.282 31.5841 161.24 31.5783C161.203 31.5733 161.166 31.5682 161.129 31.5632C161.121 31.5684 161.114 31.5736 161.106 31.5787L161.092 31.5583C160.32 31.4545 159.504 31.3622 158.508 31.4095C158.654 31.9959 159.013 32.5104 159.186 32.7037L158.962 32.9032C158.764 32.6816 158.358 32.0999 158.204 31.428C157.789 31.4587 157.341 31.5141 156.854 31.6028C155.297 31.8858 153.709 31.9036 152.24 31.92C152.14 31.9212 152.041 31.9223 151.942 31.9235C150.382 31.9423 148.984 31.9807 147.887 32.3464L147.792 32.0622C148.942 31.679 150.39 31.6426 151.938 31.6239C152.036 31.6227 152.133 31.6216 152.231 31.6205C153.705 31.604 155.269 31.5864 156.8 31.308C157.35 31.208 157.852 31.1492 158.316 31.1201C159.386 31.053 160.254 31.1448 161.054 31.251C161.782 30.7512 162.866 30.0265 163.896 29.3788C164.439 29.0371 164.969 28.7161 165.423 28.4607C165.874 28.2074 166.262 28.0126 166.517 27.93C166.759 27.8518 166.988 27.6014 167.212 27.2054C167.433 26.8159 167.631 26.3203 167.827 25.8022C167.858 25.721 167.889 25.6393 167.92 25.5575C168.085 25.1214 168.251 24.6813 168.429 24.3003C168.637 23.8529 168.876 23.4569 169.172 23.245ZM168.725 28.575C168.59 28.2607 168.389 27.9738 168.247 27.8082L168.474 27.6132C168.632 27.7971 168.851 28.1094 169 28.4566C169.147 28.7984 169.241 29.2076 169.099 29.5638L168.821 29.4525C168.918 29.2096 168.862 28.8948 168.725 28.575Z" fill="url(#paint8_linear_535_98439)"/>
<g opacity="0.5">
<path fill-rule="evenodd" clip-rule="evenodd" d="M136.606 64.4084C136.937 64.4084 137.205 64.6767 137.205 65.0076V87.4757C137.205 87.8066 136.937 88.0748 136.606 88.0748C136.275 88.0748 136.007 87.8066 136.007 87.4757V65.0076C136.007 64.6767 136.275 64.4084 136.606 64.4084ZM138.853 64.4084C139.184 64.4084 139.452 64.6767 139.452 65.0076V87.4757C139.452 87.8066 139.184 88.0748 138.853 88.0748C138.522 88.0748 138.254 87.8066 138.254 87.4757V65.0076C138.254 64.6767 138.522 64.4084 138.853 64.4084ZM141.549 65.0076C141.549 64.6767 141.281 64.4084 140.95 64.4084C140.619 64.4084 140.351 64.6767 140.351 65.0076V87.4757C140.351 87.8066 140.619 88.0748 140.95 88.0748C141.281 88.0748 141.549 87.8066 141.549 87.4757V65.0076ZM143.047 64.4084C143.378 64.4084 143.646 64.6767 143.646 65.0076V87.4757C143.646 87.8066 143.378 88.0748 143.047 88.0748C142.716 88.0748 142.448 87.8066 142.448 87.4757V65.0076C142.448 64.6767 142.716 64.4084 143.047 64.4084ZM145.893 65.0076C145.893 64.6767 145.625 64.4084 145.294 64.4084C144.963 64.4084 144.694 64.6767 144.694 65.0076V87.4757C144.694 87.8066 144.963 88.0748 145.294 88.0748C145.625 88.0748 145.893 87.8066 145.893 87.4757V65.0076ZM147.391 64.4084C147.722 64.4084 147.99 64.6767 147.99 65.0076V87.4757C147.99 87.8066 147.722 88.0748 147.391 88.0748C147.06 88.0748 146.792 87.8066 146.792 87.4757V65.0076C146.792 64.6767 147.06 64.4084 147.391 64.4084ZM150.237 65.0076C150.237 64.6767 149.968 64.4084 149.637 64.4084C149.307 64.4084 149.038 64.6767 149.038 65.0076V87.4757C149.038 87.8066 149.307 88.0748 149.637 88.0748C149.968 88.0748 150.237 87.8066 150.237 87.4757V65.0076ZM151.884 64.4084C152.215 64.4084 152.483 64.6767 152.483 65.0076V87.4757C152.483 87.8066 152.215 88.0748 151.884 88.0748C151.553 88.0748 151.285 87.8066 151.285 87.4757V65.0076C151.285 64.6767 151.553 64.4084 151.884 64.4084ZM154.58 65.0076C154.58 64.6767 154.312 64.4084 153.981 64.4084C153.65 64.4084 153.382 64.6767 153.382 65.0076V87.4757C153.382 87.8066 153.65 88.0748 153.981 88.0748C154.312 88.0748 154.58 87.8066 154.58 87.4757V65.0076ZM156.078 64.4084C156.409 64.4084 156.677 64.6767 156.677 65.0076V87.4757C156.677 87.8066 156.409 88.0748 156.078 88.0748C155.747 88.0748 155.479 87.8066 155.479 87.4757V65.0076C155.479 64.6767 155.747 64.4084 156.078 64.4084ZM158.924 65.0076C158.924 64.6767 158.656 64.4084 158.325 64.4084C157.994 64.4084 157.726 64.6767 157.726 65.0076V87.4757C157.726 87.8066 157.994 88.0748 158.325 88.0748C158.656 88.0748 158.924 87.8066 158.924 87.4757V65.0076ZM160.422 64.4084C160.753 64.4084 161.021 64.6767 161.021 65.0076V87.4757C161.021 87.8066 160.753 88.0748 160.422 88.0748C160.091 88.0748 159.823 87.8066 159.823 87.4757V65.0076C159.823 64.6767 160.091 64.4084 160.422 64.4084ZM163.118 65.0076C163.118 64.6767 162.85 64.4084 162.519 64.4084C162.188 64.4084 161.92 64.6767 161.92 65.0076V87.4757C161.92 87.8066 162.188 88.0748 162.519 88.0748C162.85 88.0748 163.118 87.8066 163.118 87.4757V65.0076ZM164.616 64.4084C164.947 64.4084 165.215 64.6767 165.215 65.0076V87.4757C165.215 87.8066 164.947 88.0748 164.616 88.0748C164.285 88.0748 164.017 87.8066 164.017 87.4757V65.0076C164.017 64.6767 164.285 64.4084 164.616 64.4084ZM167.462 65.0076C167.462 64.6767 167.194 64.4084 166.863 64.4084C166.532 64.4084 166.264 64.6767 166.264 65.0076V87.4757C166.264 87.8066 166.532 88.0748 166.863 88.0748C167.194 88.0748 167.462 87.8066 167.462 87.4757V65.0076Z" fill="#A4CAFE"/>
<path fill-rule="evenodd" clip-rule="evenodd" d="M136.606 64.4084C136.937 64.4084 137.205 64.6767 137.205 65.0076V87.4757C137.205 87.8066 136.937 88.0748 136.606 88.0748C136.275 88.0748 136.007 87.8066 136.007 87.4757V65.0076C136.007 64.6767 136.275 64.4084 136.606 64.4084ZM138.853 64.4084C139.184 64.4084 139.452 64.6767 139.452 65.0076V87.4757C139.452 87.8066 139.184 88.0748 138.853 88.0748C138.522 88.0748 138.254 87.8066 138.254 87.4757V65.0076C138.254 64.6767 138.522 64.4084 138.853 64.4084ZM141.549 65.0076C141.549 64.6767 141.281 64.4084 140.95 64.4084C140.619 64.4084 140.351 64.6767 140.351 65.0076V87.4757C140.351 87.8066 140.619 88.0748 140.95 88.0748C141.281 88.0748 141.549 87.8066 141.549 87.4757V65.0076ZM143.047 64.4084C143.378 64.4084 143.646 64.6767 143.646 65.0076V87.4757C143.646 87.8066 143.378 88.0748 143.047 88.0748C142.716 88.0748 142.448 87.8066 142.448 87.4757V65.0076C142.448 64.6767 142.716 64.4084 143.047 64.4084ZM145.893 65.0076C145.893 64.6767 145.625 64.4084 145.294 64.4084C144.963 64.4084 144.694 64.6767 144.694 65.0076V87.4757C144.694 87.8066 144.963 88.0748 145.294 88.0748C145.625 88.0748 145.893 87.8066 145.893 87.4757V65.0076ZM147.391 64.4084C147.722 64.4084 147.99 64.6767 147.99 65.0076V87.4757C147.99 87.8066 147.722 88.0748 147.391 88.0748C147.06 88.0748 146.792 87.8066 146.792 87.4757V65.0076C146.792 64.6767 147.06 64.4084 147.391 64.4084ZM150.237 65.0076C150.237 64.6767 149.968 64.4084 149.637 64.4084C149.307 64.4084 149.038 64.6767 149.038 65.0076V87.4757C149.038 87.8066 149.307 88.0748 149.637 88.0748C149.968 88.0748 150.237 87.8066 150.237 87.4757V65.0076ZM151.884 64.4084C152.215 64.4084 152.483 64.6767 152.483 65.0076V87.4757C152.483 87.8066 152.215 88.0748 151.884 88.0748C151.553 88.0748 151.285 87.8066 151.285 87.4757V65.0076C151.285 64.6767 151.553 64.4084 151.884 64.4084ZM154.58 65.0076C154.58 64.6767 154.312 64.4084 153.981 64.4084C153.65 64.4084 153.382 64.6767 153.382 65.0076V87.4757C153.382 87.8066 153.65 88.0748 153.981 88.0748C154.312 88.0748 154.58 87.8066 154.58 87.4757V65.0076ZM156.078 64.4084C156.409 64.4084 156.677 64.6767 156.677 65.0076V87.4757C156.677 87.8066 156.409 88.0748 156.078 88.0748C155.747 88.0748 155.479 87.8066 155.479 87.4757V65.0076C155.479 64.6767 155.747 64.4084 156.078 64.4084ZM158.924 65.0076C158.924 64.6767 158.656 64.4084 158.325 64.4084C157.994 64.4084 157.726 64.6767 157.726 65.0076V87.4757C157.726 87.8066 157.994 88.0748 158.325 88.0748C158.656 88.0748 158.924 87.8066 158.924 87.4757V65.0076ZM160.422 64.4084C160.753 64.4084 161.021 64.6767 161.021 65.0076V87.4757C161.021 87.8066 160.753 88.0748 160.422 88.0748C160.091 88.0748 159.823 87.8066 159.823 87.4757V65.0076C159.823 64.6767 160.091 64.4084 160.422 64.4084ZM163.118 65.0076C163.118 64.6767 162.85 64.4084 162.519 64.4084C162.188 64.4084 161.92 64.6767 161.92 65.0076V87.4757C161.92 87.8066 162.188 88.0748 162.519 88.0748C162.85 88.0748 163.118 87.8066 163.118 87.4757V65.0076ZM164.616 64.4084C164.947 64.4084 165.215 64.6767 165.215 65.0076V87.4757C165.215 87.8066 164.947 88.0748 164.616 88.0748C164.285 88.0748 164.017 87.8066 164.017 87.4757V65.0076C164.017 64.6767 164.285 64.4084 164.616 64.4084ZM167.462 65.0076C167.462 64.6767 167.194 64.4084 166.863 64.4084C166.532 64.4084 166.264 64.6767 166.264 65.0076V87.4757C166.264 87.8066 166.532 88.0748 166.863 88.0748C167.194 88.0748 167.462 87.8066 167.462 87.4757V65.0076Z" fill="url(#paint9_linear_535_98439)"/>
</g>
<path d="M0 19.4724H79.0877V65.3073C79.0877 65.9691 78.5512 66.5056 77.8894 66.5056H1.1983C0.536495 66.5056 0 65.9691 0 65.3073V19.4724Z" fill="#E1EFFE"/>
<path d="M0 16.1771C0 15.5153 0.536496 14.9788 1.1983 14.9788H77.8894C78.5512 14.9788 79.0877 15.5153 79.0877 16.1771V19.4724H0V16.1771Z" fill="#E1EFFE"/>
<path fill-rule="evenodd" clip-rule="evenodd" d="M0 19.3225H79.0877V19.6221H0V19.3225Z" fill="#A4CAFE"/>
<path d="M4.49374 17.0757C4.49374 17.5721 4.09136 17.9744 3.59501 17.9744C3.09866 17.9744 2.69629 17.5721 2.69629 17.0757C2.69629 16.5794 3.09866 16.177 3.59501 16.177C4.09136 16.177 4.49374 16.5794 4.49374 17.0757Z" fill="#A4CAFE"/>
<path d="M7.78915 17.0757C7.78915 17.5721 7.38677 17.9744 6.89042 17.9744C6.39407 17.9744 5.9917 17.5721 5.9917 17.0757C5.9917 16.5794 6.39407 16.177 6.89042 16.177C7.38677 16.177 7.78915 16.5794 7.78915 17.0757Z" fill="#A4CAFE"/>
<path d="M11.0843 17.0757C11.0843 17.5721 10.6819 17.9744 10.1856 17.9744C9.68924 17.9744 9.28687 17.5721 9.28687 17.0757C9.28687 16.5794 9.68924 16.177 10.1856 16.177C10.6819 16.177 11.0843 16.5794 11.0843 17.0757Z" fill="#A4CAFE"/>
<path d="M19.4724 28.6094C19.4724 30.1812 18.1983 31.4553 16.6265 31.4553C15.0547 31.4553 13.7805 30.1812 13.7805 28.6094C13.7805 27.0376 15.0547 25.7634 16.6265 25.7634C18.1983 25.7634 19.4724 27.0376 19.4724 28.6094Z" fill="#A4CAFE"/>
<path d="M21.8689 27.2614C21.8689 25.6069 23.2101 24.2656 24.8646 24.2656H53.9234C55.5779 24.2656 56.9191 25.6069 56.9191 27.2614V29.9575C56.9191 31.612 55.5779 32.9533 53.9234 32.9533H24.8646C23.2101 32.9533 21.8689 31.612 21.8689 29.9575V27.2614Z" fill="#F9FAFB"/>
<path d="M59.3157 39.6936C59.3157 41.2654 60.5898 42.5396 62.1616 42.5396C63.7334 42.5396 65.0076 41.2654 65.0076 39.6936C65.0076 38.1218 63.7334 36.8477 62.1616 36.8477C60.5898 36.8477 59.3157 38.1218 59.3157 39.6936Z" fill="#A4CAFE"/>
<path d="M56.9192 38.3456C56.9192 36.6911 55.5779 35.3499 53.9234 35.3499H24.8647C23.2102 35.3499 21.869 36.6911 21.869 38.3456V58.4171C21.869 60.0716 23.2102 61.4128 24.8647 61.4128H53.9234C55.5779 61.4128 56.9192 60.0716 56.9192 58.4171V38.3456Z" fill="#F9FAFB"/>
<path d="M24.8647 28.4595C24.8647 28.1286 25.133 27.8604 25.4639 27.8604H40.4426C40.7735 27.8604 41.0418 28.1286 41.0418 28.4595C41.0418 28.7904 40.7735 29.0586 40.4426 29.0586H25.4639C25.133 29.0586 24.8647 28.7904 24.8647 28.4595Z" fill="#A4CAFE"/>
<path d="M24.8647 39.544C24.8647 39.2131 25.133 38.9448 25.4639 38.9448H40.4426C40.7735 38.9448 41.0418 39.2131 41.0418 39.544C41.0418 39.8749 40.7735 40.1431 40.4426 40.1431H25.4639C25.133 40.1431 24.8647 39.8749 24.8647 39.544Z" fill="#A4CAFE"/>
<path d="M24.8647 42.5396C24.8647 42.2087 25.133 41.9404 25.4639 41.9404H44.0375C44.3684 41.9404 44.6367 42.2087 44.6367 42.5396C44.6367 42.8705 44.3684 43.1387 44.0375 43.1387H25.4639C25.133 43.1387 24.8647 42.8705 24.8647 42.5396Z" fill="#A4CAFE"/>
<path d="M24.8647 45.5354C24.8647 45.2045 25.133 44.9363 25.4639 44.9363H37.7464C38.0773 44.9363 38.3456 45.2045 38.3456 45.5354C38.3456 45.8663 38.0773 46.1346 37.7464 46.1346H25.4639C25.133 46.1346 24.8647 45.8663 24.8647 45.5354Z" fill="#A4CAFE"/>
<path d="M24.8647 48.531C24.8647 48.2001 25.133 47.9319 25.4639 47.9319H46.7337C47.0646 47.9319 47.3328 48.2001 47.3328 48.531C47.3328 48.8619 47.0646 49.1302 46.7337 49.1302H25.4639C25.133 49.1302 24.8647 48.8619 24.8647 48.531Z" fill="#A4CAFE"/>
<path fill-rule="evenodd" clip-rule="evenodd" d="M64.2684 41.607C63.9506 40.752 63.1273 40.1429 62.1617 40.1429C61.196 40.1429 60.3727 40.752 60.0549 41.607C60.5755 42.1799 61.3266 42.5395 62.1617 42.5395C62.9967 42.5395 63.7478 42.1799 64.2684 41.607ZM62.9106 39.0944C62.9106 39.508 62.5753 39.8433 62.1617 39.8433C61.748 39.8433 61.4127 39.508 61.4127 39.0944C61.4127 38.6808 61.748 38.3455 62.1617 38.3455C62.5753 38.3455 62.9106 38.6808 62.9106 39.0944Z" fill="#1C64F2" fill-opacity="0.5"/>
<path fill-rule="evenodd" clip-rule="evenodd" d="M18.5931 30.5228C18.2753 29.6678 17.452 29.0587 16.4864 29.0587C15.5208 29.0587 14.6974 29.6678 14.3796 30.5228C14.9002 31.0956 15.6513 31.4553 16.4864 31.4553C17.3214 31.4553 18.0725 31.0956 18.5931 30.5228ZM17.2353 28.0102C17.2353 28.4238 16.9 28.7591 16.4864 28.7591C16.0727 28.7591 15.7374 28.4238 15.7374 28.0102C15.7374 27.5965 16.0727 27.2612 16.4864 27.2612C16.9 27.2612 17.2353 27.5965 17.2353 28.0102Z" fill="#1C64F2" fill-opacity="0.5"/>
<path d="M100.857 147.69C101.336 145.174 100.957 142.048 100.707 140.8L107.447 135.707L111.941 144.695L100.108 156.528C99.2091 154.58 100.258 150.836 100.857 147.69Z" fill="#E1EFFE"/>
<path d="M100.857 147.69C101.336 145.174 100.957 142.048 100.707 140.8L107.447 135.707L111.941 144.695L100.108 156.528C99.2091 154.58 100.258 150.836 100.857 147.69Z" fill="url(#paint10_linear_535_98439)"/>
<path d="M100.763 157.463L100.108 156.528L111.941 144.695L113.018 146.369C113.175 146.614 113.134 146.935 112.921 147.133L101.66 157.559C101.394 157.806 100.971 157.76 100.763 157.463Z" fill="#1C64F2"/>
<path d="M108.646 142.747C108.646 143.657 107.908 144.395 106.998 144.395C106.088 144.395 105.35 143.657 105.35 142.747C105.35 141.837 106.088 141.1 106.998 141.1C107.908 141.1 108.646 141.837 108.646 142.747Z" fill="#A4CAFE"/>
<path d="M72.9112 78.2166C75.3015 76.5828 79.3575 75.9212 81.3345 75.7922L81.634 79.0876H73.2379C72.72 79.0876 72.4836 78.5088 72.9112 78.2166Z" fill="#FDBA8C"/>
<path d="M72.9112 78.2166C75.3015 76.5828 79.3575 75.9212 81.3345 75.7922L81.634 79.0876H73.2379C72.72 79.0876 72.4836 78.5088 72.9112 78.2166Z" fill="url(#paint11_linear_535_98439)"/>
<path fill-rule="evenodd" clip-rule="evenodd" d="M32.6538 176V81.7837H33.253V176H32.6538Z" fill="#A4CAFE"/>
<path fill-rule="evenodd" clip-rule="evenodd" d="M77.2905 176V81.7837H77.8897V176H77.2905Z" fill="#A4CAFE"/>
<path fill-rule="evenodd" clip-rule="evenodd" d="M102.754 176V81.7837H103.353V176H102.754Z" fill="#A4CAFE"/>
<path d="M29.9575 81.1846C29.9575 80.8537 30.2258 80.5854 30.5567 80.5854H106.649C106.979 80.5854 107.248 80.8537 107.248 81.1846V82.982C107.248 83.3129 106.979 83.5812 106.649 83.5812H30.5567C30.2258 83.5812 29.9575 83.3129 29.9575 82.982V81.1846Z" fill="#E1EFFE"/>
<path d="M29.9575 81.1846C29.9575 80.8537 30.2258 80.5854 30.5567 80.5854H106.649C106.979 80.5854 107.248 80.8537 107.248 81.1846V82.982C107.248 83.3129 106.979 83.5812 106.649 83.5812H30.5567C30.2258 83.5812 29.9575 83.3129 29.9575 82.982V81.1846Z" fill="url(#paint12_linear_535_98439)"/>
<path d="M29.9575 81.1846C29.9575 80.8537 30.2258 80.5854 30.5567 80.5854H79.9865C80.3174 80.5854 80.5856 80.8537 80.5856 81.1846V82.982C80.5856 83.3129 80.3174 83.5812 79.9865 83.5812H30.5567C30.2258 83.5812 29.9575 83.3129 29.9575 82.982V81.1846Z" fill="#E1EFFE"/>
<path d="M106.499 26.812C104.701 27.6508 103.853 29.2585 103.653 29.9575L104.552 32.9533L118.182 53.1745L124.824 50.7833C125.227 50.6384 125.354 50.1318 125.064 49.8168C122.666 47.2094 118.361 42.5684 116.385 40.5924C113.689 37.8962 114.288 32.0545 113.389 29.2086C112.49 26.3626 108.746 25.7635 106.499 26.812Z" fill="#111928"/>
<path d="M109.195 45.2358L106.798 38.9447C107.697 36.7978 109.495 33.2828 109.495 36.3983C109.495 39.5139 112.091 42.3898 113.389 43.4383L109.195 45.2358Z" fill="#FDBA8C"/>
<path d="M109.195 45.2358L106.798 38.9447C107.697 36.7978 109.495 33.2828 109.495 36.3983C109.495 39.5139 112.091 42.3898 113.389 43.4383L109.195 45.2358Z" fill="url(#paint13_linear_535_98439)"/>
<path d="M110.927 34.2424C109.857 36.8088 107.571 40.7718 105.45 39.5439C104.596 39.0493 104.081 37.9488 103.788 36.6269C103.772 36.5514 103.518 36.625 103.503 36.5482C103.461 36.3369 103.662 35.971 103.63 35.7514C103.337 33.7212 103.463 31.3983 103.653 29.9575C105.9 30.5567 107.847 34.0018 108.446 33.852C108.713 33.7852 109.086 33.5291 109.424 33.2549C109.81 32.9418 110.379 32.9387 110.73 33.2903C110.981 33.541 111.063 33.9152 110.927 34.2424Z" fill="#FDBA8C"/>
<path d="M105.385 34.3954C105.413 34.565 105.299 34.7258 105.13 34.7545C104.96 34.7832 104.799 34.6689 104.77 34.4993C104.742 34.3297 104.856 34.1689 105.026 34.1402C105.195 34.1115 105.356 34.2258 105.385 34.3954Z" fill="#111928"/>
<path fill-rule="evenodd" clip-rule="evenodd" d="M104.839 33.2907C104.622 33.3301 104.462 33.4516 104.317 33.6089C104.261 33.6698 104.166 33.6737 104.105 33.6176C104.044 33.5616 104.04 33.4668 104.096 33.406C104.264 33.2242 104.479 33.0517 104.785 32.996C105.09 32.9405 105.459 33.0053 105.926 33.2425C106 33.2799 106.029 33.3701 105.992 33.4438C105.954 33.5176 105.864 33.547 105.79 33.5096C105.358 33.29 105.057 33.251 104.839 33.2907Z" fill="#111928"/>
<path fill-rule="evenodd" clip-rule="evenodd" d="M103.851 34.2341C103.933 34.2463 103.99 34.3225 103.977 34.4044L103.672 36.4425C103.667 36.4789 103.696 36.511 103.733 36.5088L104.614 36.4555C104.697 36.4505 104.768 36.5134 104.773 36.596C104.778 36.6786 104.715 36.7496 104.633 36.7546L103.751 36.8079C103.524 36.8216 103.343 36.6229 103.376 36.3981L103.681 34.36C103.693 34.2782 103.77 34.2218 103.851 34.2341Z" fill="#111928"/>
<path fill-rule="evenodd" clip-rule="evenodd" d="M104.928 37.6647C105.114 37.6207 105.306 37.542 105.597 37.4141C105.673 37.3809 105.761 37.4154 105.795 37.4912C105.828 37.5669 105.793 37.6553 105.718 37.6885C105.428 37.8153 105.213 37.905 104.997 37.9562C104.778 38.0084 104.564 38.0193 104.276 37.9997C104.193 37.9941 104.131 37.9226 104.136 37.8401C104.142 37.7576 104.213 37.6952 104.296 37.7008C104.565 37.7191 104.747 37.7078 104.928 37.6647Z" fill="#111928"/>
<path fill-rule="evenodd" clip-rule="evenodd" d="M110.026 34.7084C110.111 34.5055 110.097 34.3045 110.045 34.0971C110.025 34.0169 110.073 33.9354 110.154 33.9152C110.234 33.8949 110.315 33.9435 110.335 34.0237C110.396 34.2632 110.423 34.538 110.302 34.8249C110.181 35.1102 109.925 35.3836 109.471 35.6447C109.399 35.6859 109.308 35.6612 109.267 35.5895C109.225 35.5178 109.25 35.4262 109.322 35.385C109.742 35.1432 109.939 34.9128 110.026 34.7084Z" fill="#111928"/>
<path d="M125.521 155.779L108.745 155.779L108.745 153.382L125.521 153.382L125.521 155.779Z" fill="#A4CAFE"/>
<path d="M126.72 95.8638C127.051 95.8638 127.319 96.132 127.319 96.4629L127.319 175.251C127.319 175.582 127.051 175.85 126.72 175.85L125.522 175.85C125.191 175.85 124.922 175.582 124.922 175.251L124.922 96.4629C124.922 96.132 125.191 95.8638 125.522 95.8638L126.72 95.8638Z" fill="#A4CAFE"/>
<path d="M126.72 95.8638C127.051 95.8638 127.319 96.132 127.319 96.4629L127.319 175.251C127.319 175.582 127.051 175.85 126.72 175.85L125.522 175.85C125.191 175.85 124.922 175.582 124.922 175.251L124.922 96.4629C124.922 96.132 125.191 95.8638 125.522 95.8638L126.72 95.8638Z" fill="url(#paint14_linear_535_98439)"/>
<path d="M108.745 95.8638C109.076 95.8638 109.344 96.132 109.344 96.4629L109.344 175.251C109.344 175.582 109.076 175.85 108.745 175.85L107.547 175.85C107.216 175.85 106.948 175.582 106.948 175.251L106.948 96.4629C106.948 96.132 107.216 95.8638 107.547 95.8638L108.745 95.8638Z" fill="#A4CAFE"/>
<path d="M108.745 95.8638C109.076 95.8638 109.344 96.132 109.344 96.4629L109.344 175.251C109.344 175.582 109.076 175.85 108.745 175.85L107.547 175.85C107.216 175.85 106.948 175.582 106.948 175.251L106.948 96.4629C106.948 96.132 107.216 95.8638 107.547 95.8638L108.745 95.8638Z" fill="url(#paint15_linear_535_98439)"/>
<path d="M101.855 95.2647C101.855 94.6029 102.392 94.0664 103.054 94.0664H128.817C129.479 94.0664 130.015 94.6029 130.015 95.2647V98.8596C130.015 99.5214 129.479 100.058 128.817 100.058H103.054C102.392 100.058 101.855 99.5214 101.855 98.8596V95.2647Z" fill="#A4CAFE"/>
<path d="M101.855 95.2647C101.855 94.6029 102.392 94.0664 103.054 94.0664H128.817C129.479 94.0664 130.015 94.6029 130.015 95.2647V98.8596C130.015 99.5214 129.479 100.058 128.817 100.058H103.054C102.392 100.058 101.855 99.5214 101.855 98.8596V95.2647Z" fill="url(#paint16_linear_535_98439)"/>
<path d="M100.357 150.985C100.837 148.469 100.457 145.343 100.207 144.095L106.948 139.002L111.442 147.99L99.6083 159.823C98.7096 157.876 99.7581 154.131 100.357 150.985Z" fill="#E1EFFE"/>
<path d="M100.357 150.985C100.837 148.469 100.457 145.343 100.207 144.095L106.948 139.002L111.442 147.99L99.6083 159.823C98.7096 157.876 99.7581 154.131 100.357 150.985Z" fill="url(#paint17_linear_535_98439)"/>
<path d="M100.263 160.758L99.6084 159.823L111.442 147.99L112.518 149.664C112.675 149.909 112.634 150.231 112.421 150.428L101.161 160.854C100.894 161.101 100.471 161.056 100.263 160.758Z" fill="#1C64F2"/>
<path d="M108.146 146.042C108.146 146.952 107.408 147.69 106.498 147.69C105.589 147.69 104.851 146.952 104.851 146.042C104.851 145.132 105.589 144.395 106.498 144.395C107.408 144.395 108.146 145.132 108.146 146.042Z" fill="#A4CAFE"/>
<path d="M106.199 84.3301L106.648 76.3914C109.494 73.6453 116.415 69.3514 121.328 74.1446C124.614 77.3504 126.251 82.4771 126.976 86.7012C127.528 89.9236 125.693 92.9516 122.833 94.5345L97.9608 108.296L109.035 137.532C109.13 137.782 109.047 138.064 108.833 138.224L98.5993 145.865C98.2797 146.104 97.8206 145.969 97.6801 145.596L85.4025 112.976C83.7602 108.613 84.9444 103.689 88.3911 100.55L106.199 84.3301Z" fill="#1C64F2"/>
<path d="M106.199 84.3301L106.648 76.3914C109.494 73.6453 116.415 69.3514 121.328 74.1446C124.614 77.3504 126.251 82.4771 126.976 86.7012C127.528 89.9236 125.693 92.9516 122.833 94.5345L97.9608 108.296L109.035 137.532C109.13 137.782 109.047 138.064 108.833 138.224L98.5993 145.865C98.2797 146.104 97.8206 145.969 97.6801 145.596L85.4025 112.976C83.7602 108.613 84.9444 103.689 88.3911 100.55L106.199 84.3301Z" fill="url(#paint18_linear_535_98439)"/>
<path fill-rule="evenodd" clip-rule="evenodd" d="M106.649 76.3914L106.199 84.3301L88.7698 100.205L110.543 83.5811V76.3914H106.649C106.649 76.3914 106.649 76.3914 106.649 76.3914Z" fill="url(#paint19_linear_535_98439)"/>
<path fill-rule="evenodd" clip-rule="evenodd" d="M96.5876 142.694L96.3679 142.11L107.593 133.724L107.813 134.307L96.5876 142.694Z" fill="#A4CAFE"/>
<path d="M123.863 74.4646L120.579 59.6152L114.288 75.1931H123.278C123.661 75.1931 123.945 74.8386 123.863 74.4646Z" fill="#F9FAFB"/>
<path d="M123.863 74.4646L120.579 59.6152L114.288 75.1931H123.278C123.661 75.1931 123.945 74.8386 123.863 74.4646Z" fill="url(#paint20_linear_535_98439)"/>
<path d="M81.7131 73.2008L81.8454 74.1271C81.8935 74.4637 82.2118 74.6929 82.5463 74.6317L108.146 69.9506L106.948 67.2544L82.1814 72.5301C81.8732 72.5958 81.6686 72.8889 81.7131 73.2008Z" fill="#F9FAFB"/>
<path d="M81.7131 73.2008L81.8454 74.1271C81.8935 74.4637 82.2118 74.6929 82.5463 74.6317L108.146 69.9506L106.948 67.2544L82.1814 72.5301C81.8732 72.5958 81.6686 72.8889 81.7131 73.2008Z" fill="url(#paint21_linear_535_98439)" fill-opacity="0.5"/>
<path d="M116.834 46.1344C115.755 45.2956 113.688 43.588 112.79 42.8391L108.596 44.337C107.647 46.8334 105.69 52.6652 105.45 56.0204C105.21 59.3756 106.249 65.8065 106.798 68.6025L81.1266 73.4434C80.8206 73.5011 80.6098 73.7836 80.6416 74.0933L81.1268 78.8244C81.1592 79.1403 81.4325 79.3761 81.7497 79.3619L111.192 78.0416C113.298 77.9471 115.209 76.7595 116.101 74.8494C118.251 70.2436 120.933 63.3373 121.028 58.8663C121.178 51.8263 118.182 47.1829 116.834 46.1344Z" fill="#F9FAFB"/>
<path d="M116.834 46.1344C115.755 45.2956 113.688 43.588 112.79 42.8391L108.596 44.337C107.647 46.8334 105.69 52.6652 105.45 56.0204C105.21 59.3756 106.249 65.8065 106.798 68.6025L81.1266 73.4434C80.8206 73.5011 80.6098 73.7836 80.6416 74.0933L81.1268 78.8244C81.1592 79.1403 81.4325 79.3761 81.7497 79.3619L111.192 78.0416C113.298 77.9471 115.209 76.7595 116.101 74.8494C118.251 70.2436 120.933 63.3373 121.028 58.8663C121.178 51.8263 118.182 47.1829 116.834 46.1344Z" fill="url(#paint22_linear_535_98439)"/>
<path d="M66.2058 79.0876H91.9692V80.5855H66.2058V79.0876Z" fill="#A4CAFE"/>
<path d="M62.8679 59.5691C62.7154 59.0629 62.2492 58.7166 61.7206 58.7166H35.8565C35.4548 58.7166 35.1669 59.104 35.2828 59.4886L41.6408 80.5855H69.2017L62.8679 59.5691Z" fill="#1C64F2"/>
<path d="M62.8679 59.5691C62.7154 59.0629 62.2492 58.7166 61.7206 58.7166H35.8565C35.4548 58.7166 35.1669 59.104 35.2828 59.4886L41.6408 80.5855H69.2017L62.8679 59.5691Z" fill="url(#paint23_linear_535_98439)"/>
<path d="M53.3665 69.751C53.5553 70.3853 53.1719 70.8995 52.5101 70.8995C51.8483 70.8995 51.1587 70.3853 50.9699 69.751C50.781 69.1167 51.1644 68.6025 51.8262 68.6025C52.488 68.6025 53.1776 69.1167 53.3665 69.751Z" fill="#E1EFFE"/>
<path fill-rule="evenodd" clip-rule="evenodd" d="M106.796 68.5926L109.854 68.0127C110.356 67.9175 110.743 67.5144 110.817 67.0089L112.49 55.571L105.416 56.8974C105.377 60.3942 106.292 66.0196 106.796 68.5926Z" fill="url(#paint24_linear_535_98439)"/>
<defs>
<linearGradient id="paint0_linear_535_98439" x1="151.734" y1="11.5149" x2="151.734" y2="188.491" gradientUnits="userSpaceOnUse">
<stop stop-color="#F9FAFB"/>
<stop offset="1" stop-color="#F9FAFB" stop-opacity="0"/>
</linearGradient>
<linearGradient id="paint1_linear_535_98439" x1="151.734" y1="78.9379" x2="151.734" y2="9.2868" gradientUnits="userSpaceOnUse">
<stop stop-color="#A4CAFE"/>
<stop offset="1" stop-color="#A4CAFE" stop-opacity="0"/>
</linearGradient>
<linearGradient id="paint2_linear_535_98439" x1="159.673" y1="32.0544" x2="152.184" y2="39.9932" gradientUnits="userSpaceOnUse">
<stop stop-color="#A4CAFE"/>
<stop offset="1" stop-color="#A4CAFE" stop-opacity="0"/>
</linearGradient>
<linearGradient id="paint3_linear_535_98439" x1="153.906" y1="26.063" x2="153.906" y2="43.1387" gradientUnits="userSpaceOnUse">
<stop stop-color="#1C64F2"/>
<stop offset="1" stop-color="#1C64F2" stop-opacity="0"/>
</linearGradient>
<linearGradient id="paint4_linear_535_98439" x1="170.158" y1="27.1116" x2="169.106" y2="38.1654" gradientUnits="userSpaceOnUse">
<stop stop-color="#A4CAFE"/>
<stop offset="1" stop-color="#A4CAFE" stop-opacity="0"/>
</linearGradient>
<linearGradient id="paint5_linear_535_98439" x1="164.466" y1="28.6095" x2="161.332" y2="39.2855" gradientUnits="userSpaceOnUse">
<stop stop-color="#1C64F2"/>
<stop offset="1" stop-color="#1C64F2" stop-opacity="0"/>
</linearGradient>
<linearGradient id="paint6_linear_535_98439" x1="150.746" y1="-10.7847" x2="150.746" y2="26.8119" gradientUnits="userSpaceOnUse">
<stop stop-color="#1C64F2"/>
<stop offset="1" stop-color="#1C64F2" stop-opacity="0"/>
</linearGradient>
<linearGradient id="paint7_linear_535_98439" x1="150.796" y1="39.6937" x2="150.236" y2="20.5209" gradientUnits="userSpaceOnUse">
<stop stop-color="#A4CAFE"/>
<stop offset="1" stop-color="#A4CAFE" stop-opacity="0"/>
</linearGradient>
<linearGradient id="paint8_linear_535_98439" x1="150.796" y1="7.48944" x2="150.796" y2="47.4826" gradientUnits="userSpaceOnUse">
<stop stop-color="#1C64F2"/>
<stop offset="1" stop-color="#1C64F2" stop-opacity="0"/>
</linearGradient>
<linearGradient id="paint9_linear_535_98439" x1="151.734" y1="48.0816" x2="151.734" y2="83.4314" gradientUnits="userSpaceOnUse">
<stop stop-color="#1C64F2"/>
<stop offset="1" stop-color="#1C64F2" stop-opacity="0"/>
</linearGradient>
<linearGradient id="paint10_linear_535_98439" x1="104.452" y1="131.813" x2="113.184" y2="141.233" gradientUnits="userSpaceOnUse">
<stop stop-color="#A4CAFE"/>
<stop offset="1" stop-color="#A4CAFE" stop-opacity="0"/>
</linearGradient>
<linearGradient id="paint11_linear_535_98439" x1="89.7225" y1="72.6467" x2="76.7659" y2="79.0876" gradientUnits="userSpaceOnUse">
<stop stop-color="#7F270F"/>
<stop offset="1" stop-color="#7F270F" stop-opacity="0"/>
</linearGradient>
<linearGradient id="paint12_linear_535_98439" x1="68.6026" y1="80.5854" x2="128.967" y2="80.5854" gradientUnits="userSpaceOnUse">
<stop stop-color="#A4CAFE"/>
<stop offset="1" stop-color="#A4CAFE" stop-opacity="0"/>
</linearGradient>
<linearGradient id="paint13_linear_535_98439" x1="110.094" y1="27.1116" x2="110.094" y2="45.2358" gradientUnits="userSpaceOnUse">
<stop stop-color="#7F270F"/>
<stop offset="1" stop-color="#7F270F" stop-opacity="0"/>
</linearGradient>
<linearGradient id="paint14_linear_535_98439" x1="118.631" y1="37.7463" x2="118.631" y2="135.707" gradientUnits="userSpaceOnUse">
<stop stop-color="#1C64F2"/>
<stop offset="1" stop-color="#1C64F2" stop-opacity="0"/>
</linearGradient>
<linearGradient id="paint15_linear_535_98439" x1="100.657" y1="37.7463" x2="100.657" y2="135.707" gradientUnits="userSpaceOnUse">
<stop stop-color="#1C64F2"/>
<stop offset="1" stop-color="#1C64F2" stop-opacity="0"/>
</linearGradient>
<linearGradient id="paint16_linear_535_98439" x1="93.9165" y1="95.714" x2="110.393" y2="111.891" gradientUnits="userSpaceOnUse">
<stop stop-color="#1C64F2"/>
<stop offset="1" stop-color="#1C64F2" stop-opacity="0"/>
</linearGradient>
<linearGradient id="paint17_linear_535_98439" x1="103.952" y1="135.108" x2="112.684" y2="144.528" gradientUnits="userSpaceOnUse">
<stop stop-color="#A4CAFE"/>
<stop offset="1" stop-color="#A4CAFE" stop-opacity="0"/>
</linearGradient>
<linearGradient id="paint18_linear_535_98439" x1="105.076" y1="38.3454" x2="105.076" y2="112.79" gradientUnits="userSpaceOnUse">
<stop stop-color="#111928"/>
<stop offset="1" stop-color="#111928" stop-opacity="0"/>
</linearGradient>
<linearGradient id="paint19_linear_535_98439" x1="82.6826" y1="89.1233" x2="104.552" y2="74.8935" gradientUnits="userSpaceOnUse">
<stop stop-color="#111928"/>
<stop offset="1" stop-color="#111928" stop-opacity="0"/>
</linearGradient>
<linearGradient id="paint20_linear_535_98439" x1="108.596" y1="70.5497" x2="129.266" y2="96.6127" gradientUnits="userSpaceOnUse">
<stop stop-color="#A4CAFE"/>
<stop offset="1" stop-color="#A4CAFE" stop-opacity="0"/>
</linearGradient>
<linearGradient id="paint21_linear_535_98439" x1="108.146" y1="77.5897" x2="68.9566" y2="69.0711" gradientUnits="userSpaceOnUse">
<stop stop-color="#A4CAFE"/>
<stop offset="1" stop-color="#A4CAFE" stop-opacity="0"/>
</linearGradient>
<linearGradient id="paint22_linear_535_98439" x1="121.927" y1="7.93868" x2="86.2773" y2="70.9991" gradientUnits="userSpaceOnUse">
<stop stop-color="#A4CAFE"/>
<stop offset="1" stop-color="#A4CAFE" stop-opacity="0"/>
</linearGradient>
<linearGradient id="paint23_linear_535_98439" x1="47.6323" y1="35.4995" x2="52.1259" y2="80.5855" gradientUnits="userSpaceOnUse">
<stop stop-color="#A4CAFE"/>
<stop offset="1" stop-color="#A4CAFE" stop-opacity="0"/>
</linearGradient>
<linearGradient id="paint24_linear_535_98439" x1="105.45" y1="74.1447" x2="99.6782" y2="66.6206" gradientUnits="userSpaceOnUse">
<stop stop-color="#A4CAFE"/>
<stop offset="1" stop-color="#A4CAFE" stop-opacity="0"/>
</linearGradient>
</defs>
</svg>
