<svg width="36" height="36" viewBox="0 0 36 36" fill="none" xmlns="http://www.w3.org/2000/svg">
<path fill-rule="evenodd" clip-rule="evenodd" d="M18 6C11.3726 6 6 11.3726 6 18C6 24.6274 11.3726 30 18 30C24.6274 30 30 24.6274 30 18C30 11.3726 24.6274 6 18 6ZM3 18C3 9.71573 9.71573 3 18 3C26.2843 3 33 9.71573 33 18C33 26.2843 26.2843 33 18 33C9.71573 33 3 26.2843 3 18ZM23.5607 13.9393C24.1464 14.5251 24.1464 15.4749 23.5607 16.0607L17.5607 22.0607C16.9749 22.6464 16.0251 22.6464 15.4393 22.0607L11.6893 18.3107C11.1036 17.7249 11.1036 16.7751 11.6893 16.1893C12.2751 15.6036 13.2249 15.6036 13.8107 16.1893L16.5 18.8787L21.4393 13.9393C22.0251 13.3536 22.9749 13.3536 23.5607 13.9393Z" fill="#194170"/>
</svg>
