<svg width="20" height="20" viewBox="0 0 20 20" fill="none" xmlns="http://www.w3.org/2000/svg">
<path fill-rule="evenodd" clip-rule="evenodd" d="M5 4.16667C4.53976 4.16667 4.16667 4.53976 4.16667 5C4.16667 5.46024 4.53976 5.83333 5 5.83333C5.46024 5.83333 5.83333 5.46024 5.83333 5C5.83333 4.53976 5.46024 4.16667 5 4.16667ZM2.5 5C2.5 3.61929 3.61929 2.5 5 2.5C6.38071 2.5 7.5 3.61929 7.5 5C7.5 6.08852 6.80433 7.01455 5.83333 7.35775V12.6423C6.80433 12.9855 7.5 13.9115 7.5 15C7.5 16.3807 6.38071 17.5 5 17.5C3.61929 17.5 2.5 16.3807 2.5 15C2.5 13.9115 3.19567 12.9855 4.16667 12.6423V7.35775C3.19567 7.01455 2.5 6.08852 2.5 5ZM11.8393 2.74408C12.1647 3.06951 12.1647 3.59715 11.8393 3.92259L11.5952 4.16667H12.5C13.3841 4.16667 14.2319 4.51786 14.857 5.14298C15.4821 5.7681 15.8333 6.61595 15.8333 7.5V12.6423C16.8043 12.9855 17.5 13.9115 17.5 15C17.5 16.3807 16.3807 17.5 15 17.5C13.6193 17.5 12.5 16.3807 12.5 15C12.5 13.9115 13.1957 12.9855 14.1667 12.6423V7.5C14.1667 7.05797 13.9911 6.63405 13.6785 6.32149C13.366 6.00893 12.942 5.83333 12.5 5.83333H11.5952L11.8393 6.07741C12.1647 6.40285 12.1647 6.93049 11.8393 7.25592C11.5138 7.58136 10.9862 7.58136 10.6607 7.25592L8.99408 5.58926C8.66864 5.26382 8.66864 4.73618 8.99408 4.41074L10.6607 2.74408C10.9862 2.41864 11.5138 2.41864 11.8393 2.74408ZM5 14.1667C4.53976 14.1667 4.16667 14.5398 4.16667 15C4.16667 15.4602 4.53976 15.8333 5 15.8333C5.46024 15.8333 5.83333 15.4602 5.83333 15C5.83333 14.5398 5.46024 14.1667 5 14.1667ZM15 14.1667C14.5398 14.1667 14.1667 14.5398 14.1667 15C14.1667 15.4602 14.5398 15.8333 15 15.8333C15.4602 15.8333 15.8333 15.4602 15.8333 15C15.8333 14.5398 15.4602 14.1667 15 14.1667Z" fill="#4A5565"/>
</svg>
