<svg width="21" height="21" viewBox="0 0 21 21" fill="none" xmlns="http://www.w3.org/2000/svg">
<path fill-rule="evenodd" clip-rule="evenodd" d="M11.5833 1.91829C11.5833 1.31999 12.0684 0.834961 12.6667 0.834961H15.375C15.9733 0.834961 16.4583 1.31999 16.4583 1.91829C16.4583 2.5166 15.9733 3.00163 15.375 3.00163H13.75V8.4183C13.75 9.0166 13.265 9.50163 12.6667 9.50163C12.0684 9.50163 11.5833 9.0166 11.5833 8.4183V6.25163H9.67908C10.1976 7.02626 10.5 7.9578 10.5 8.95996V13.835H18.0833V8.4183C18.0833 7.22168 17.1133 6.25163 15.9167 6.25163C15.3184 6.25163 14.8333 5.7666 14.8333 5.16829C14.8333 4.56999 15.3184 4.08496 15.9167 4.08496C18.3099 4.08496 20.25 6.02506 20.25 8.4183V14.9183C20.25 15.5166 19.765 16.0016 19.1667 16.0016H14.8333V19.2516C14.8333 19.8499 14.3483 20.335 13.75 20.335C13.1517 20.335 12.6667 19.8499 12.6667 19.2516V16.0016H10.5V19.2516C10.5 19.8499 10.015 20.335 9.41667 20.335C8.81836 20.335 8.33333 19.8499 8.33333 19.2516V16.0016H1.83333C1.23502 16.0016 0.75 15.5166 0.75 14.9183V8.95996C0.75 6.26757 2.93261 4.08496 5.625 4.08496H11.5833V1.91829ZM8.33333 13.835V8.95996C8.33333 7.46419 7.12077 6.25163 5.625 6.25163C4.12923 6.25163 2.91667 7.46419 2.91667 8.95996V13.835H8.33333ZM4 12.21C4 11.6117 4.48503 11.1266 5.08333 11.1266H6.16667C6.76498 11.1266 7.25 11.6117 7.25 12.21C7.25 12.8083 6.76498 13.2933 6.16667 13.2933H5.08333C4.48503 13.2933 4 12.8083 4 12.21Z" fill="#194170"/>
</svg>
