<svg width="16" height="31" viewBox="0 0 16 31" fill="none" xmlns="http://www.w3.org/2000/svg">
<path fill-rule="evenodd" clip-rule="evenodd" d="M8.18687 0.083313C9.03831 0.083313 9.72854 0.773541 9.72854 1.62498V3.59028C10.0299 3.63675 10.3302 3.69818 10.628 3.77479C12.4688 4.22108 14.1167 5.2627 15.3492 6.73604C15.8955 7.38911 15.8089 8.3614 15.1558 8.9077C14.5028 9.45401 13.5305 9.36747 12.9842 8.7144C12.1589 7.7278 11.0752 7.05399 9.89339 6.76934L9.86822 6.76306C9.33001 6.6238 8.81092 6.5569 8.31889 6.55133C8.27537 6.55502 8.23134 6.5569 8.18687 6.5569C8.15167 6.5569 8.11675 6.55572 8.08213 6.5534C5.97583 6.61446 4.40859 7.80791 4.0396 9.22144C3.82367 10.0486 4.06965 11.057 4.88241 12.0557C5.69079 13.049 6.95833 13.8844 8.40403 14.26C10.4626 14.7947 12.3042 15.9818 13.5413 17.5024C14.7741 19.0177 15.5096 21.0141 14.9752 23.0616C14.3116 25.6036 12.2143 27.236 9.72854 27.8021V29.375C9.72854 30.2264 9.03831 30.9166 8.18687 30.9166C7.33543 30.9166 6.64521 30.2264 6.64521 29.375V27.9618C6.22936 27.9134 5.81419 27.8367 5.40383 27.7311C3.54161 27.2807 1.87772 26.2196 0.642889 24.7189C0.101884 24.0615 0.196294 23.0899 0.85376 22.5489C1.51123 22.0079 2.48278 22.1023 3.02378 22.7598C3.85012 23.764 4.94328 24.4494 6.13713 24.7362L6.16318 24.7427C9.13457 25.5115 11.5243 24.0735 11.9918 22.2828C12.2078 21.4553 11.9619 20.4468 11.1496 19.4483C10.3416 18.4552 9.07448 17.6198 7.62886 17.2443C5.5704 16.7096 3.72845 15.5225 2.49099 14.002C1.25791 12.4869 0.521705 10.4904 1.05624 8.44266C1.75015 5.7844 4.01155 4.12197 6.64521 3.63258V1.62498C6.64521 0.773541 7.33543 0.083313 8.18687 0.083313Z" fill="#2A69B7"/>
</svg>
