<svg width="240" height="176" viewBox="0 0 240 176" fill="none" xmlns="http://www.w3.org/2000/svg">
<path d="M11.575 20.479H209.835L209.835 174.219C209.835 175.203 209.037 176 208.054 176H13.6491C12.667 176 11.8702 175.205 11.8684 174.223L11.575 20.479Z" fill="#E1EFFE"/>
<path d="M11.575 20.479H209.835L209.835 174.219C209.835 175.203 209.037 176 208.054 176H13.6491C12.667 176 11.8702 175.205 11.8684 174.223L11.575 20.479Z" fill="url(#paint0_linear_535_98444)"/>
<path d="M11.575 20.479H209.835L209.835 174.219C209.835 175.203 209.037 176 208.054 176H13.6491C12.667 176 11.8702 175.205 11.8684 174.223L11.575 20.479Z" fill="url(#paint1_radial_535_98444)"/>
<path d="M11.8716 16.6207C11.8715 15.6372 12.6688 14.8398 13.6524 14.8398L208.351 14.8398C209.334 14.8398 210.131 15.6371 210.131 16.6206V20.479H11.8718L11.8716 16.6207Z" fill="#E1EFFE"/>
<path fill-rule="evenodd" clip-rule="evenodd" d="M11.8716 20.479H210.131V20.7758H11.8716V20.479Z" fill="#A4CAFE"/>
<path d="M17.6061 17.516C17.6061 18.1495 17.0926 18.6629 16.4592 18.6629C15.8257 18.6629 15.3123 18.1495 15.3123 17.516C15.3123 16.8826 15.8257 16.3691 16.4592 16.3691C17.0926 16.3691 17.6061 16.8826 17.6061 17.516Z" fill="#F9FAFB"/>
<path d="M21.8114 17.516C21.8114 18.1495 21.2979 18.6629 20.6645 18.6629C20.0311 18.6629 19.5176 18.1495 19.5176 17.516C19.5176 16.8826 20.0311 16.3691 20.6645 16.3691C21.2979 16.3691 21.8114 16.8826 21.8114 17.516Z" fill="#F9FAFB"/>
<path d="M26.0167 17.516C26.0167 18.1495 25.5032 18.6629 24.8698 18.6629C24.2364 18.6629 23.7229 18.1495 23.7229 17.516C23.7229 16.8826 24.2364 16.3691 24.8698 16.3691C25.5032 16.3691 26.0167 16.8826 26.0167 17.516Z" fill="#F9FAFB"/>
<path d="M127.029 90.8196C127.029 89.8361 127.826 89.0388 128.809 89.0388H237.437C238.42 89.0388 239.217 89.8361 239.217 90.8196V160.567C239.217 161.55 238.42 162.347 237.437 162.347H128.809C127.826 162.347 127.029 161.55 127.029 160.567V90.8196Z" fill="#E1EFFE"/>
<path d="M127.029 90.8196C127.029 89.8361 127.826 89.0388 128.809 89.0388H237.437C238.42 89.0388 239.217 89.8361 239.217 90.8196V160.567C239.217 161.55 238.42 162.347 237.437 162.347H128.809C127.826 162.347 127.029 161.55 127.029 160.567V90.8196Z" fill="url(#paint2_linear_535_98444)"/>
<path d="M127.029 90.8196C127.029 89.8361 127.826 89.0388 128.809 89.0388H237.437C238.42 89.0388 239.217 89.8361 239.217 90.8196V160.567C239.217 161.55 238.42 162.347 237.437 162.347H128.809C127.826 162.347 127.029 161.55 127.029 160.567V90.8196Z" fill="url(#paint3_linear_535_98444)"/>
<path d="M127.029 90.8196C127.029 89.8361 127.826 89.0388 128.809 89.0388H237.437C238.42 89.0388 239.217 89.8361 239.217 90.8196V160.567C239.217 161.55 238.42 162.347 237.437 162.347H128.809C127.826 162.347 127.029 161.55 127.029 160.567V90.8196Z" fill="url(#paint4_linear_535_98444)"/>
<path d="M127.029 90.8196C127.029 89.8361 127.826 89.0388 128.809 89.0388H237.437C238.42 89.0388 239.217 89.8361 239.217 90.8196V160.567C239.217 161.55 238.42 162.347 237.437 162.347H128.809C127.826 162.347 127.029 161.55 127.029 160.567V90.8196Z" fill="url(#paint5_linear_535_98444)"/>
<path d="M160.27 148.695H170.361V158.786H160.27V148.695Z" fill="#C3DDFD"/>
<path d="M160.27 148.695H170.361V158.786H160.27V148.695Z" fill="url(#paint6_linear_535_98444)"/>
<path d="M135.254 125.408C135.148 125.03 135.432 124.654 135.825 124.654H181.743C182.009 124.654 182.243 124.831 182.315 125.087L189.737 151.502C189.844 151.881 189.559 152.256 189.166 152.256H143.248C142.982 152.256 142.749 152.079 142.677 151.823L135.254 125.408Z" fill="white"/>
<path d="M148.905 132.234C148.8 131.856 149.084 131.481 149.477 131.481H171.947C172.213 131.481 172.447 131.658 172.519 131.915L176.086 144.677C176.192 145.055 175.907 145.43 175.514 145.43H153.044C152.778 145.43 152.544 145.253 152.473 144.996L148.905 132.234Z" fill="#E1EFFE"/>
<path fill-rule="evenodd" clip-rule="evenodd" d="M141.964 149.288L141.798 148.695H188.948L189.115 149.288H141.964Z" fill="#A4CAFE"/>
<path d="M127.029 158.786H193.214V162.347H128.809C127.826 162.347 127.029 161.55 127.029 160.567V158.786Z" fill="#A4CAFE"/>
<path d="M182.233 155.966C184.013 155.848 185.844 156.313 186.536 156.56L185.052 158.786H178.077C178.077 157.45 180.007 156.115 182.233 155.966Z" fill="#FDBA8C"/>
<path d="M187.061 155.922L201.227 162.347H186.833L182.94 160.238C182.699 160.107 182.575 159.827 182.675 159.572C183.407 157.71 185.435 156.429 186.601 155.915C186.748 155.85 186.915 155.855 187.061 155.922Z" fill="#F9FAFB"/>
<path d="M187.061 155.922L201.227 162.347H186.833L182.94 160.238C182.699 160.107 182.575 159.827 182.675 159.572C183.407 157.71 185.435 156.429 186.601 155.915C186.748 155.85 186.915 155.855 187.061 155.922Z" fill="url(#paint7_linear_535_98444)" fill-opacity="0.7"/>
<path d="M165.76 155.966C167.541 155.848 169.371 156.313 170.064 156.56L168.58 158.786H161.605C161.605 157.45 163.534 156.115 165.76 155.966Z" fill="#FDBA8C"/>
<path d="M170.441 155.922L184.607 162.347H170.212L166.32 160.238C166.079 160.107 165.954 159.827 166.055 159.572C166.786 157.71 168.815 156.429 169.981 155.915C170.128 155.85 170.295 155.855 170.441 155.922Z" fill="#F9FAFB"/>
<path d="M170.441 155.922L184.607 162.347H170.212L166.32 160.238C166.079 160.107 165.954 159.827 166.055 159.572C166.786 157.71 168.815 156.429 169.981 155.915C170.128 155.85 170.295 155.855 170.441 155.922Z" fill="url(#paint8_linear_535_98444)" fill-opacity="0.7"/>
<path d="M215.622 115.157C208.974 113.97 206.224 118.619 205.679 121.093L209.983 131.926L215.029 134.003C215.325 132.668 217.996 128.809 220.074 126.584C222.152 124.358 223.932 116.641 215.622 115.157Z" fill="#111928"/>
<path d="M229.423 111.744C229.423 115.432 226.433 118.422 222.745 118.422C219.057 118.422 216.067 115.432 216.067 111.744C216.067 108.056 219.057 105.066 222.745 105.066C226.433 105.066 229.423 108.056 229.423 111.744Z" fill="#111928"/>
<path d="M209.539 140.236L207.313 140.533L207.609 142.165L214.138 144.688L219.926 141.275L219.184 139.939L215.919 139.346L215.029 133.855C213.891 132.866 211.883 131.184 211.764 129.997C211.682 129.181 212.251 127.944 212.775 127.009C213.105 126.42 212.992 125.666 212.464 125.244C211.805 124.717 210.841 124.96 210.35 125.646C210.061 126.049 209.762 126.343 209.539 126.287C208.946 126.138 208.945 124.951 208.499 123.319C208.143 122.013 206.472 121.291 205.68 121.093C205.087 124.209 204.197 129.106 205.383 132.371C206.037 134.17 207.659 134.152 208.648 133.855L209.539 140.236Z" fill="#FDBA8C"/>
<path fill-rule="evenodd" clip-rule="evenodd" d="M207.313 140.533L209.539 140.236L208.649 133.855L208.648 133.855C209.93 133.321 211.211 132.018 212.05 130.666C212.837 131.813 214.225 133.155 215.029 133.855L215.721 138.122L213.545 142.462L208.157 142.377L207.61 142.165L207.313 140.533Z" fill="url(#paint9_linear_535_98444)"/>
<path fill-rule="evenodd" clip-rule="evenodd" d="M204.738 127.033C204.855 127.049 204.936 127.156 204.92 127.273L204.526 130.175C204.519 130.227 204.561 130.272 204.613 130.268L205.865 130.176C205.982 130.167 206.084 130.255 206.093 130.372C206.101 130.489 206.013 130.592 205.896 130.6L204.645 130.693C204.323 130.717 204.06 130.438 204.104 130.118L204.499 127.215C204.514 127.099 204.622 127.017 204.738 127.033Z" fill="#111928"/>
<path fill-rule="evenodd" clip-rule="evenodd" d="M205.512 132.677C205.54 132.667 205.568 132.656 205.597 132.645C205.891 132.531 206.176 132.363 206.559 132.128C206.659 132.067 206.69 131.935 206.629 131.835C206.567 131.735 206.436 131.704 206.336 131.765C205.95 132.002 205.695 132.15 205.443 132.248C205.412 132.26 205.382 132.271 205.351 132.282C205.362 132.312 205.373 132.341 205.383 132.371C205.423 132.479 205.466 132.581 205.512 132.677Z" fill="#111928"/>
<path fill-rule="evenodd" clip-rule="evenodd" d="M211.664 127.369C211.745 127.067 211.686 126.786 211.572 126.504C211.528 126.395 211.58 126.271 211.689 126.227C211.798 126.183 211.922 126.236 211.967 126.345C212.098 126.67 212.189 127.052 212.075 127.479C211.961 127.904 211.654 128.339 211.065 128.795C210.972 128.867 210.838 128.85 210.766 128.757C210.694 128.664 210.711 128.531 210.804 128.458C211.349 128.036 211.582 127.674 211.664 127.369Z" fill="#111928"/>
<path fill-rule="evenodd" clip-rule="evenodd" d="M206.576 128.732C206.745 128.37 206.859 127.843 206.858 127.237C206.856 126.632 206.738 126.105 206.568 125.745C206.381 125.352 206.208 125.293 206.157 125.293C206.107 125.293 205.934 125.353 205.75 125.747C205.581 126.108 205.466 126.636 205.468 127.241C205.469 127.846 205.587 128.374 205.758 128.734C205.944 129.127 206.117 129.185 206.168 129.185C206.219 129.185 206.392 129.125 206.576 128.732ZM206.169 129.602C206.783 129.601 207.278 128.541 207.275 127.236C207.271 125.931 206.77 124.874 206.156 124.876C205.542 124.878 205.047 125.937 205.051 127.242C205.054 128.547 205.555 129.604 206.169 129.602Z" fill="#111928"/>
<path fill-rule="evenodd" clip-rule="evenodd" d="M204.23 128.274C204.399 127.913 204.514 127.385 204.512 126.78C204.511 126.175 204.393 125.647 204.222 125.287C204.036 124.894 203.863 124.835 203.812 124.836C203.761 124.836 203.588 124.896 203.404 125.289C203.235 125.651 203.121 126.178 203.122 126.784C203.124 127.389 203.242 127.916 203.412 128.276C203.598 128.669 203.772 128.728 203.823 128.728C203.873 128.728 204.046 128.668 204.23 128.274ZM203.824 129.145C204.438 129.143 204.933 128.084 204.929 126.779C204.926 125.474 204.425 124.417 203.811 124.419C203.197 124.42 202.702 125.48 202.705 126.785C202.709 128.09 203.21 129.147 203.824 129.145Z" fill="#111928"/>
<path d="M199.595 144.688C201.779 142.045 205.344 140.764 207.005 140.416C207.104 140.395 207.204 140.428 207.276 140.499C208.306 141.519 210.938 143.353 214.138 143.353C217.271 143.353 218.717 141.156 219.121 139.868C219.162 139.737 219.279 139.641 219.416 139.652C221.269 139.794 224.718 141.56 225.713 144.688C226.544 147.3 226.851 157.549 226.9 162.348H191.433C193.214 157.599 197.339 147.419 199.595 144.688Z" fill="#F9FAFB"/>
<path d="M199.595 144.688C201.779 142.045 205.344 140.764 207.005 140.416C207.104 140.395 207.204 140.428 207.276 140.499C208.306 141.519 210.938 143.353 214.138 143.353C217.271 143.353 218.717 141.156 219.121 139.868C219.162 139.737 219.279 139.641 219.416 139.652C221.269 139.794 224.718 141.56 225.713 144.688C226.544 147.3 226.851 157.549 226.9 162.348H191.433C193.214 157.599 197.339 147.419 199.595 144.688Z" fill="url(#paint10_linear_535_98444)" fill-opacity="0.7"/>
<path fill-rule="evenodd" clip-rule="evenodd" d="M204.327 152.334C204.481 152.39 204.56 152.56 204.504 152.714L201.091 162.063C201.035 162.217 200.864 162.297 200.71 162.24C200.556 162.184 200.477 162.014 200.533 161.86L203.947 152.511C204.003 152.357 204.173 152.278 204.327 152.334Z" fill="#A4CAFE"/>
<path d="M233.875 162.347H205.976C207.015 158.341 213.099 144.243 224.526 144.243C233.667 144.243 234.568 156.313 233.875 162.347Z" fill="#A4CAFE"/>
<path fill-rule="evenodd" clip-rule="evenodd" d="M199.133 98.2395C199.467 98.2395 199.738 98.5101 199.738 98.8439V110.629C199.738 110.963 199.467 111.233 199.133 111.233H195.356V113.074C195.356 113.301 195.114 113.447 194.913 113.341L190.932 111.233H167.404C167.07 111.233 166.8 110.963 166.8 110.629V98.8439C166.8 98.5101 167.07 98.2395 167.404 98.2395H199.133Z" fill="#A4CAFE"/>
<path fill-rule="evenodd" clip-rule="evenodd" d="M169.47 102.691C169.47 102.527 169.603 102.395 169.767 102.395H193.066C193.23 102.395 193.363 102.527 193.363 102.691C193.363 102.855 193.23 102.988 193.066 102.988H169.767C169.603 102.988 169.47 102.855 169.47 102.691Z" fill="#1C64F2"/>
<path fill-rule="evenodd" clip-rule="evenodd" d="M169.47 105.066C169.47 104.902 169.603 104.769 169.767 104.769H184.904C185.068 104.769 185.201 104.902 185.201 105.066C185.201 105.23 185.068 105.363 184.904 105.363H169.767C169.603 105.363 169.47 105.23 169.47 105.066Z" fill="#1C64F2"/>
<path d="M0 64.9981C0 64.0146 0.797281 63.2173 1.78078 63.2173H110.408C111.392 63.2173 112.189 64.0146 112.189 64.9981V134.745C112.189 135.729 111.392 136.526 110.408 136.526H1.78078C0.79728 136.526 0 135.729 0 134.745V64.9981Z" fill="#E1EFFE"/>
<path d="M0 64.9981C0 64.0146 0.797281 63.2173 1.78078 63.2173H110.408C111.392 63.2173 112.189 64.0146 112.189 64.9981V134.745C112.189 135.729 111.392 136.526 110.408 136.526H1.78078C0.79728 136.526 0 135.729 0 134.745V64.9981Z" fill="url(#paint11_linear_535_98444)"/>
<path d="M0 64.9981C0 64.0146 0.797281 63.2173 1.78078 63.2173H110.408C111.392 63.2173 112.189 64.0146 112.189 64.9981V134.745C112.189 135.729 111.392 136.526 110.408 136.526H1.78078C0.79728 136.526 0 135.729 0 134.745V64.9981Z" fill="url(#paint12_linear_535_98444)"/>
<path d="M0 64.9981C0 64.0146 0.797281 63.2173 1.78078 63.2173H110.408C111.392 63.2173 112.189 64.0146 112.189 64.9981V134.745C112.189 135.729 111.392 136.526 110.408 136.526H1.78078C0.79728 136.526 0 135.729 0 134.745V64.9981Z" fill="url(#paint13_linear_535_98444)"/>
<path fill-rule="evenodd" clip-rule="evenodd" d="M26.0557 136.526C25.4869 133.876 24.383 129.739 23.0347 127.301C22.781 126.842 22.1762 127.01 22.1345 127.533C21.9335 130.055 21.7493 133.902 22.0178 136.526H26.0557ZM21.8142 136.526C20.4429 133.236 17.3483 127.401 13.3939 124.202C12.9744 123.863 12.4182 124.256 12.5597 124.777C13.5527 128.429 15.1796 134.033 16.2633 136.526H21.8142ZM15.9505 136.526H10.9238C8.53224 132.244 5.8384 127.054 6.97529 127.622C8.28783 128.278 13.1442 133.436 15.9505 136.526Z" fill="#A4CAFE"/>
<path d="M44.9646 80.1347C48.5261 81.5593 47.1411 84.4877 46.0034 85.7738L43.4806 94.0841L39.7706 98.0909L36.8027 97.7941C34.9724 95.6176 31.1932 90.4632 30.7184 87.2578C30.2435 84.0524 32.4002 83.4489 33.5379 83.5478C33.8347 79.0959 40.5126 78.3539 44.9646 80.1347Z" fill="#111928"/>
<path d="M43.3322 97.7942L44.5194 104.472C41.5514 106.015 37.3468 105.313 35.6155 104.769C36.4465 103.226 36.7532 99.476 36.8027 97.7942C40.0674 96.9038 41.403 93.3422 41.1062 92.3035C40.9783 91.8559 40.4142 91.2447 39.8359 90.6832C39.1572 90.0244 39.1866 88.976 39.9101 88.3667C40.6932 87.7073 41.8357 87.9313 42.3632 88.8087C42.7283 89.416 43.0962 89.9291 43.3322 89.9291C43.9258 89.9291 43.7774 88.7419 43.629 87.2579C43.4806 85.7739 44.0742 83.9932 45.2613 83.9932C46.4485 83.9932 47.1905 88.5935 46.8937 93.9358C46.6563 98.2097 44.4204 98.2888 43.3322 97.7942Z" fill="#FDBA8C"/>
<path fill-rule="evenodd" clip-rule="evenodd" d="M40.2051 95.2358C41.2137 96.5844 42.5996 97.4652 43.3311 97.7944L43.3311 97.7944L44.5183 104.472C41.5835 105.998 37.4395 105.329 35.6733 104.787L35.6218 104.755C36.4472 103.203 36.7523 99.4711 36.8016 97.7943C38.3708 97.3663 39.4943 96.3213 40.2051 95.2358Z" fill="url(#paint14_linear_535_98444)"/>
<path d="M45.4129 89.208C45.3522 89.4212 45.4758 89.6433 45.6891 89.704C45.9023 89.7647 46.1243 89.641 46.185 89.4278C46.2457 89.2146 46.1221 88.9925 45.9089 88.9318C45.6956 88.8712 45.4736 88.9948 45.4129 89.208Z" fill="#111928"/>
<path fill-rule="evenodd" clip-rule="evenodd" d="M46.7145 87.5127C46.7355 87.6694 46.7551 87.83 46.7735 87.9945C46.5947 87.866 46.401 87.778 46.1688 87.7668C45.8833 87.753 45.5057 87.8537 44.9905 88.2072C44.9026 88.2676 44.7825 88.2452 44.7222 88.1573C44.6618 88.0694 44.6842 87.9493 44.7721 87.889C45.3285 87.5071 45.7888 87.362 46.1875 87.3812C46.3851 87.3908 46.5594 87.4404 46.7145 87.5127Z" fill="#111928"/>
<path fill-rule="evenodd" clip-rule="evenodd" d="M46.8185 89.7798C46.7154 89.807 46.6539 89.9126 46.6811 90.0157L47.3585 92.5833C47.3706 92.6291 47.3374 92.6745 47.29 92.6768L46.1538 92.7325C46.0473 92.7377 45.9653 92.8283 45.9705 92.9348C45.9757 93.0412 46.0662 93.1233 46.1727 93.1181L47.3089 93.0623C47.6014 93.048 47.8065 92.7679 47.7317 92.4848L47.0543 89.9172C47.0271 89.8141 46.9215 89.7526 46.8185 89.7798Z" fill="#111928"/>
<path fill-rule="evenodd" clip-rule="evenodd" d="M46.8862 94.0404C46.8414 94.7388 46.7421 95.3224 46.6028 95.8076C45.0208 95.7546 44.2588 94.8911 43.9734 93.7192L46.8862 94.0404Z" fill="white"/>
<path fill-rule="evenodd" clip-rule="evenodd" d="M40.5841 90.0177C40.5032 89.7458 40.5491 89.4902 40.6455 89.2319C40.6828 89.1321 40.632 89.0209 40.5322 88.9836C40.4323 88.9463 40.3211 88.9971 40.2838 89.0969C40.1725 89.3952 40.0997 89.7433 40.2141 90.1278C40.328 90.5103 40.6174 90.8966 41.162 91.2951C41.2481 91.3581 41.3688 91.3394 41.4318 91.2533C41.4947 91.1673 41.476 91.0465 41.39 90.9836C40.8857 90.6146 40.6656 90.2917 40.5841 90.0177Z" fill="#111928"/>
<path d="M65.1527 101.265C64.9035 102.217 65.4987 102.988 66.4822 102.988H112.873C113.857 102.988 114.856 102.217 115.105 101.265L121.589 76.5151C121.838 75.5637 121.243 74.7924 120.26 74.7924H73.8687C72.8852 74.7924 71.8858 75.5637 71.6366 76.5151L65.1527 101.265Z" fill="#A4CAFE"/>
<path d="M80.0937 84.261C79.9691 84.7367 79.4694 85.1223 78.9777 85.1223C78.4859 85.1223 78.1883 84.7367 78.3129 84.261C78.4376 83.7853 78.9372 83.3997 79.429 83.3997C79.9207 83.3997 80.2183 83.7853 80.0937 84.261Z" fill="#E1EFFE"/>
<path d="M81.2809 84.261C81.4056 83.7853 81.9052 83.3997 82.397 83.3997H110.593C111.084 83.3997 111.382 83.7853 111.257 84.261C111.133 84.7367 110.633 85.1223 110.141 85.1223H81.9457C81.4539 85.1223 81.1563 84.7367 81.2809 84.261Z" fill="#E1EFFE"/>
<path d="M78.9065 89.0098C78.7818 89.4855 78.2822 89.8711 77.7904 89.8711C77.2987 89.8711 77.0011 89.4855 77.1257 89.0098C77.2503 88.5341 77.75 88.1484 78.2417 88.1484C78.7335 88.1484 79.0311 88.5341 78.9065 89.0098Z" fill="#E1EFFE"/>
<path d="M80.0937 89.0098C80.2183 88.5341 80.718 88.1484 81.2097 88.1484H109.405C109.897 88.1484 110.195 88.5341 110.07 89.0098C109.945 89.4855 109.446 89.8711 108.954 89.8711H80.7584C80.2667 89.8711 79.9691 89.4855 80.0937 89.0098Z" fill="#E1EFFE"/>
<path d="M77.6892 93.7585C77.5645 94.2342 77.0649 94.6199 76.5731 94.6199C76.0814 94.6199 75.7838 94.2342 75.9084 93.7585C76.033 93.2828 76.5327 92.8972 77.0244 92.8972C77.5162 92.8972 77.8138 93.2828 77.6892 93.7585Z" fill="#E1EFFE"/>
<path d="M78.8764 93.7585C79.001 93.2828 79.5007 92.8972 79.9924 92.8972H108.188C108.68 92.8972 108.977 93.2828 108.853 93.7585C108.728 94.2342 108.229 94.6199 107.737 94.6199H79.5412C79.0494 94.6199 78.7518 94.2342 78.8764 93.7585Z" fill="#E1EFFE"/>
<path d="M85.7741 99.7234C84.2308 101.386 81.2727 106.649 79.9866 109.073L84.2901 113.376L87.7033 102.543C88.0495 102.147 89.306 101.118 91.5616 100.169C94.3812 98.9814 93.6392 97.2007 92.3036 96.9039C90.968 96.6071 87.7033 97.6459 85.7741 99.7234Z" fill="#FDBA8C"/>
<path d="M85.7741 99.7234C84.2308 101.386 81.2727 106.649 79.9866 109.073L84.2901 113.376L87.7033 102.543C88.0495 102.147 89.306 101.118 91.5616 100.169C94.3812 98.9814 93.6392 97.2007 92.3036 96.9039C90.968 96.6071 87.7033 97.6459 85.7741 99.7234Z" fill="url(#paint15_linear_535_98444)"/>
<path d="M72.4179 138.307C69.2125 138.307 61.6838 131.48 58.3201 128.067V136.526H29.3825C28.6408 124.802 28.7888 113.821 32.4988 105.808C33.3031 104.07 34.9721 103.928 35.6152 104.027C39.7703 105.57 43.3813 104.472 44.6675 103.73C45.8052 103.977 49.0897 104.858 53.1261 106.401C57.1626 107.944 66.9766 117.531 71.3791 122.131L79.3824 108.697C79.5514 108.413 79.9195 108.322 80.2014 108.494L85.3624 111.641C85.6021 111.787 85.709 112.075 85.6146 112.339C82.4239 121.279 75.5698 138.307 72.4179 138.307Z" fill="#F9FAFB"/>
<path d="M72.4179 138.307C69.2125 138.307 61.6838 131.48 58.3201 128.067V136.526H29.3825C28.6408 124.802 28.7888 113.821 32.4988 105.808C33.3031 104.07 34.9721 103.928 35.6152 104.027C39.7703 105.57 43.3813 104.472 44.6675 103.73C45.8052 103.977 49.0897 104.858 53.1261 106.401C57.1626 107.944 66.9766 117.531 71.3791 122.131L79.3824 108.697C79.5514 108.413 79.9195 108.322 80.2014 108.494L85.3624 111.641C85.6021 111.787 85.709 112.075 85.6146 112.339C82.4239 121.279 75.5698 138.307 72.4179 138.307Z" fill="url(#paint16_linear_535_98444)" fill-opacity="0.7"/>
<path fill-rule="evenodd" clip-rule="evenodd" d="M58.3207 128.068C58.3206 128.068 58.3204 128.067 58.3203 128.067V136.526H47.0896L49.4167 119.46L58.3206 128.067L58.3207 128.068Z" fill="url(#paint17_linear_535_98444)" fill-opacity="0.7"/>
<path fill-rule="evenodd" clip-rule="evenodd" d="M48.6854 56.688C48.3516 56.688 48.0811 56.9586 48.0811 57.2924V69.0776C48.0811 69.4114 48.3516 69.6819 48.6854 69.6819H52.4627V71.522C52.4627 71.7497 52.7051 71.8956 52.9063 71.789L56.8864 69.6819H80.4149C80.7486 69.6819 81.0192 69.4114 81.0192 69.0776V57.2924C81.0192 56.9586 80.7486 56.688 80.4149 56.688H48.6854Z" fill="#A4CAFE"/>
<path fill-rule="evenodd" clip-rule="evenodd" d="M51.3457 61.1398C51.3457 60.9759 51.4786 60.843 51.6425 60.843H74.941C75.1049 60.843 75.2378 60.9759 75.2378 61.1398C75.2378 61.3037 75.1049 61.4366 74.941 61.4366H51.6425C51.4786 61.4366 51.3457 61.3037 51.3457 61.1398Z" fill="white"/>
<path d="M127.029 1.78078C127.029 0.797282 127.826 0 128.809 0H237.437C238.42 0 239.217 0.79728 239.217 1.78078V71.5278C239.217 72.5113 238.42 73.3086 237.437 73.3086H128.809C127.826 73.3086 127.029 72.5113 127.029 71.5278V1.78078Z" fill="#E1EFFE"/>
<path d="M127.029 1.78078C127.029 0.797282 127.826 0 128.809 0H237.437C238.42 0 239.217 0.79728 239.217 1.78078V71.5278C239.217 72.5113 238.42 73.3086 237.437 73.3086H128.809C127.826 73.3086 127.029 72.5113 127.029 71.5278V1.78078Z" fill="url(#paint18_linear_535_98444)"/>
<path d="M127.029 1.78078C127.029 0.797282 127.826 0 128.809 0H237.437C238.42 0 239.217 0.79728 239.217 1.78078V71.5278C239.217 72.5113 238.42 73.3086 237.437 73.3086H128.809C127.826 73.3086 127.029 72.5113 127.029 71.5278V1.78078Z" fill="url(#paint19_linear_535_98444)"/>
<path d="M127.029 1.78078C127.029 0.797282 127.826 0 128.809 0H237.437C238.42 0 239.217 0.79728 239.217 1.78078V71.5278C239.217 72.5113 238.42 73.3086 237.437 73.3086H128.809C127.826 73.3086 127.029 72.5113 127.029 71.5278V1.78078Z" fill="url(#paint20_linear_535_98444)"/>
<path d="M94.5355 7.65868C94.2863 6.70729 94.8815 5.93604 95.865 5.93604H129.09C130.073 5.93604 131.073 6.70729 131.322 7.65868L139.445 38.6663C139.694 39.6177 139.099 40.3889 138.116 40.3889H104.891C103.907 40.3889 102.908 39.6177 102.659 38.6663L94.5355 7.65868Z" fill="#A4CAFE"/>
<path d="M126.311 23.1855C127.63 28.2184 124.481 32.2985 119.278 32.2985C114.075 32.2985 108.789 28.2184 107.47 23.1855C106.152 18.1525 109.3 14.0725 114.503 14.0725C119.706 14.0725 124.993 18.1525 126.311 23.1855Z" fill="white"/>
<path d="M116.821 22.7232C117.793 22.7232 118.382 21.9604 118.136 21.0194C117.889 20.0785 116.901 19.3157 115.928 19.3157C114.955 19.3157 114.367 20.0785 114.613 21.0194C114.86 21.9604 115.848 22.7232 116.821 22.7232Z" fill="#A4CAFE"/>
<path d="M116.197 24.1836H118.21C118.744 24.1836 119.309 24.3887 119.782 24.7539C120.256 25.119 120.597 25.6143 120.733 26.1307L120.988 27.1043H114.949L114.694 26.1307C114.559 25.6143 114.641 25.119 114.923 24.7539C115.205 24.3887 115.663 24.1836 116.197 24.1836Z" fill="#A4CAFE"/>
<path d="M134.412 7.65868C134.162 6.70729 134.758 5.93604 135.741 5.93604H168.966C169.95 5.93604 170.949 6.70729 171.198 7.65868L179.321 38.6663C179.571 39.6177 178.975 40.3889 177.992 40.3889H144.767C143.783 40.3889 142.784 39.6177 142.535 38.6663L134.412 7.65868Z" fill="#A4CAFE"/>
<path d="M145.508 23.447H151.426L153.992 33.2413H148.073L145.508 23.447Z" fill="white"/>
<path d="M152.556 18.6982H158.475L162.285 33.2412H156.366L152.556 18.6982Z" fill="white"/>
<path d="M159.45 13.356H165.368L170.578 33.2413H164.659L159.45 13.356Z" fill="white"/>
<path d="M174.288 7.65868C174.039 6.70729 174.634 5.93604 175.617 5.93604H208.842C209.826 5.93604 210.825 6.70729 211.074 7.65868L219.198 38.6663C219.447 39.6177 218.852 40.3889 217.868 40.3889H184.643C183.66 40.3889 182.66 39.6177 182.411 38.6663L174.288 7.65868Z" fill="#A4CAFE"/>
<path d="M199.446 32.3507C191.581 35.1703 193.906 24.634 196.033 19.1433L198.259 18.9949L204.047 22.408L210.279 38.8802L201.524 39.4738L199.446 32.3507Z" fill="#FDBA8C"/>
<path fill-rule="evenodd" clip-rule="evenodd" d="M201.386 39.0018L199.447 32.3534L199.447 32.3506C200.287 31.9549 202.147 30.926 202.86 29.9762C203.572 29.0265 206.718 35.5164 208.202 38.8801L201.386 39.0018Z" fill="url(#paint21_linear_535_98444)"/>
<path d="M196.303 25.3165C196.284 25.5542 196.076 25.7318 195.838 25.713C195.6 25.6942 195.423 25.4862 195.442 25.2484C195.46 25.0106 195.668 24.8331 195.906 24.8519C196.144 24.8707 196.321 25.0787 196.303 25.3165Z" fill="#111928"/>
<path fill-rule="evenodd" clip-rule="evenodd" d="M195.942 23.6464C195.637 23.6262 195.38 23.7351 195.132 23.8977C195.036 23.9605 194.907 23.9337 194.844 23.8378C194.781 23.7419 194.808 23.6131 194.904 23.5503C195.191 23.3625 195.539 23.2034 195.969 23.232C196.398 23.2606 196.872 23.4725 197.42 23.9492C197.506 24.0245 197.515 24.1557 197.44 24.2422C197.365 24.3287 197.233 24.3378 197.147 24.2625C196.64 23.821 196.249 23.6669 195.942 23.6464Z" fill="#111928"/>
<path fill-rule="evenodd" clip-rule="evenodd" d="M194.327 24.7911C194.437 24.8227 194.501 24.9376 194.47 25.0479L193.684 27.7947C193.67 27.8437 193.704 27.8933 193.755 27.8968L194.976 27.9821C195.091 27.9901 195.177 28.0894 195.169 28.2038C195.161 28.3182 195.062 28.4045 194.947 28.3965L193.726 28.3111C193.412 28.2892 193.198 27.9833 193.284 27.6804L194.07 24.9336C194.102 24.8234 194.217 24.7596 194.327 24.7911Z" fill="#111928"/>
<path fill-rule="evenodd" clip-rule="evenodd" d="M194.213 30.4199C194.177 30.2828 194.145 30.1413 194.118 29.9958C194.292 30.0134 194.442 30.0131 194.595 29.9973C194.858 29.9701 195.136 29.8965 195.56 29.7732C195.67 29.7412 195.785 29.8045 195.817 29.9146C195.849 30.0248 195.786 30.14 195.676 30.172C195.256 30.2943 194.943 30.3789 194.638 30.4104C194.496 30.425 194.358 30.4282 194.213 30.4199Z" fill="#111928"/>
<path fill-rule="evenodd" clip-rule="evenodd" d="M201.696 26.4149C201.815 26.1336 201.796 25.8548 201.723 25.5673C201.695 25.4561 201.762 25.3432 201.874 25.3151C201.985 25.287 202.098 25.3544 202.126 25.4656C202.21 25.7977 202.247 26.1785 202.079 26.5763C201.912 26.9719 201.557 27.3509 200.927 27.7128C200.828 27.77 200.701 27.7358 200.644 27.6364C200.587 27.5369 200.621 27.41 200.72 27.3528C201.303 27.0177 201.577 26.6982 201.696 26.4149Z" fill="#111928"/>
<path d="M198.556 23.4469C198.556 21.0725 196.874 19.5885 196.033 19.1433C201.524 9.94261 211.17 17.0657 211.17 22.2597C211.17 27.2371 213.841 30.4216 218.145 32.6475C222.448 34.8735 222.893 37.9898 223.932 40.9578C224.971 43.9258 227.939 44.5194 230.165 47.3389C231.946 49.5946 231.6 53.4232 231.204 55.0556H215.177C214.979 53.2254 214.435 48.7932 213.841 45.7065C213.099 41.8482 208.944 39.7706 205.531 36.5059C203.403 34.4705 202.519 31.6421 202.232 29.7202C202.097 28.8141 202.259 27.8997 202.537 27.0267L202.915 25.8393C203.063 25.3724 202.939 24.8617 202.593 24.5153C202.029 23.9514 201.094 24.0167 200.644 24.675C200.473 24.9255 200.311 25.1714 200.189 25.376C199.743 26.118 198.556 26.4148 198.556 23.4469Z" fill="#111928"/>
<path d="M169.322 33.3894L182.975 52.9779C184.508 55.5501 187.367 60.843 186.536 61.4366C185.497 62.1786 182.233 62.7722 179.116 60.2494C176 57.7266 167.244 36.2089 164.87 33.3894C162.496 30.5698 159.379 30.273 158.786 28.6406C158.311 27.3347 159.874 26.4147 160.715 26.1179L158.152 23.6902C158.011 23.5568 158.008 23.3335 158.146 23.1963C158.26 23.0824 158.436 23.0618 158.572 23.1495C163.011 26.0296 167.572 31.1528 169.322 33.3894Z" fill="#FDBA8C"/>
<path d="M169.322 33.3894L182.975 52.9779C184.508 55.5501 187.367 60.843 186.536 61.4366C185.497 62.1786 182.233 62.7722 179.116 60.2494C176 57.7266 167.244 36.2089 164.87 33.3894C162.496 30.5698 159.379 30.273 158.786 28.6406C158.311 27.3347 159.874 26.4147 160.715 26.1179L158.152 23.6902C158.011 23.5568 158.008 23.3335 158.146 23.1963C158.26 23.0824 158.436 23.0618 158.572 23.1495C163.011 26.0296 167.572 31.1528 169.322 33.3894Z" fill="url(#paint22_linear_535_98444)"/>
<path d="M186.192 65.4179L182.975 52.8297C186.635 49.5649 194.55 42.4418 196.924 40.0674C199.892 37.0995 210.577 35.1703 215.474 44.6678C219.391 52.2658 219.876 66.8285 219.629 73.1602H192.62L190.395 63.8111L187.069 65.7816C186.729 65.9835 186.29 65.8015 186.192 65.4179Z" fill="#F9FAFB"/>
<path d="M186.192 65.4179L182.975 52.8297C186.635 49.5649 194.55 42.4418 196.924 40.0674C199.892 37.0995 210.577 35.1703 215.474 44.6678C219.391 52.2658 219.876 66.8285 219.629 73.1602H192.62L190.395 63.8111L187.069 65.7816C186.729 65.9835 186.29 65.8015 186.192 65.4179Z" fill="url(#paint23_linear_535_98444)" fill-opacity="0.7"/>
<path fill-rule="evenodd" clip-rule="evenodd" d="M212.6 40.8183C211.756 41.8116 210.498 42.4418 209.092 42.4418C206.551 42.4418 204.492 40.3822 204.492 37.8415C204.492 37.7739 204.493 37.7067 204.496 37.6399C207.216 37.6884 210.16 38.5608 212.6 40.8183ZM216.533 47.0996C216.234 47.7094 216.067 48.395 216.067 49.1197C216.067 50.7284 216.893 52.1442 218.143 52.9665C217.72 50.8719 217.191 48.875 216.533 47.0996ZM218.752 56.511C217.167 57.2376 216.067 58.8377 216.067 60.6948C216.067 62.853 217.553 64.6641 219.558 65.1605C219.425 62.4291 219.175 59.4433 218.752 56.511ZM219.653 67.7817C217.6 68.2437 216.067 70.0777 216.067 72.2698C216.067 72.5744 216.097 72.8722 216.153 73.1602H219.628C219.684 71.7293 219.703 69.878 219.653 67.7817ZM213.606 73.1602C213.663 72.8722 213.693 72.5744 213.693 72.2698C213.693 69.7291 211.633 67.6695 209.092 67.6695C206.551 67.6695 204.492 69.7291 204.492 72.2698C204.492 72.5744 204.521 72.8722 204.578 73.1602H213.606ZM202.031 73.1602C202.088 72.8722 202.117 72.5744 202.117 72.2698C202.117 69.7291 200.058 67.6695 197.517 67.6695C194.976 67.6695 192.917 69.7291 192.917 72.2698C192.917 72.5744 192.946 72.8722 193.003 73.1602H202.031ZM186.158 65.2901C188.599 65.1771 190.542 63.163 190.542 60.6948C190.542 58.1541 188.483 56.0944 185.942 56.0944C185.219 56.0944 184.536 56.2611 183.927 56.5581L186.158 65.2901ZM183.088 52.728C183.872 53.3492 184.864 53.7201 185.942 53.7201C188.483 53.7201 190.542 51.6604 190.542 49.1197C190.542 48.2152 190.281 47.3717 189.831 46.6604C187.338 48.9231 184.786 51.2128 183.088 52.728ZM195.139 41.7804C195.833 42.2002 196.647 42.4418 197.517 42.4418C200.058 42.4418 202.117 40.3822 202.117 37.8415C202.117 37.8294 202.117 37.8174 202.117 37.8054C199.846 38.1638 197.936 39.0552 196.924 40.0675C196.492 40.4989 195.878 41.0871 195.139 41.7804ZM209.092 53.7201C211.633 53.7201 213.693 51.6604 213.693 49.1197C213.693 46.579 211.633 44.5194 209.092 44.5194C206.551 44.5194 204.492 46.579 204.492 49.1197C204.492 51.6604 206.551 53.7201 209.092 53.7201ZM213.693 60.6948C213.693 63.2355 211.633 65.2951 209.092 65.2951C206.551 65.2951 204.492 63.2355 204.492 60.6948C204.492 58.1541 206.551 56.0944 209.092 56.0944C211.633 56.0944 213.693 58.1541 213.693 60.6948ZM202.117 60.6948C202.117 63.2355 200.058 65.2951 197.517 65.2951C194.976 65.2951 192.917 63.2355 192.917 60.6948C192.917 58.1541 194.976 56.0944 197.517 56.0944C200.058 56.0944 202.117 58.1541 202.117 60.6948ZM197.517 53.7201C200.058 53.7201 202.117 51.6604 202.117 49.1197C202.117 46.579 200.058 44.5194 197.517 44.5194C194.976 44.5194 192.917 46.579 192.917 49.1197C192.917 51.6604 194.976 53.7201 197.517 53.7201Z" fill="#A4CAFE" fill-opacity="0.2"/>
<path fill-rule="evenodd" clip-rule="evenodd" d="M206.088 73.1601H192.62L190.397 63.8212L200.931 57.4299L206.088 73.1601Z" fill="url(#paint24_linear_535_98444)" fill-opacity="0.7"/>
<defs>
<linearGradient id="paint0_linear_535_98444" x1="110.999" y1="88.742" x2="110.999" y2="237.585" gradientUnits="userSpaceOnUse">
<stop stop-color="white" stop-opacity="0"/>
<stop offset="1" stop-color="white"/>
</linearGradient>
<radialGradient id="paint1_radial_535_98444" cx="0" cy="0" r="1" gradientUnits="userSpaceOnUse" gradientTransform="translate(118.718 84.1417) rotate(90) scale(97.6459 105.036)">
<stop stop-color="white"/>
<stop offset="1" stop-color="white" stop-opacity="0"/>
</radialGradient>
<linearGradient id="paint2_linear_535_98444" x1="183.123" y1="152.85" x2="183.123" y2="83.5484" gradientUnits="userSpaceOnUse">
<stop stop-color="white" stop-opacity="0"/>
<stop offset="1" stop-color="white"/>
</linearGradient>
<linearGradient id="paint3_linear_535_98444" x1="183.123" y1="143.501" x2="183.123" y2="183.123" gradientUnits="userSpaceOnUse">
<stop stop-color="#A4CAFE" stop-opacity="0"/>
<stop offset="1" stop-color="#A4CAFE"/>
</linearGradient>
<linearGradient id="paint4_linear_535_98444" x1="178.226" y1="97.2007" x2="131.926" y2="15.1366" gradientUnits="userSpaceOnUse">
<stop stop-color="#A4CAFE" stop-opacity="0"/>
<stop offset="1" stop-color="#A4CAFE"/>
</linearGradient>
<linearGradient id="paint5_linear_535_98444" x1="178.226" y1="97.2007" x2="220.222" y2="-5.34227" gradientUnits="userSpaceOnUse">
<stop stop-color="#A4CAFE" stop-opacity="0"/>
<stop offset="1" stop-color="#A4CAFE"/>
</linearGradient>
<linearGradient id="paint6_linear_535_98444" x1="165.315" y1="154.649" x2="165.315" y2="141.53" gradientUnits="userSpaceOnUse">
<stop stop-color="#1C64F2" stop-opacity="0"/>
<stop offset="1" stop-color="#1C64F2"/>
</linearGradient>
<linearGradient id="paint7_linear_535_98444" x1="187.191" y1="164.088" x2="186.828" y2="159.274" gradientUnits="userSpaceOnUse">
<stop stop-color="#A4CAFE"/>
<stop offset="1" stop-color="#A4CAFE" stop-opacity="0"/>
</linearGradient>
<linearGradient id="paint8_linear_535_98444" x1="170.571" y1="164.088" x2="170.208" y2="159.274" gradientUnits="userSpaceOnUse">
<stop stop-color="#A4CAFE"/>
<stop offset="1" stop-color="#A4CAFE" stop-opacity="0"/>
</linearGradient>
<linearGradient id="paint9_linear_535_98444" x1="204.789" y1="130.887" x2="210.901" y2="134.751" gradientUnits="userSpaceOnUse">
<stop stop-color="#7F270F"/>
<stop offset="1" stop-color="#7F270F" stop-opacity="0"/>
</linearGradient>
<linearGradient id="paint10_linear_535_98444" x1="200.276" y1="168.398" x2="197.993" y2="151.88" gradientUnits="userSpaceOnUse">
<stop stop-color="#A4CAFE"/>
<stop offset="1" stop-color="#A4CAFE" stop-opacity="0"/>
</linearGradient>
<linearGradient id="paint11_linear_535_98444" x1="56.0944" y1="127.029" x2="56.0944" y2="57.7268" gradientUnits="userSpaceOnUse">
<stop stop-color="white" stop-opacity="0"/>
<stop offset="1" stop-color="white"/>
</linearGradient>
<linearGradient id="paint12_linear_535_98444" x1="56.0944" y1="117.679" x2="56.0944" y2="157.302" gradientUnits="userSpaceOnUse">
<stop stop-color="#A4CAFE" stop-opacity="0"/>
<stop offset="1" stop-color="#A4CAFE"/>
</linearGradient>
<linearGradient id="paint13_linear_535_98444" x1="89.1872" y1="94.3811" x2="141.72" y2="46.8938" gradientUnits="userSpaceOnUse">
<stop stop-color="#A4CAFE" stop-opacity="0"/>
<stop offset="1" stop-color="#A4CAFE"/>
</linearGradient>
<linearGradient id="paint14_linear_535_98444" x1="56.6874" y1="92.8971" x2="42.8572" y2="105.221" gradientUnits="userSpaceOnUse">
<stop stop-color="#7F270F"/>
<stop offset="1" stop-color="#7F270F" stop-opacity="0"/>
</linearGradient>
<linearGradient id="paint15_linear_535_98444" x1="80.135" y1="135.933" x2="95.7901" y2="111.45" gradientUnits="userSpaceOnUse">
<stop stop-color="#7F270F"/>
<stop offset="1" stop-color="#7F270F" stop-opacity="0"/>
</linearGradient>
<linearGradient id="paint16_linear_535_98444" x1="31.4604" y1="160.566" x2="37.9754" y2="121.028" gradientUnits="userSpaceOnUse">
<stop stop-color="#A4CAFE"/>
<stop offset="1" stop-color="#A4CAFE" stop-opacity="0"/>
</linearGradient>
<linearGradient id="paint17_linear_535_98444" x1="61.8819" y1="127.77" x2="50.3341" y2="126.767" gradientUnits="userSpaceOnUse">
<stop stop-color="#A4CAFE"/>
<stop offset="1" stop-color="#A4CAFE" stop-opacity="0"/>
</linearGradient>
<linearGradient id="paint18_linear_535_98444" x1="183.123" y1="63.8114" x2="183.123" y2="-5.49044" gradientUnits="userSpaceOnUse">
<stop stop-color="white" stop-opacity="0"/>
<stop offset="1" stop-color="white"/>
</linearGradient>
<linearGradient id="paint19_linear_535_98444" x1="183.123" y1="54.4621" x2="183.123" y2="94.0843" gradientUnits="userSpaceOnUse">
<stop stop-color="#A4CAFE" stop-opacity="0"/>
<stop offset="1" stop-color="#A4CAFE"/>
</linearGradient>
<linearGradient id="paint20_linear_535_98444" x1="175.703" y1="24.6341" x2="195.143" y2="-103.582" gradientUnits="userSpaceOnUse">
<stop stop-color="#A4CAFE" stop-opacity="0"/>
<stop offset="1" stop-color="#A4CAFE"/>
</linearGradient>
<linearGradient id="paint21_linear_535_98444" x1="196.818" y1="30.0535" x2="201.995" y2="34.4483" gradientUnits="userSpaceOnUse">
<stop stop-color="#7F270F"/>
<stop offset="1" stop-color="#7F270F" stop-opacity="0"/>
</linearGradient>
<linearGradient id="paint22_linear_535_98444" x1="212.061" y1="78.7991" x2="190.983" y2="44.3082" gradientUnits="userSpaceOnUse">
<stop stop-color="#7F270F"/>
<stop offset="1" stop-color="#7F270F" stop-opacity="0"/>
</linearGradient>
<linearGradient id="paint23_linear_535_98444" x1="217.7" y1="88.4452" x2="186.76" y2="62.7515" gradientUnits="userSpaceOnUse">
<stop stop-color="#A4CAFE"/>
<stop offset="1" stop-color="#A4CAFE" stop-opacity="0"/>
</linearGradient>
<linearGradient id="paint24_linear_535_98444" x1="187.278" y1="63.0691" x2="195.908" y2="63.9914" gradientUnits="userSpaceOnUse">
<stop stop-color="#A4CAFE"/>
<stop offset="1" stop-color="#A4CAFE" stop-opacity="0"/>
</linearGradient>
</defs>
</svg>
