<svg width="28" height="28" viewBox="0 0 28 28" fill="none" xmlns="http://www.w3.org/2000/svg">
<path fill-rule="evenodd" clip-rule="evenodd" d="M8.66189 3.70993C9.07532 3.42142 9.6273 3.43111 10.0304 3.73394C10.1392 3.81572 10.3125 3.92716 10.5336 4.06927C11.4196 4.6389 13.0723 5.70135 14.4103 7.32177C15.69 8.8716 16.7463 10.9585 17.0052 13.7667C17.5083 12.7401 17.8539 11.4337 17.9311 9.76403C17.9511 9.33336 18.2069 8.94879 18.5964 8.76396C18.9859 8.57913 19.4456 8.62417 19.7918 8.88109C20.8727 9.68318 22.1523 11.5108 22.8334 13.6659C23.5286 15.8658 23.665 18.6144 22.1458 21.1804C22.1405 21.1893 22.1351 21.1982 22.1296 21.207C21.2542 22.5993 20.0391 23.7415 18.5996 24.5219C17.1715 25.2962 15.5711 25.688 13.9505 25.6594C12.4257 25.721 10.9111 25.3881 9.54927 24.6927C8.176 23.9914 7.00495 22.9456 6.14665 21.6567C6.13411 21.6379 6.12213 21.6187 6.1107 21.5992C2.58817 15.578 6.51323 9.99674 7.2093 9.04366C7.2372 9.00545 7.26741 8.96898 7.29974 8.93443C7.77939 8.42206 8.11788 7.78803 8.27873 7.09645C8.43961 6.4048 8.41662 5.68208 8.2123 5.00265C8.06712 4.51987 8.24846 3.99844 8.66189 3.70993ZM10.6665 6.98384C10.6391 7.19885 10.6008 7.41287 10.5514 7.62505C10.3041 8.68835 9.78893 9.6697 9.05503 10.473C8.29046 11.5329 5.46914 15.8421 8.10746 20.3913C8.74405 21.337 9.60569 22.1016 10.6104 22.6146C11.6249 23.1326 12.7522 23.3775 13.885 23.3268C13.9108 23.3256 13.9367 23.3253 13.9626 23.3259C15.1895 23.3526 16.4033 23.0585 17.4875 22.4707C18.5672 21.8852 19.483 21.0277 20.1459 19.9783C21.2216 18.1513 21.1683 16.1403 20.6085 14.3691C20.4073 13.7325 20.1487 13.1525 19.8724 12.6486C19.2601 15.1134 18.0111 16.8372 16.4806 17.9988C16.1071 18.2823 15.6002 18.3146 15.1937 18.0808C14.7872 17.8471 14.5602 17.3926 14.6174 16.9272C15.106 12.9509 13.9676 10.4503 12.611 8.80743C11.9691 8.02997 11.2978 7.45062 10.6665 6.98384Z" fill="#194170"/>
</svg>
