<svg width="24" height="30" viewBox="0 0 24 30" fill="none" xmlns="http://www.w3.org/2000/svg">
<path fill-rule="evenodd" clip-rule="evenodd" d="M6.75 0.87868C7.31261 0.316069 8.07567 0 8.87132 0H21C22.6569 0 24 1.34315 24 3V27C24 28.6569 22.6569 30 21 30H3C1.34315 30 0 28.6569 0 27V8.87132C0 8.07567 0.316071 7.31261 0.878679 6.75L6.75 0.87868ZM3 10.5V27H21V3H10.5V7.5C10.5 9.15685 9.15685 10.5 7.5 10.5H3ZM7.5 4.37132V7.5H4.37132L7.5 4.37132ZM6 15C6 14.1716 6.67157 13.5 7.5 13.5H16.5C17.3284 13.5 18 14.1716 18 15C18 15.8284 17.3284 16.5 16.5 16.5H7.5C6.67157 16.5 6 15.8284 6 15ZM6 21C6 20.1716 6.67157 19.5 7.5 19.5H16.5C17.3284 19.5 18 20.1716 18 21C18 21.8284 17.3284 22.5 16.5 22.5H7.5C6.67157 22.5 6 21.8284 6 21Z" fill="#194170"/>
</svg>
