<svg width="17" height="17" viewBox="0 0 17 17" fill="none" xmlns="http://www.w3.org/2000/svg">
<path fill-rule="evenodd" clip-rule="evenodd" d="M8.33333 1.66667C4.65143 1.66667 1.66667 4.65143 1.66667 8.33333C1.66667 12.0152 4.65143 15 8.33333 15C12.0152 15 15 12.0152 15 8.33333C15 4.65143 12.0152 1.66667 8.33333 1.66667ZM0 8.33333C0 3.73096 3.73096 0 8.33333 0C12.9357 0 16.6667 3.73096 16.6667 8.33333C16.6667 12.9357 12.9357 16.6667 8.33333 16.6667C3.73096 16.6667 0 12.9357 0 8.33333ZM7.00658 4.58333C7.00658 4.1231 7.37968 3.75 7.83992 3.75H7.84825C8.30849 3.75 8.68158 4.1231 8.68158 4.58333C8.68158 5.04357 8.30849 5.41667 7.84825 5.41667H7.83992C7.37968 5.41667 7.00658 5.04357 7.00658 4.58333ZM5.83333 7.5C5.83333 7.03976 6.20643 6.66667 6.66667 6.66667H8.33333C8.79357 6.66667 9.16667 7.03976 9.16667 7.5V10.8333H10C10.4602 10.8333 10.8333 11.2064 10.8333 11.6667C10.8333 12.1269 10.4602 12.5 10 12.5H6.66667C6.20643 12.5 5.83333 12.1269 5.83333 11.6667C5.83333 11.2064 6.20643 10.8333 6.66667 10.8333H7.5V8.33333H6.66667C6.20643 8.33333 5.83333 7.96024 5.83333 7.5Z" fill="#6A7282"/>
</svg>
