<svg width="24" height="31" viewBox="0 0 24 31" fill="none" xmlns="http://www.w3.org/2000/svg">
<path fill-rule="evenodd" clip-rule="evenodd" d="M11.8493 0.000946855C14.0448 -0.0266313 16.2058 0.548699 18.097 1.66429C19.9881 2.77988 21.537 4.39296 22.5748 6.32789C23.6127 8.26281 24.0998 10.4454 23.983 12.638C23.8703 14.7551 23.1988 16.8031 22.0387 18.5745C21.9858 18.6831 21.9193 18.7863 21.8395 18.8814L21.6778 19.0743C21.4107 19.4397 21.1234 19.79 20.8173 20.1235L13.1495 29.4624C12.8648 29.8091 12.4399 30.0102 11.9912 30.0105C11.5426 30.0108 11.1174 29.8103 10.8322 29.464L2.96286 19.9068C2.9619 19.9057 2.96095 19.9045 2.95999 19.9034C2.80419 19.7163 2.64987 19.525 2.49726 19.3314L2.29638 19.0878C2.21894 18.9939 2.15433 18.8924 2.10284 18.7857C0.914669 17.0528 0.201409 15.0367 0.0367819 12.9388C-0.13499 10.7498 0.297112 8.55568 1.28603 6.59529C2.27496 4.63491 3.78279 2.98344 5.64534 1.82069C7.5079 0.657954 9.65377 0.0285249 11.8493 0.000946855ZM4.77028 17.3724L4.8225 17.4358L4.8437 17.4621C4.98671 17.6437 5.1279 17.8187 5.26752 17.9863L5.27318 17.993L5.27316 17.9931L11.9885 26.1487L18.5259 18.1867C18.5446 18.1639 18.564 18.1417 18.584 18.12C18.8328 17.851 19.0653 17.5673 19.2801 17.2705C19.301 17.2416 19.323 17.2135 19.3459 17.1861L19.4092 17.1107C19.4174 17.0977 19.4259 17.0849 19.4346 17.0722C20.3627 15.7118 20.8997 14.1229 20.9873 12.4785C21.0748 10.834 20.7095 9.19711 19.9311 7.74591C19.1527 6.29472 17.9911 5.08491 16.5727 4.24822C15.1544 3.41152 13.5336 2.98003 11.887 3.00071C10.2403 3.02139 8.63092 3.49347 7.23401 4.36552C5.83709 5.23758 4.70622 6.47618 3.96453 7.94647C3.22284 9.41676 2.89876 11.0624 3.02759 12.7041C3.15642 14.3458 3.73321 15.9207 4.69517 17.2573C4.72211 17.2948 4.74715 17.3332 4.77028 17.3724ZM11.9902 9.01053C10.3333 9.01053 8.99019 10.3537 8.99019 12.0105C8.99019 13.6674 10.3333 15.0105 11.9902 15.0105C13.647 15.0105 14.9902 13.6674 14.9902 12.0105C14.9902 10.3537 13.647 9.01053 11.9902 9.01053ZM5.99019 12.0105C5.99019 8.69682 8.67649 6.01053 11.9902 6.01053C15.3039 6.01053 17.9902 8.69682 17.9902 12.0105C17.9902 15.3242 15.3039 18.0105 11.9902 18.0105C8.67648 18.0105 5.99019 15.3242 5.99019 12.0105Z" fill="#194170"/>
</svg>
