<svg width="863" height="315" viewBox="0 0 863 315" fill="none" xmlns="http://www.w3.org/2000/svg">
<path d="M259.373 0C261.628 0.0970161 261.628 0.0970161 264.34 0.993444C265.862 3.15693 266.912 5.01432 268.004 7.38874C268.335 8.07939 268.666 8.77004 269.007 9.48162C274.501 21.2695 278.833 33.5935 283.358 45.7751C284.071 47.6925 284.786 49.609 285.504 51.5245C286.147 53.2435 286.784 54.9648 287.413 56.6891C291.389 67.3299 296.691 76.7227 306.065 83.4493C313.1 88.5152 317.281 94.5935 321.246 102.208C325.905 110.657 331.56 118.567 337.483 126.167C340.828 130.558 343.632 135.039 346.238 139.889C346.566 140.496 346.894 141.102 347.231 141.727C355.164 156.987 354.071 175.104 349.032 191.123C345.157 202.456 340.249 213.352 335.163 224.184C332.635 229.587 330.232 235.012 327.983 240.538C327.504 241.709 327.026 242.879 326.533 244.086C325.617 246.345 324.714 248.61 323.828 250.88C321.4 256.847 319.592 260.856 314.013 264.256C310.92 265.358 310.92 265.358 307.742 265.995C306.7 266.215 305.659 266.435 304.587 266.662C288.742 269.271 271.628 271.246 257.887 261.505C254.966 258.903 252.639 256.012 250.308 252.894C249.882 252.337 249.455 251.781 249.016 251.208C246.622 248.051 244.452 244.846 242.485 241.407C243.491 241.712 243.491 241.712 244.518 242.024C245.847 242.425 245.847 242.425 247.204 242.835C248.079 243.1 248.955 243.365 249.858 243.638C260.073 246.626 268.411 245.41 278.249 241.407C280.792 239.932 283.143 238.373 285.494 236.611C287.19 235.446 289.177 233.459 289.177 233.459C293.649 231.012 297.767 229.205 302.712 227.933C311.555 225.634 318.783 221.666 323.722 213.746C328.032 205.421 330.302 197.81 330.28 188.444C330.279 187.71 330.277 186.977 330.275 186.221C330.081 177.474 327.464 169.804 321.96 162.925C321.467 162.305 320.974 161.685 320.466 161.047C306.615 145.37 279.103 141.397 259.679 137.31C242.96 133.696 228.861 126.423 213.93 118.369C171.942 95.799 126.008 96.1662 80.9684 109.617C63.5836 115.047 47.0145 122.749 30.881 131.135C30.0188 131.579 29.1566 132.023 28.2684 132.48C25.4525 133.931 22.6401 135.388 19.8289 136.847C18.9453 137.304 18.0617 137.761 17.1513 138.232C13.5253 140.128 10.0091 141.999 6.67354 144.375C4.05799 146.036 4.05799 146.036 0.0842139 146.036C-0.458765 137.711 1.6 129.635 6.95683 123.106C11.0183 119.364 15.9183 116.935 20.7758 114.387C24.8724 112.233 28.9314 110.01 32.9921 107.789C33.844 107.323 34.6959 106.858 35.5737 106.378C43.5624 101.977 51.3609 97.3329 58.3249 91.3969L62.6712 87.4231C64.2778 85.7197 65.9429 84.0709 67.6384 82.4559C73.9198 76.3617 79.706 70.1299 85.1595 63.2841C87.9838 59.7588 90.8519 56.2693 93.7164 52.7767C94.3032 52.0557 94.89 51.3346 95.4947 50.5917C99.4075 45.8179 103.193 41.2023 108.37 37.7509C113.112 37.3349 116.595 37.7281 121.098 39.2411C126.315 40.9157 131.767 41.9949 137.18 40.7312C141.36 37.2463 144.359 32.9078 147.487 28.4994C159.697 11.5904 159.697 11.5904 166.983 7.94756C173.882 7.35467 180.202 8.3679 186.852 10.1207C187.715 10.3412 188.577 10.5617 189.466 10.7889C195.621 12.4314 201.276 14.5149 206.721 17.882C206.6 23.2004 204.972 26.2922 202.126 30.7968C199.135 35.4334 199.135 35.4334 198.525 40.7312C201.987 49.0416 213.815 52.5142 221.665 55.9705C226.904 58.047 232.891 60.3203 238.511 58.6132C244.38 54.4635 245.215 48.6925 246.831 41.973C247.421 39.6586 248.012 37.3444 248.604 35.0306C248.903 33.8439 249.202 32.6573 249.509 31.4347C251 25.5911 252.603 19.7801 254.22 13.9703C254.508 12.9122 254.796 11.8541 255.092 10.7639C255.5 9.29491 255.5 9.29491 255.916 7.79621C256.271 6.50547 256.271 6.50547 256.633 5.18866C257.386 2.98033 257.386 2.98033 259.373 0Z" fill="#C7272E"/>
<path d="M109.282 115.83C129.844 111.62 154.605 110.412 174.93 116.233C176.102 116.548 177.273 116.863 178.481 117.188C193.092 121.567 206.805 129.104 219.82 136.964C230.386 143.168 242.154 146.192 253.971 149.017C255.377 149.361 256.784 149.705 258.19 150.05C262.224 151.039 266.263 152.016 270.301 152.991C276.28 154.441 282.257 155.899 288.211 157.45C290.028 157.921 291.849 158.374 293.67 158.827C303.752 161.671 310.87 168.03 316.158 177.007C319.025 183.234 318.907 190.364 317.12 196.876C314.328 204.228 311.186 208.864 304.237 212.582C300.259 214.306 296.849 214.665 292.529 214.77C288.597 215.009 288.597 215.009 285.447 217.157C284.484 218.523 283.563 219.918 282.68 221.336C279.23 226.54 274.261 230.57 268.314 232.466C259.992 233.584 253.326 232.367 246.458 227.499C243.242 224.719 240.202 221.86 237.517 218.558C229.542 215.787 221.6 212.562 213.24 211.542C212.567 211.458 211.894 211.375 211.201 211.289C175.59 206.889 140.123 206.375 104.396 209.617C103.498 209.686 102.599 209.756 101.674 209.828C95.6814 210.327 90.4798 210.768 85.8889 215.011C84.3833 216.891 82.9394 218.823 81.5696 220.804C77.9336 225.725 72.7217 229.369 66.6448 230.479C57.4784 231.445 50.7971 229.137 43.6086 223.462C40.3786 220.565 39.0071 217.875 37.3381 213.901C35.3797 209.93 34.4473 208.845 30.2366 207.25C28.1333 206.742 26.0268 206.324 23.9006 205.923C15.5816 204.346 10.9099 200.5 6.04419 193.721C2.21903 184.607 0.342549 176.22 3.62329 166.775C13.1135 145.642 50.7285 135.117 70.6438 127.283C78.7905 124.208 87.0958 121.643 95.4543 119.213C96.548 118.889 97.642 118.566 98.7688 118.232C101.626 117.452 104.472 116.814 107.376 116.233C108.319 116.033 108.32 116.033 109.282 115.83ZM217.648 151.003C170.753 124.736 124.788 117.675 74.4055 140.758C70.1623 142.812 65.8661 144.61 61.4797 146.335C60.8715 146.572 60.281 146.801 59.6907 147.03V149.017C79.8633 150.841 100.041 151.714 120.278 152.428C123 152.524 125.722 152.619 128.444 152.716C149.43 153.47 170.416 154.239 191.418 154.237C192.749 154.234 192.749 154.234 194.054 154.232C201.992 154.224 209.784 154.246 217.648 152.991V151.003Z" fill="#1A4272"/>
<path d="M314.085 287.363C315.085 288.363 315.085 288.363 315.397 291.176C315.284 299.005 311.987 307.317 307.085 313.363C303.851 314.98 301.657 314.839 298.085 314.363C295.54 312.035 293.986 310.178 292.085 307.363C291.363 306.301 290.641 305.239 289.897 304.144C283.998 295.117 283.998 295.117 284.362 291.969C284.601 291.439 284.839 290.909 285.085 290.363C286.552 290.29 286.552 290.29 288.05 290.215C296.493 289.733 305.844 286.59 314.085 287.363Z" fill="#C7272E"/>
<path d="M644.92 43.0182V28.8193H711.818V43.0182H686.881V110.274H669.858V43.0182H644.92Z" fill="#1A4272"/>
<path d="M578.92 110.274V28.8193H633.807V43.0182H596.142V62.4273H630.983V76.6262H596.142V96.075H633.966V110.274H578.92Z" fill="#1A4272"/>
<path d="M513.862 110.274V28.8193H568.749V43.0182H531.084V62.4273H565.925V76.6262H531.084V96.075H568.908V110.274H513.862Z" fill="#1A4272"/>
<path d="M450.916 110.274V28.8193H468.137V96.075H503.058V110.274H450.916Z" fill="#1A4272"/>
<path d="M386 110.274V28.8193H439.932V43.0182H403.222V62.4273H436.352V76.6262H403.222V110.274H386Z" fill="#1A4272"/>
<path d="M841.599 160.717C841.042 158.782 840.26 157.071 839.252 155.586C838.245 154.075 837.012 152.802 835.553 151.768C834.122 150.708 832.478 149.899 830.622 149.342C828.792 148.785 826.764 148.507 824.536 148.507C820.374 148.507 816.714 149.541 813.559 151.609C810.43 153.677 807.991 156.687 806.241 160.638C804.491 164.562 803.616 169.361 803.616 175.035C803.616 180.71 804.478 185.535 806.201 189.513C807.925 193.49 810.364 196.526 813.519 198.621C816.675 200.689 820.4 201.723 824.696 201.723C828.593 201.723 831.921 201.033 834.678 199.655C837.463 198.249 839.584 196.274 841.042 193.728C842.527 191.183 843.269 188.174 843.269 184.7L846.769 185.217H825.769V172.251H859.855V182.513C859.855 189.672 858.343 195.823 855.321 200.967C852.298 206.085 848.135 210.035 842.832 212.819C837.529 215.577 831.457 216.956 824.616 216.956C816.98 216.956 810.271 215.272 804.491 211.905C798.711 208.511 794.203 203.698 790.968 197.467C787.76 191.21 786.156 183.785 786.156 175.194C786.156 168.592 787.11 162.706 789.019 157.535C790.955 152.338 793.66 147.937 797.133 144.331C800.607 140.725 804.65 137.98 809.264 136.098C813.877 134.215 818.875 133.274 824.258 133.274C828.872 133.274 833.167 133.95 837.144 135.302C841.122 136.628 844.648 138.511 847.724 140.95C850.826 143.389 853.358 146.293 855.321 149.66C857.283 153.001 858.542 156.687 859.099 160.717H841.599Z" fill="#1A4272"/>
<path d="M775.959 135.274V216.728H761.084L725.646 165.461H725.05V216.728H707.828V135.274H722.942L758.101 186.501H758.817V135.274H775.959Z" fill="#1A4272"/>
<path d="M697.259 135.274V216.728H680.038V135.274H697.259Z" fill="#1A4272"/>
<path d="M650.434 157.814C650.116 154.605 648.75 152.113 646.337 150.336C643.925 148.56 640.65 147.672 636.514 147.672C633.703 147.672 631.33 148.069 629.394 148.865C627.459 149.634 625.974 150.708 624.94 152.086C623.932 153.465 623.428 155.03 623.428 156.78C623.375 158.238 623.68 159.511 624.343 160.598C625.033 161.685 625.974 162.626 627.167 163.422C628.36 164.191 629.739 164.867 631.303 165.45C632.868 166.007 634.538 166.484 636.315 166.882L643.633 168.632C647.186 169.427 650.447 170.488 653.417 171.814C656.387 173.139 658.959 174.77 661.133 176.706C663.307 178.641 664.991 180.922 666.184 183.547C667.404 186.172 668.027 189.181 668.053 192.575C668.027 197.56 666.754 201.882 664.235 205.541C661.743 209.174 658.137 211.997 653.417 214.013C648.724 216.001 643.063 216.996 636.434 216.996C629.858 216.996 624.131 215.988 619.252 213.973C614.4 211.958 610.608 208.975 607.877 205.024C605.173 201.047 603.754 196.128 603.622 190.268H620.286C620.472 192.999 621.254 195.28 622.633 197.109C624.038 198.912 625.908 200.278 628.241 201.206C630.601 202.107 633.266 202.558 636.235 202.558C639.152 202.558 641.684 202.134 643.832 201.285C646.006 200.437 647.69 199.257 648.883 197.746C650.076 196.234 650.673 194.497 650.673 192.535C650.673 190.706 650.129 189.168 649.042 187.922C647.981 186.675 646.417 185.615 644.349 184.74C642.307 183.865 639.802 183.069 636.832 182.353L627.962 180.126C621.095 178.456 615.673 175.844 611.695 172.291C607.718 168.738 605.743 163.952 605.769 157.933C605.743 153.001 607.055 148.692 609.707 145.007C612.385 141.321 616.057 138.444 620.724 136.376C625.391 134.308 630.694 133.274 636.633 133.274C642.678 133.274 647.955 134.308 652.462 136.376C656.997 138.444 660.523 141.321 663.042 145.007C665.561 148.692 666.86 152.961 666.94 157.814H650.434Z" fill="#1A4272"/>
<path d="M532.965 216.728H514.51L542.63 135.274H564.823L592.902 216.728H574.448L554.044 153.888H553.408L532.965 216.728ZM531.811 184.711H575.402V198.155H531.811V184.711Z" fill="#1A4272"/>
<path d="M448.92 216.728V135.274H503.807V149.473H466.142V168.882H500.983V183.081H466.142V202.53H503.966V216.728H448.92Z" fill="#1A4272"/>
<path d="M386 216.728V135.274H403.222V202.53H438.142V216.728H386Z" fill="#1A4272"/>
<path d="M787.53 285.287H778.301L792.363 244.552H803.461L817.504 285.287H808.275L798.071 253.861H797.753L787.53 285.287ZM786.953 269.276H808.752V275.998H786.953V269.276Z" fill="#C7272E"/>
<path d="M758.261 244.552V285.287H749.648V244.552H758.261Z" fill="#C7272E"/>
<path d="M702.707 285.287V244.552H711.319V278.186H728.783V285.287H702.707Z" fill="#C7272E"/>
<path d="M654.668 285.287H645.439L659.501 244.552H670.6L684.642 285.287H675.413L665.209 253.861H664.891L654.668 285.287ZM654.091 269.276H675.89V275.998H654.091V269.276Z" fill="#C7272E"/>
<path d="M595.728 285.287V244.552H611.799C614.875 244.552 617.501 245.103 619.675 246.203C621.863 247.291 623.527 248.835 624.668 250.838C625.821 252.827 626.398 255.167 626.398 257.859C626.398 260.564 625.815 262.891 624.648 264.84C623.481 266.776 621.79 268.261 619.576 269.295C617.375 270.33 614.71 270.847 611.58 270.847H600.82V263.925H610.188C611.832 263.925 613.198 263.7 614.285 263.249C615.373 262.798 616.181 262.122 616.712 261.22C617.255 260.318 617.527 259.198 617.527 257.859C617.527 256.506 617.255 255.366 616.712 254.438C616.181 253.51 615.366 252.807 614.265 252.329C613.178 251.839 611.806 251.593 610.148 251.593H604.34V285.287H595.728ZM617.726 266.75L627.85 285.287H618.343L608.438 266.75H617.726Z" fill="#C7272E"/>
<path d="M544.602 251.653V244.552H578.056V251.653H565.585V285.287H557.072V251.653H544.602Z" fill="#C7272E"/>
<path d="M519.387 256.268C519.228 254.663 518.545 253.417 517.338 252.528C516.132 251.64 514.494 251.196 512.425 251.196C511.02 251.196 509.833 251.395 508.865 251.792C507.897 252.177 507.155 252.714 506.638 253.403C506.134 254.093 505.882 254.875 505.882 255.75C505.855 256.48 506.008 257.116 506.339 257.66C506.684 258.204 507.155 258.674 507.751 259.072C508.348 259.457 509.038 259.795 509.82 260.086C510.602 260.365 511.438 260.604 512.326 260.803L515.986 261.678C517.763 262.075 519.394 262.606 520.879 263.269C522.364 263.932 523.65 264.747 524.737 265.715C525.825 266.683 526.667 267.824 527.263 269.136C527.873 270.449 528.185 271.954 528.198 273.651C528.185 276.144 527.548 278.306 526.289 280.135C525.042 281.952 523.239 283.364 520.879 284.372C518.532 285.366 515.701 285.864 512.386 285.864C509.097 285.864 506.233 285.36 503.793 284.352C501.367 283.344 499.471 281.853 498.105 279.877C496.752 277.888 496.043 275.428 495.977 272.498H504.31C504.403 273.864 504.794 275.004 505.484 275.919C506.187 276.82 507.121 277.503 508.288 277.967C509.468 278.418 510.801 278.644 512.286 278.644C513.745 278.644 515.011 278.432 516.085 278.007C517.173 277.583 518.014 276.993 518.611 276.237C519.208 275.481 519.506 274.613 519.506 273.631C519.506 272.717 519.234 271.947 518.691 271.324C518.16 270.701 517.378 270.171 516.344 269.733C515.323 269.295 514.07 268.898 512.585 268.54L508.149 267.426C504.715 266.59 502.003 265.284 500.014 263.508C498.025 261.731 497.037 259.337 497.051 256.327C497.037 253.861 497.694 251.706 499.02 249.863C500.359 248.02 502.195 246.581 504.529 245.547C506.863 244.513 509.515 243.996 512.485 243.996C515.508 243.996 518.147 244.513 520.401 245.547C522.669 246.581 524.432 248.02 525.692 249.863C526.952 251.706 527.601 253.841 527.641 256.268H519.387Z" fill="#C7272E"/>
<path d="M467.429 244.552H476.041V271.006C476.041 273.976 475.332 276.575 473.913 278.803C472.507 281.03 470.538 282.767 468.006 284.014C465.473 285.247 462.523 285.864 459.155 285.864C455.773 285.864 452.816 285.247 450.284 284.014C447.751 282.767 445.782 281.03 444.376 278.803C442.971 276.575 442.268 273.976 442.268 271.006V244.552H450.88V270.27C450.88 271.821 451.218 273.2 451.895 274.407C452.584 275.614 453.552 276.562 454.799 277.251C456.045 277.941 457.497 278.286 459.155 278.286C460.825 278.286 462.277 277.941 463.51 277.251C464.757 276.562 465.718 275.614 466.394 274.407C467.084 273.2 467.429 271.821 467.429 270.27V244.552Z" fill="#C7272E"/>
<path d="M395.229 285.287H386L400.062 244.552H411.161L425.203 285.287H415.974L405.77 253.861H405.452L395.229 285.287ZM394.652 269.276H416.451V275.998H394.652V269.276Z" fill="#C7272E"/>
</svg>
