<svg width="160" height="176" viewBox="0 0 160 176" fill="none" xmlns="http://www.w3.org/2000/svg">
<path d="M76.0359 4.96704H152.595V94.8197C152.595 95.6502 152.215 96.3235 151.747 96.3235H76.8842C76.4157 96.3235 76.0359 95.6502 76.0359 94.8197V4.96704Z" fill="#C3DDFD"/>
<path d="M76.0359 4.96704H152.595V94.8197C152.595 95.6502 152.215 96.3235 151.747 96.3235H76.8842C76.4157 96.3235 76.0359 95.6502 76.0359 94.8197V4.96704Z" fill="url(#paint0_linear_535_98449)"/>
<path d="M76.0359 1.42856C76.0359 0.717926 76.4157 0.141846 76.8842 0.141846H151.747C152.215 0.141846 152.595 0.717926 152.595 1.42856V4.96701H76.0359V1.42856Z" fill="#E1EFFE"/>
<path fill-rule="evenodd" clip-rule="evenodd" d="M76.0359 4.96704H152.595V5.28872H76.0359V4.96704Z" fill="#A4CAFE"/>
<path d="M80.861 2.3935C80.861 2.92647 80.4289 3.35853 79.8959 3.35853C79.363 3.35853 78.9309 2.92647 78.9309 2.3935C78.9309 1.86053 79.363 1.42847 79.8959 1.42847C80.4289 1.42847 80.861 1.86053 80.861 2.3935Z" fill="#F9FAFB"/>
<path d="M84.3996 2.3935C84.3996 2.92647 83.9675 3.35853 83.4345 3.35853C82.9015 3.35853 82.4695 2.92647 82.4695 2.3935C82.4695 1.86053 82.9015 1.42847 83.4345 1.42847C83.9675 1.42847 84.3996 1.86053 84.3996 2.3935Z" fill="#F9FAFB"/>
<path d="M87.9379 2.3935C87.9379 2.92647 87.5058 3.35853 86.9728 3.35853C86.4399 3.35853 86.0078 2.92647 86.0078 2.3935C86.0078 1.86053 86.4399 1.42847 86.9728 1.42847C87.5058 1.42847 87.9379 1.86053 87.9379 2.3935Z" fill="#F9FAFB"/>
<path d="M97.1558 14.6615C97.1558 13.9325 97.7467 13.3416 98.4757 13.3416H143.355C144.084 13.3416 144.675 13.9325 144.675 14.6615V31.4914C144.675 32.2204 144.084 32.8114 143.355 32.8114H98.4758C97.7467 32.8114 97.1558 32.2204 97.1558 31.4914V14.6615Z" fill="#E1EFFE"/>
<path d="M111.676 25.5515H116.955V29.1815H111.676V25.5515Z" fill="#A4CAFE"/>
<path d="M118.275 21.2615H123.555V29.1814H118.275V21.2615Z" fill="#A4CAFE"/>
<path d="M124.875 17.3015H130.155V29.1814H124.875V17.3015Z" fill="#A4CAFE"/>
<path d="M84.2859 41.7214C84.2859 40.9923 84.8769 40.4014 85.6059 40.4014H130.485C131.214 40.4014 131.805 40.9923 131.805 41.7214V58.5512C131.805 59.2802 131.214 59.8712 130.485 59.8712H85.6059C84.8769 59.8712 84.2859 59.2802 84.2859 58.5512V41.7214Z" fill="#E1EFFE"/>
<path d="M114.316 50.3012C114.316 53.764 111.508 56.5711 108.046 56.5711C104.583 56.5711 101.776 53.764 101.776 50.3012C101.776 46.8384 104.583 44.0312 108.046 44.0312C111.508 44.0312 114.316 46.8384 114.316 50.3012Z" fill="#F9FAFB"/>
<path d="M107.744 53.8711V46.6711H108.205V53.8711H107.744ZM109.074 48.9746C109.048 48.7289 108.937 48.5377 108.742 48.4008C108.549 48.2639 108.298 48.1955 107.988 48.1955C107.771 48.1955 107.584 48.2283 107.429 48.2939C107.273 48.3596 107.154 48.4486 107.072 48.5611C106.989 48.6736 106.947 48.8021 106.945 48.9464C106.945 49.0664 106.972 49.1705 107.027 49.2586C107.083 49.3467 107.159 49.4217 107.254 49.4836C107.35 49.5436 107.456 49.5942 107.572 49.6355C107.688 49.6767 107.806 49.7114 107.924 49.7396L108.464 49.8745C108.681 49.9252 108.89 49.9936 109.091 50.0799C109.293 50.1661 109.474 50.2749 109.634 50.4061C109.795 50.5374 109.922 50.6958 110.016 50.8814C110.11 51.067 110.157 51.2845 110.157 51.5339C110.157 51.8714 110.071 52.1686 109.898 52.4255C109.726 52.6805 109.476 52.8801 109.15 53.0245C108.826 53.167 108.433 53.2383 107.972 53.2383C107.523 53.2383 107.134 53.1689 106.804 53.0301C106.476 52.8914 106.219 52.6889 106.034 52.4227C105.85 52.1564 105.751 51.832 105.736 51.4495H106.762C106.777 51.6502 106.839 51.817 106.948 51.9502C107.057 52.0833 107.198 52.1827 107.372 52.2483C107.549 52.3139 107.746 52.3467 107.963 52.3467C108.19 52.3467 108.389 52.313 108.559 52.2455C108.732 52.1761 108.867 52.0805 108.964 51.9586C109.062 51.8348 109.112 51.6905 109.113 51.5255C109.112 51.3755 109.067 51.2517 108.981 51.1542C108.895 51.0549 108.774 50.9724 108.618 50.9067C108.465 50.8392 108.285 50.7792 108.078 50.7267L107.423 50.558C106.949 50.4361 106.574 50.2514 106.298 50.0039C106.024 49.7546 105.887 49.4236 105.887 49.0111C105.887 48.6717 105.979 48.3746 106.163 48.1196C106.349 47.8646 106.601 47.6668 106.92 47.5261C107.238 47.3836 107.599 47.3124 108.002 47.3124C108.411 47.3124 108.769 47.3836 109.077 47.5261C109.386 47.6668 109.629 47.8627 109.805 48.1139C109.981 48.3633 110.072 48.6502 110.078 48.9746H109.074Z" fill="#76A9FA"/>
<path d="M97.1558 68.7812C97.1558 68.0522 97.7467 67.4612 98.4757 67.4612H143.355C144.084 67.4612 144.675 68.0522 144.675 68.7812V85.611C144.675 86.34 144.084 86.931 143.355 86.931H98.4758C97.7467 86.931 97.1558 86.34 97.1558 85.611V68.7812Z" fill="#E1EFFE"/>
<path d="M87.5806 74.9111C87.5806 76.2918 86.4613 77.4111 85.0806 77.4111C83.6999 77.4111 82.5806 76.2918 82.5806 74.9111C82.5806 73.5304 83.6999 72.4111 85.0806 72.4111C86.4613 72.4111 87.5806 73.5304 87.5806 74.9111Z" fill="#A4CAFE"/>
<path d="M93.5806 74.9111C93.5806 74.0827 94.2521 73.4111 95.0806 73.4111H158.081C158.909 73.4111 159.581 74.0827 159.581 74.9111C159.581 75.7396 158.909 76.4111 158.081 76.4111H95.0806C94.2521 76.4111 93.5806 75.7396 93.5806 74.9111Z" fill="#A4CAFE"/>
<path d="M87.5806 86.9111C87.5806 88.2918 86.4613 89.4111 85.0806 89.4111C83.6999 89.4111 82.5806 88.2918 82.5806 86.9111C82.5806 85.5304 83.6999 84.4111 85.0806 84.4111C86.4613 84.4111 87.5806 85.5304 87.5806 86.9111Z" fill="#A4CAFE"/>
<path d="M93.5806 86.9111C93.5806 86.0827 94.2521 85.4111 95.0806 85.4111H158.081C158.909 85.4111 159.581 86.0827 159.581 86.9111C159.581 87.7396 158.909 88.4111 158.081 88.4111H95.0806C94.2521 88.4111 93.5806 87.7396 93.5806 86.9111Z" fill="#A4CAFE"/>
<path d="M87.5806 98.9111C87.5806 100.292 86.4613 101.411 85.0806 101.411C83.6999 101.411 82.5806 100.292 82.5806 98.9111C82.5806 97.5304 83.6999 96.4111 85.0806 96.4111C86.4613 96.4111 87.5806 97.5304 87.5806 98.9111Z" fill="#A4CAFE"/>
<path d="M93.5806 98.9111C93.5806 98.0827 94.2521 97.4111 95.0806 97.4111H158.081C158.909 97.4111 159.581 98.0827 159.581 98.9111C159.581 99.7396 158.909 100.411 158.081 100.411H95.0806C94.2521 100.411 93.5806 99.7396 93.5806 98.9111Z" fill="#A4CAFE"/>
<path d="M50.9563 161.84L52.267 172.077L63.6154 175.44L71.3211 174.599C71.5546 174.272 71.9375 173.478 71.6013 172.918C71.1809 172.217 68.7992 171.517 64.8763 169.415C61.738 167.734 59.9696 163.335 59.6427 161.84H50.9563Z" fill="#E1EFFE"/>
<path d="M50.9563 161.84L52.267 172.077L63.6154 175.44L71.3211 174.599C71.5546 174.272 71.9375 173.478 71.6013 172.918C71.1809 172.217 68.7992 171.517 64.8763 169.415C61.738 167.734 59.9696 163.335 59.6427 161.84H50.9563Z" fill="url(#paint1_linear_535_98449)"/>
<path fill-rule="evenodd" clip-rule="evenodd" d="M63.1018 170.766C60.7421 170.011 59.2721 168.253 58.2628 166.273C57.5004 164.778 57.0165 163.192 56.6087 161.84H55.9187C55.9267 161.867 55.9348 161.894 55.9428 161.92L55.9428 161.92C56.3568 163.294 56.8689 164.992 57.6748 166.573C58.728 168.639 60.3104 170.566 62.9007 171.395C64.5975 171.938 66.3031 172.049 67.6813 171.971C68.371 171.931 68.9829 171.844 69.4754 171.737C69.515 171.728 69.5541 171.719 69.5926 171.71C69.4338 171.637 69.2664 171.56 69.0905 171.48C68.9162 171.4 68.7336 171.316 68.5427 171.228C68.2652 171.264 67.9639 171.293 67.6436 171.312C66.3268 171.387 64.705 171.279 63.1018 170.766Z" fill="#76A9FA"/>
<path d="M52.2671 172.077L52.5101 175.48C52.5311 175.773 52.7751 176 53.0691 176H68.7403C70.2582 176 72.2772 175.65 72.06 174.147C71.9913 173.672 71.7902 173.22 71.6013 172.918C71.3211 174.459 70.2003 174.599 66.2774 174.599C62.3545 174.599 59.9728 173.058 57.0306 171.937C54.6769 171.04 52.8742 171.657 52.2671 172.077Z" fill="#374151"/>
<path d="M32.8064 161.84L31.4957 172.077L20.1473 175.44L12.4416 174.599C12.2081 174.272 11.8252 173.478 12.1614 172.918C12.5817 172.217 14.9635 171.517 18.8864 169.415C22.0247 167.734 23.7931 163.335 24.12 161.84H32.8064Z" fill="#E1EFFE"/>
<path d="M32.8064 161.84L31.4957 172.077L20.1473 175.44L12.4416 174.599C12.2081 174.272 11.8252 173.478 12.1614 172.918C12.5817 172.217 14.9635 171.517 18.8864 169.415C22.0247 167.734 23.7931 163.335 24.12 161.84H32.8064Z" fill="url(#paint2_linear_535_98449)"/>
<path fill-rule="evenodd" clip-rule="evenodd" d="M20.6609 170.766C23.0206 170.011 24.4906 168.253 25.4999 166.273C26.2623 164.778 26.7462 163.192 27.154 161.84H27.844C27.836 161.867 27.8279 161.894 27.8199 161.92L27.8199 161.92C27.4058 163.294 26.8938 164.992 26.0879 166.573C25.0347 168.639 23.4523 170.566 20.862 171.395C19.1652 171.938 17.4596 172.049 16.0814 171.971C15.3917 171.931 14.7798 171.844 14.2873 171.737C14.2477 171.728 14.2086 171.719 14.1701 171.71C14.3289 171.637 14.4963 171.56 14.6722 171.48C14.8465 171.4 15.0291 171.316 15.22 171.228C15.4975 171.264 15.7988 171.293 16.1191 171.312C17.4359 171.387 19.0577 171.279 20.6609 170.766Z" fill="#76A9FA"/>
<path d="M31.4956 172.077L31.2526 175.48C31.2316 175.773 30.9876 176 30.6936 176H15.0223C13.5045 176 11.4855 175.65 11.7027 174.147C11.7714 173.672 11.9725 173.22 12.1614 172.918C12.4416 174.459 13.5624 174.599 17.4853 174.599C21.4082 174.599 23.7899 173.058 26.7321 171.937C29.0858 171.04 30.8885 171.657 31.4956 172.077Z" fill="#374151"/>
<path d="M65.0753 161.941L55.4112 63.1711H32.9714L18.7254 161.911C18.668 162.309 18.9766 162.665 19.3786 162.665H34.6973C35.0308 162.665 35.3119 162.416 35.3524 162.085L44.0263 91.2209L49.2611 162.054C49.2866 162.399 49.5737 162.665 49.9193 162.665H64.4184C64.8083 162.665 65.1132 162.329 65.0753 161.941Z" fill="#1C64F2"/>
<path d="M65.0753 161.941L55.4112 63.1711H32.9714L18.7254 161.911C18.668 162.309 18.9766 162.665 19.3786 162.665H34.6973C35.0308 162.665 35.3119 162.416 35.3524 162.085L44.0263 91.2209L49.2611 162.054C49.2866 162.399 49.5737 162.665 49.9193 162.665H64.4184C64.8083 162.665 65.1132 162.329 65.0753 161.941Z" fill="url(#paint3_linear_535_98449)"/>
<path d="M44.0263 91.2209L35.3524 162.085C35.3119 162.417 35.0308 162.665 34.6973 162.665H29.0115L44.0263 91.2209Z" fill="url(#paint4_linear_535_98449)"/>
<path fill-rule="evenodd" clip-rule="evenodd" d="M48.9864 158.705H64.7588L64.6942 158.045H48.933L48.9864 158.705ZM35.8998 158.045H19.2832L19.188 158.705H35.8115L35.8998 158.045Z" fill="#E1EFFE"/>
<path fill-rule="evenodd" clip-rule="evenodd" d="M32.6668 69.1101C33.4166 69.0524 34.6093 68.8129 35.7883 68.2817C36.9662 67.7509 38.163 66.9138 38.8699 65.6413L38.293 65.3208C37.68 66.4243 36.6218 67.1822 35.5172 67.6799C34.4137 68.1771 33.2965 68.3997 32.6162 68.452L32.6668 69.1101ZM55.221 69.1101C54.4713 69.0524 53.2785 68.8129 52.0995 68.2817C50.9216 67.7509 49.7248 66.9138 49.0179 65.6413L49.5948 65.3208C50.2078 66.4243 51.266 67.1822 52.3706 67.6799C53.4741 68.1771 54.5913 68.3997 55.2716 68.452L55.221 69.1101Z" fill="#1C64F2"/>
<path d="M33.7707 101.451C33.7707 109.47 27.2699 115.971 19.2508 115.971C11.2317 115.971 4.73096 109.47 4.73096 101.451C4.73096 93.4319 11.2317 86.9312 19.2508 86.9312C27.2699 86.9312 33.7707 93.4319 33.7707 101.451Z" fill="#E1EFFE"/>
<path fill-rule="evenodd" clip-rule="evenodd" d="M19.2508 115.311C26.9054 115.311 33.1107 109.106 33.1107 101.451C33.1107 93.7964 26.9054 87.5911 19.2508 87.5911C11.5962 87.5911 5.39095 93.7964 5.39095 101.451C5.39095 109.106 11.5962 115.311 19.2508 115.311ZM19.2508 115.971C27.2699 115.971 33.7707 109.47 33.7707 101.451C33.7707 93.4319 27.2699 86.9312 19.2508 86.9312C11.2317 86.9312 4.73096 93.4319 4.73096 101.451C4.73096 109.47 11.2317 115.971 19.2508 115.971Z" fill="#76A9FA"/>
<path fill-rule="evenodd" clip-rule="evenodd" d="M19.2507 87.9211C19.4329 87.9211 19.5806 88.0689 19.5806 88.2511V89.5711C19.5806 89.7534 19.4329 89.9011 19.2507 89.9011C19.0684 89.9011 18.9207 89.7534 18.9207 89.5711V88.2511C18.9207 88.0689 19.0684 87.9211 19.2507 87.9211Z" fill="#A4CAFE"/>
<path fill-rule="evenodd" clip-rule="evenodd" d="M19.2507 113.001C19.4329 113.001 19.5806 113.149 19.5806 113.331V114.651C19.5806 114.833 19.4329 114.981 19.2507 114.981C19.0684 114.981 18.9207 114.833 18.9207 114.651V113.331C18.9207 113.149 19.0684 113.001 19.2507 113.001Z" fill="#A4CAFE"/>
<path fill-rule="evenodd" clip-rule="evenodd" d="M32.9456 101.286C32.9456 101.468 32.7978 101.616 32.6156 101.616L31.2791 101.616C31.0968 101.616 30.9491 101.468 30.9491 101.286C30.9491 101.104 31.0968 100.956 31.2791 100.956L32.6156 100.956C32.7978 100.956 32.9456 101.104 32.9456 101.286Z" fill="#A4CAFE"/>
<path fill-rule="evenodd" clip-rule="evenodd" d="M7.55225 101.286C7.55225 101.468 7.4045 101.616 7.22225 101.616L5.88576 101.616C5.70351 101.616 5.55576 101.468 5.55576 101.286C5.55576 101.104 5.70351 100.956 5.88576 100.956L7.22225 100.956C7.4045 100.956 7.55225 101.104 7.55225 101.286Z" fill="#A4CAFE"/>
<path fill-rule="evenodd" clip-rule="evenodd" d="M28.8178 91.884C28.9467 92.0128 28.9467 92.2218 28.8178 92.3507L27.8844 93.284C27.7556 93.4129 27.5466 93.4129 27.4178 93.284C27.2889 93.1552 27.2889 92.9462 27.4178 92.8174L28.3511 91.884C28.48 91.7551 28.6889 91.7551 28.8178 91.884Z" fill="#A4CAFE"/>
<path fill-rule="evenodd" clip-rule="evenodd" d="M11.0837 109.618C11.2126 109.747 11.2126 109.956 11.0837 110.085L10.1503 111.018C10.0214 111.147 9.8125 111.147 9.68363 111.018C9.55475 110.889 9.55475 110.68 9.68363 110.551L10.617 109.618C10.7459 109.489 10.9548 109.489 11.0837 109.618Z" fill="#A4CAFE"/>
<path fill-rule="evenodd" clip-rule="evenodd" d="M29.0513 111.018C28.9225 111.147 28.7135 111.147 28.5846 111.018L27.6396 110.073C27.5107 109.944 27.5107 109.735 27.6396 109.607C27.7685 109.478 27.9774 109.478 28.1063 109.607L29.0513 110.552C29.1802 110.68 29.1802 110.889 29.0513 111.018Z" fill="#A4CAFE"/>
<path fill-rule="evenodd" clip-rule="evenodd" d="M11.0955 93.0624C10.9666 93.1913 10.7577 93.1913 10.6288 93.0624L9.68379 92.1174C9.55492 91.9885 9.55492 91.7796 9.68379 91.6507C9.81266 91.5218 10.0216 91.5218 10.1505 91.6507L11.0955 92.5958C11.2244 92.7246 11.2244 92.9336 11.0955 93.0624Z" fill="#A4CAFE"/>
<path fill-rule="evenodd" clip-rule="evenodd" d="M19.2509 92.541C19.4331 92.541 19.5809 92.6888 19.5809 92.871V101.121H24.3658C24.5481 101.121 24.6958 101.269 24.6958 101.451C24.6958 101.633 24.5481 101.781 24.3658 101.781H18.9209V92.871C18.9209 92.6888 19.0686 92.541 19.2509 92.541Z" fill="#A4CAFE"/>
<path d="M19.1119 76.0411C19.9039 67.5932 22.3019 55.5813 23.4019 50.6313L29.1767 52.1163L22.4118 81.3211V88.9661C22.4118 89.209 22.2148 89.406 21.9719 89.406C21.7514 89.406 21.565 89.2428 21.5359 89.0243L21.2568 86.931C21.2018 89.186 20.3656 92.805 18.7816 91.221C16.8016 89.241 18.1219 86.601 19.1119 76.0411Z" fill="#FDBA8C"/>
<path d="M19.1119 76.0411C19.9039 67.5932 22.3019 55.5813 23.4019 50.6313L29.1767 52.1163L22.4118 81.3211V88.9661C22.4118 89.209 22.2148 89.406 21.9719 89.406C21.7514 89.406 21.565 89.2428 21.5359 89.0243L21.2568 86.931C21.2018 89.186 20.3656 92.805 18.7816 91.221C16.8016 89.241 18.1219 86.601 19.1119 76.0411Z" fill="url(#paint5_linear_535_98449)"/>
<path d="M69.7662 32.1515L65.6413 31.4915L58.3813 37.1014C60.8013 37.9264 66.4663 39.4444 69.7662 38.9164C72.9734 38.4032 87.35 26.835 94.7195 20.6311C95.1128 20.3 95.6345 20.1798 96.1453 20.2379C98.3452 20.4881 101.143 20.0055 101.611 18.9516C102.271 17.4666 98.146 16.1466 95.011 16.8066C92.503 17.3346 77.1362 27.2565 69.7662 32.1515Z" fill="#FDBA8C"/>
<path d="M69.7662 32.1515L65.6413 31.4915L58.3813 37.1014C60.8013 37.9264 66.4663 39.4444 69.7662 38.9164C72.9734 38.4032 87.35 26.835 94.7195 20.6311C95.1128 20.3 95.6345 20.1798 96.1453 20.2379C98.3452 20.4881 101.143 20.0055 101.611 18.9516C102.271 17.4666 98.146 16.1466 95.011 16.8066C92.503 17.3346 77.1362 27.2565 69.7662 32.1515Z" fill="url(#paint6_linear_535_98449)"/>
<path d="M31.3215 55.0863L20.4316 51.6213C21.2016 47.6063 23.6656 38.2234 27.3616 32.8115C31.0575 27.3995 36.8882 25.8266 39.3416 25.7166H46.6664L66.7962 30.8315L64.9812 42.8764L55.7413 41.5564L56.4013 63.8312H31.8165L31.3215 55.0863Z" fill="#F9FAFB"/>
<path fill-rule="evenodd" clip-rule="evenodd" d="M20.4316 51.6212L31.3215 55.0862L30.4965 39.2463H24.0752C22.203 43.9148 20.9433 48.9532 20.4316 51.6212Z" fill="url(#paint7_linear_535_98449)"/>
<path fill-rule="evenodd" clip-rule="evenodd" d="M66.1459 35.1472L64.9812 42.8764L55.7413 41.5564L55.2463 32.8115L66.1459 35.1472Z" fill="url(#paint8_linear_535_98449)"/>
<path d="M45.2027 9.4976C44.0149 12.742 42.2428 19.93 40.2315 20.1066C35.6114 19.1826 35.6665 16.4216 36.2716 15.1567C35.9966 15.1567 35.2486 14.9257 34.4566 14.0017C33.6646 13.0777 34.1266 11.7467 34.4566 11.1967C33.3566 10.6303 31.4206 9.04541 32.4766 7.23666C33.5326 5.4279 35.9966 5.05307 37.0966 5.09174C36.8216 4.43173 36.6676 2.84771 38.2515 1.79172C39.8355 0.735725 41.6615 1.6817 42.3765 2.28669C42.6515 1.7367 43.6017 0.80171 45.2027 1.4617C46.8037 2.1217 46.8456 3.38672 46.6664 3.93672C47.3814 3.8267 48.8775 4.13463 49.1415 6.24661C49.4055 8.35859 47.1615 9.87658 46.0065 10.3716L45.2027 9.4976Z" fill="#111928"/>
<path d="M38.0864 25.8815L39.4064 25.5515L40.0052 14.6716L44.8514 18.1266L45.3464 25.3865L46.6663 25.7265Lnan nanL46.6663 25.7265C44.679 28.1601 41.0739 28.4707 38.6996 26.4129L38.0864 25.8815Z" fill="#FDBA8C"/>
<path d="M38.0864 25.8815L39.4064 25.5515L40.0052 14.6716L44.8514 18.1266L45.3464 25.3865L46.6663 25.7265Lnan nanL46.6663 25.7265C44.679 28.1601 41.0739 28.4707 38.6996 26.4129L38.0864 25.8815Z" fill="url(#paint9_linear_535_98449)"/>
<path d="M45.8122 19.0267C48.4497 17.9895 47.3446 11.634 46.2973 8.58591C43.5314 6.90679 42.3268 12.9985 41.1052 12.0338C40.2761 11.379 38.2242 9.55817 38.5909 12.2546C38.9576 14.951 42.5152 20.3232 45.8122 19.0267Z" fill="#FDBA8C"/>
<path d="M44.6198 12.1795C44.5679 12.3618 44.6736 12.5516 44.8558 12.6035C45.0381 12.6554 45.2279 12.5497 45.2798 12.3674C45.3317 12.1851 45.226 11.9953 45.0437 11.9434C44.8615 11.8915 44.6716 11.9972 44.6198 12.1795Z" fill="#111928"/>
<path fill-rule="evenodd" clip-rule="evenodd" d="M45.012 10.9474C45.2543 10.9592 45.4475 11.0686 45.6285 11.2195C45.6985 11.2778 45.8025 11.2684 45.8609 11.1984C45.9192 11.1284 45.9098 11.0243 45.8398 10.966C45.6307 10.7917 45.3705 10.6344 45.028 10.6178C44.6872 10.6014 44.2937 10.7255 43.818 11.0519C43.7429 11.1035 43.7238 11.2062 43.7753 11.2813C43.8269 11.3564 43.9296 11.3756 44.0047 11.324C44.4452 11.0217 44.768 10.9356 45.012 10.9474Z" fill="#111928"/>
<path fill-rule="evenodd" clip-rule="evenodd" d="M46.3284 12.1606C46.2403 12.1838 46.1877 12.2741 46.211 12.3622L46.7901 14.5572C46.8004 14.5964 46.772 14.6352 46.7315 14.6372L45.7602 14.6848C45.6692 14.6893 45.599 14.7667 45.6035 14.8577C45.6079 14.9487 45.6853 15.0189 45.7764 15.0144L46.7477 14.9668C46.9978 14.9545 47.173 14.7151 47.1092 14.473L46.5301 12.278C46.5068 12.1899 46.4165 12.1374 46.3284 12.1606Z" fill="#111928"/>
<path d="M46.6085 17.3035C44.9371 17.4253 44.1662 16.6388 43.8957 15.5284L46.7692 15.8452L46.6085 17.3035Z" fill="white"/>
<path fill-rule="evenodd" clip-rule="evenodd" d="M39.7292 12.9222C39.66 12.6898 39.6993 12.4712 39.7817 12.2505C39.8136 12.1651 39.7702 12.0701 39.6848 12.0382C39.5995 12.0063 39.5044 12.0497 39.4725 12.1351C39.3774 12.3901 39.3151 12.6877 39.4129 13.0164C39.5103 13.3434 39.7577 13.6736 40.2233 14.0143C40.2968 14.0681 40.4001 14.0521 40.4539 13.9786C40.5077 13.905 40.4917 13.8018 40.4182 13.748C39.9871 13.4325 39.7989 13.1565 39.7292 12.9222Z" fill="#111928"/>
<path d="M120.895 146.285L119.74 154.865H122.875C125.79 149.475 131.257 138.563 129.805 138.035C128.353 137.507 123.26 143.315 120.895 146.285Z" fill="#E1EFFE"/>
<path d="M120.895 146.285L119.74 154.865H122.875C125.79 149.475 131.257 138.563 129.805 138.035C128.353 137.507 123.26 143.315 120.895 146.285Z" fill="url(#paint10_linear_535_98449)"/>
<path d="M105.715 138.695C105.187 141.071 108.905 150.905 110.83 155.525H114.79L114.295 150.08C111.655 145.295 106.243 136.319 105.715 138.695Z" fill="#E1EFFE"/>
<path d="M105.715 138.695C105.187 141.071 108.905 150.905 110.83 155.525H114.79L114.295 150.08C111.655 145.295 106.243 136.319 105.715 138.695Z" fill="url(#paint11_linear_535_98449)"/>
<path d="M112.315 116.255C110.203 118.103 112.645 143.535 114.13 156.02H117.925L118.585 150.245C117.375 138.145 114.427 114.407 112.315 116.255Z" fill="#E1EFFE"/>
<path d="M112.315 116.255C110.203 118.103 112.645 143.535 114.13 156.02H117.925L118.585 150.245C117.375 138.145 114.427 114.407 112.315 116.255Z" fill="url(#paint12_linear_535_98449)"/>
<path d="M125.185 99.9206C121.225 105.069 117.925 139.575 116.77 156.185H120.07C121.28 151.565 123.997 140.972 125.185 135.56C126.67 128.795 130.135 93.4857 125.185 99.9206Z" fill="#E1EFFE"/>
<path d="M129.825 154.499C129.837 154.338 129.538 154.205 129.164 154.205H105.737C105.364 154.205 105.064 154.338 105.076 154.499L106.614 175.709C106.625 175.863 106.918 175.985 107.275 175.985H127.627C127.984 175.985 128.276 175.863 128.287 175.709L129.825 154.499Z" fill="#E1EFFE"/>
<path d="M129.825 154.499C129.837 154.338 129.538 154.205 129.164 154.205H105.737C105.364 154.205 105.064 154.338 105.076 154.499L106.614 175.709C106.625 175.863 106.918 175.985 107.275 175.985H127.627C127.984 175.985 128.276 175.863 128.287 175.709L129.825 154.499Z" fill="url(#paint13_linear_535_98449)"/>
<defs>
<linearGradient id="paint0_linear_535_98449" x1="114.316" y1="165.123" x2="114.316" y2="0.267633" gradientUnits="userSpaceOnUse">
<stop stop-color="#A4CAFE"/>
<stop offset="1" stop-color="#A4CAFE" stop-opacity="0"/>
</linearGradient>
<linearGradient id="paint1_linear_535_98449" x1="68.7992" y1="162.13" x2="68.7627" y2="169.937" gradientUnits="userSpaceOnUse">
<stop stop-color="#A4CAFE"/>
<stop offset="1" stop-color="#A4CAFE" stop-opacity="0"/>
</linearGradient>
<linearGradient id="paint2_linear_535_98449" x1="14.9635" y1="162.13" x2="15" y2="169.937" gradientUnits="userSpaceOnUse">
<stop stop-color="#A4CAFE"/>
<stop offset="1" stop-color="#A4CAFE" stop-opacity="0"/>
</linearGradient>
<linearGradient id="paint3_linear_535_98449" x1="41.8814" y1="25.0565" x2="41.8814" y2="96.8308" gradientUnits="userSpaceOnUse">
<stop stop-color="#111928"/>
<stop offset="1" stop-color="#3C598E" stop-opacity="0"/>
</linearGradient>
<linearGradient id="paint4_linear_535_98449" x1="41.2214" y1="183.125" x2="10.8571" y2="139.584" gradientUnits="userSpaceOnUse">
<stop stop-color="#111928"/>
<stop offset="1" stop-color="#111928" stop-opacity="0"/>
</linearGradient>
<linearGradient id="paint5_linear_535_98449" x1="38.7464" y1="13.1767" x2="1.37137" y2="57.4062" gradientUnits="userSpaceOnUse">
<stop stop-color="#7F270F"/>
<stop offset="1" stop-color="#7F270F" stop-opacity="0"/>
</linearGradient>
<linearGradient id="paint6_linear_535_98449" x1="-4.49998" y1="74.7506" x2="0.054366" y2="18.0027" gradientUnits="userSpaceOnUse">
<stop stop-color="#7F270F"/>
<stop offset="1" stop-color="#7F270F" stop-opacity="0"/>
</linearGradient>
<linearGradient id="paint7_linear_535_98449" x1="32.6415" y1="59.5412" x2="23.2684" y2="54.0424" gradientUnits="userSpaceOnUse">
<stop stop-color="#A4CAFE"/>
<stop offset="1" stop-color="#A4CAFE" stop-opacity="0"/>
</linearGradient>
<linearGradient id="paint8_linear_535_98449" x1="54.2563" y1="47.9914" x2="53.67" y2="35.6778" gradientUnits="userSpaceOnUse">
<stop stop-color="#A4CAFE"/>
<stop offset="1" stop-color="#A4CAFE" stop-opacity="0"/>
</linearGradient>
<linearGradient id="paint9_linear_535_98449" x1="47.4913" y1="12.0217" x2="36.7664" y2="20.1066" gradientUnits="userSpaceOnUse">
<stop stop-color="#7F270F"/>
<stop offset="1" stop-color="#7F270F" stop-opacity="0"/>
</linearGradient>
<linearGradient id="paint10_linear_535_98449" x1="103.57" y1="165.26" x2="127" y2="143.645" gradientUnits="userSpaceOnUse">
<stop stop-color="#76A9FA"/>
<stop offset="1" stop-color="#76A9FA" stop-opacity="0"/>
</linearGradient>
<linearGradient id="paint11_linear_535_98449" x1="127.495" y1="161.96" x2="104.876" y2="149.947" gradientUnits="userSpaceOnUse">
<stop stop-color="#76A9FA"/>
<stop offset="1" stop-color="#76A9FA" stop-opacity="0"/>
</linearGradient>
<linearGradient id="paint12_linear_535_98449" x1="138.054" y1="166.085" x2="110.876" y2="143.122" gradientUnits="userSpaceOnUse">
<stop stop-color="#76A9FA"/>
<stop offset="1" stop-color="#76A9FA" stop-opacity="0"/>
</linearGradient>
<linearGradient id="paint13_linear_535_98449" x1="75.3047" y1="168.982" x2="131.994" y2="168.748" gradientUnits="userSpaceOnUse">
<stop stop-color="#76A9FA"/>
<stop offset="1" stop-color="#76A9FA" stop-opacity="0"/>
</linearGradient>
</defs>
</svg>
