<svg width="181" height="176" viewBox="0 0 181 176" fill="none" xmlns="http://www.w3.org/2000/svg">
<path d="M61.324 12.2648C61.324 5.49114 66.8151 0 73.5888 0H125.101C131.875 0 137.366 5.49114 137.366 12.2648V147.484C137.366 154.258 131.875 159.749 125.101 159.749H73.5888C66.8151 159.749 61.324 154.258 61.324 147.484V12.2648Z" fill="#E1EFFE"/>
<path d="M61.324 12.2648C61.324 5.49114 66.8151 0 73.5888 0H125.101C131.875 0 137.366 5.49114 137.366 12.2648V147.484C137.366 154.258 131.875 159.749 125.101 159.749H73.5888C66.8151 159.749 61.324 154.258 61.324 147.484V12.2648Z" fill="url(#paint0_linear_535_98454)"/>
<path fill-rule="evenodd" clip-rule="evenodd" d="M125.101 3.0662H73.5888C68.5085 3.0662 64.3902 7.18456 64.3902 12.2648V147.484C64.3902 152.565 68.5085 156.683 73.5888 156.683H125.101C130.181 156.683 134.3 152.565 134.3 147.484V12.2648C134.3 7.18456 130.181 3.0662 125.101 3.0662ZM73.5888 0C66.8151 0 61.324 5.49114 61.324 12.2648V147.484C61.324 154.258 66.8151 159.749 73.5888 159.749H125.101C131.875 159.749 137.366 154.258 137.366 147.484V12.2648C137.366 5.49114 131.875 0 125.101 0H73.5888Z" fill="#A0C5FC"/>
<path d="M89.8396 8.27867C89.8396 7.09327 90.8005 6.13232 91.9859 6.13232H107.01C108.196 6.13232 109.157 7.09327 109.157 8.27867C109.157 9.46406 108.196 10.425 107.01 10.425H91.9859C90.8005 10.425 89.8396 9.46406 89.8396 8.27867Z" fill="#1C64F2" fill-opacity="0.2"/>
<path d="M74.2021 24.5296C74.2021 22.8362 75.5749 21.4634 77.2684 21.4634H122.648C124.342 21.4634 125.714 22.8362 125.714 24.5296V48.7526C125.714 50.446 124.342 51.8188 122.648 51.8188H77.2684C75.5749 51.8188 74.2021 50.446 74.2021 48.7526V24.5296Z" fill="#F9FAFB"/>
<path fill-rule="evenodd" clip-rule="evenodd" d="M125.714 26.0627H74.2021V25.4495H125.714V26.0627Z" fill="#C3DDFD"/>
<path d="M80.6411 38.4809C80.6411 37.8882 81.1216 37.4077 81.7143 37.4077H88.1533C88.746 37.4077 89.2265 37.8882 89.2265 38.4809C89.2265 39.0736 88.746 39.5541 88.1533 39.5541H81.7143C81.1216 39.5541 80.6411 39.0736 80.6411 38.4809Z" fill="#E1EFFE"/>
<path d="M90.7595 38.4809C90.7595 37.8882 91.24 37.4077 91.8327 37.4077H98.2717C98.8644 37.4077 99.3449 37.8882 99.3449 38.4809C99.3449 39.0736 98.8644 39.5541 98.2717 39.5541H91.8327C91.24 39.5541 90.7595 39.0736 90.7595 38.4809Z" fill="#E1EFFE"/>
<path d="M100.878 38.4809C100.878 37.8882 101.358 37.4077 101.951 37.4077H108.39C108.983 37.4077 109.463 37.8882 109.463 38.4809C109.463 39.0736 108.983 39.5541 108.39 39.5541H101.951C101.358 39.5541 100.878 39.0736 100.878 38.4809Z" fill="#E1EFFE"/>
<path d="M110.997 38.4809C110.997 37.8882 111.477 37.4077 112.07 37.4077H118.509C119.101 37.4077 119.582 37.8882 119.582 38.4809C119.582 39.0736 119.101 39.5541 118.509 39.5541H112.07C111.477 39.5541 110.997 39.0736 110.997 38.4809Z" fill="#E1EFFE"/>
<mask id="mask0_535_98454" style="mask-type:alpha" maskUnits="userSpaceOnUse" x="110" y="43" width="10" height="6">
<path fill-rule="evenodd" clip-rule="evenodd" d="M114.983 48.1775C115.658 47.6728 116.093 46.882 116.093 45.993C116.093 45.104 115.658 44.3132 114.983 43.8085C115.465 43.4479 116.07 43.2334 116.727 43.2334C118.304 43.2334 119.582 44.4689 119.582 45.993C119.582 47.5171 118.304 48.7526 116.727 48.7526C116.07 48.7526 115.465 48.538 114.983 48.1775ZM114.983 48.1775C114.5 48.538 113.895 48.7526 113.238 48.7526C111.661 48.7526 110.383 47.5171 110.383 45.993C110.383 44.4689 111.661 43.2334 113.238 43.2334C113.895 43.2334 114.5 43.4479 114.983 43.8085C114.307 44.3132 113.872 45.104 113.872 45.993C113.872 46.882 114.307 47.6728 114.983 48.1775Z" fill="#A4CAFE"/>
</mask>
<g mask="url(#mask0_535_98454)">
<path d="M108.85 43.2334H114.982V50.8989H108.85V43.2334Z" fill="#E1EFFE"/>
</g>
<path fill-rule="evenodd" clip-rule="evenodd" d="M114.983 48.1775C115.658 47.6728 116.093 46.882 116.093 45.993C116.093 45.104 115.658 44.3132 114.983 43.8085C115.465 43.4479 116.07 43.2334 116.727 43.2334C118.304 43.2334 119.582 44.4689 119.582 45.993C119.582 47.5171 118.304 48.7526 116.727 48.7526C116.07 48.7526 115.465 48.538 114.983 48.1775ZM114.983 48.1775C114.5 48.538 113.895 48.7526 113.238 48.7526C111.661 48.7526 110.383 47.5171 110.383 45.993C110.383 44.4689 111.661 43.2334 113.238 43.2334C113.895 43.2334 114.5 43.4479 114.983 43.8085C114.307 44.3132 113.872 45.104 113.872 45.993C113.872 46.882 114.307 47.6728 114.983 48.1775Z" fill="#A4CAFE"/>
<path d="M54.2717 161.589C54.2717 160.573 55.0954 159.749 56.1114 159.749H142.578C143.594 159.749 144.418 160.573 144.418 161.589V174.16C144.418 175.176 143.594 176 142.578 176H56.1114C55.0954 176 54.2717 175.176 54.2717 174.16V161.589Z" fill="#E1EFFE"/>
<path d="M54.2717 161.589C54.2717 160.573 55.0954 159.749 56.1114 159.749H142.578C143.594 159.749 144.418 160.573 144.418 161.589V174.16C144.418 175.176 143.594 176 142.578 176H56.1114C55.0954 176 54.2717 175.176 54.2717 174.16V161.589Z" fill="url(#paint1_linear_535_98454)"/>
<path fill-rule="evenodd" clip-rule="evenodd" d="M161.363 107.897C161.363 108.615 161.494 109.303 161.733 109.937C161.931 110.465 161.795 111.084 161.364 111.448C159.413 113.095 158.174 115.559 158.174 118.312C158.174 119.286 158.33 120.224 158.617 121.103C158.765 121.559 158.64 122.067 158.284 122.388C155.606 124.8 153.923 128.294 153.923 132.182C153.923 139.46 159.824 145.361 167.102 145.361C174.38 145.361 180.281 139.46 180.281 132.182C180.281 128.331 178.629 124.866 175.995 122.456C175.641 122.132 175.52 121.623 175.672 121.168C175.973 120.271 176.136 119.311 176.136 118.312C176.136 115.559 174.897 113.095 172.946 111.448C172.515 111.084 172.379 110.465 172.578 109.937C172.817 109.303 172.947 108.615 172.947 107.897C172.947 104.698 170.354 102.104 167.155 102.104C163.956 102.104 161.363 104.698 161.363 107.897Z" fill="#E1EFFE"/>
<path fill-rule="evenodd" clip-rule="evenodd" d="M167.208 107.537C167.039 107.537 166.902 107.674 166.902 107.844L166.902 158.752C166.902 158.921 167.039 159.059 167.208 159.059C167.378 159.059 167.515 158.921 167.515 158.752L167.515 107.844C167.515 107.674 167.378 107.537 167.208 107.537Z" fill="#76A9FA"/>
<path fill-rule="evenodd" clip-rule="evenodd" d="M161.185 130.551C161.047 130.649 161.015 130.841 161.113 130.979L166.959 139.162C167.057 139.3 167.249 139.332 167.386 139.233C167.524 139.135 167.556 138.943 167.458 138.806L161.612 130.622C161.514 130.484 161.322 130.452 161.185 130.551Z" fill="#76A9FA"/>
<path fill-rule="evenodd" clip-rule="evenodd" d="M173.232 117.903C173.37 118.002 173.402 118.193 173.303 118.331L167.458 126.515C167.359 126.652 167.168 126.684 167.03 126.586C166.892 126.487 166.86 126.296 166.959 126.158L172.804 117.975C172.903 117.837 173.094 117.805 173.232 117.903Z" fill="#76A9FA"/>
<path d="M175.47 151.421C175.485 151.072 175.207 150.781 174.857 150.781H159.453C159.104 150.781 158.825 151.072 158.84 151.421L159.849 174.426C159.864 174.754 160.134 175.013 160.462 175.013H173.848C174.177 175.013 174.447 174.754 174.461 174.426L175.47 151.421Z" fill="#E1EFFE"/>
<path d="M175.47 151.421C175.485 151.072 175.207 150.781 174.857 150.781H159.453C159.104 150.781 158.825 151.072 158.84 151.421L159.849 174.426C159.864 174.754 160.134 175.013 160.462 175.013H173.848C174.177 175.013 174.447 174.754 174.461 174.426L175.47 151.421Z" fill="url(#paint2_linear_535_98454)"/>
<path d="M78.1883 97.6587C78.1883 85.2121 88.2783 75.1221 100.725 75.1221C113.172 75.1221 123.261 85.2121 123.261 97.6587C123.261 110.105 113.172 120.195 100.725 120.195C88.2783 120.195 78.1883 110.105 78.1883 97.6587Z" fill="#F9FAFB"/>
<path fill-rule="evenodd" clip-rule="evenodd" d="M108.574 91.0899C109.239 91.6148 109.352 92.5789 108.827 93.2433L100.545 103.726C99.735 104.752 98.2037 104.821 97.304 103.873L92.7136 99.0345C92.1309 98.4203 92.1564 97.4499 92.7706 96.8672C93.3849 96.2844 94.3553 96.3099 94.938 96.9241L98.7976 100.992L106.421 91.3426C106.946 90.6782 107.91 90.5651 108.574 91.0899Z" fill="#0E9F6E"/>
<path d="M2.45296 162.662L0 174.16H18.0906C18.0906 171.401 12.1561 170.552 10.5784 168.028C9.81185 166.801 9.70964 164.042 9.81185 162.662H2.45296Z" fill="#1F2A37"/>
<path fill-rule="evenodd" clip-rule="evenodd" d="M3.83265 170.174C4.42535 170.174 4.90582 169.694 4.90582 169.101C4.90582 168.509 4.42535 168.028 3.83265 168.028C3.23996 168.028 2.75948 168.509 2.75948 169.101C2.75948 169.694 3.23996 170.174 3.83265 170.174ZM3.83265 170.788C4.76403 170.788 5.51906 170.033 5.51906 169.101C5.51906 168.17 4.76403 167.415 3.83265 167.415C2.90127 167.415 2.14624 168.17 2.14624 169.101C2.14624 170.033 2.90127 170.788 3.83265 170.788Z" fill="#6B7280"/>
<path fill-rule="evenodd" clip-rule="evenodd" d="M13.0492 170.029L12.7708 170.308C11.6783 171.4 10.1965 172.014 8.65136 172.014H0.457729L0.326904 172.627H8.65136C10.3591 172.627 11.9969 171.949 13.2044 170.741L13.6139 170.332C13.4234 170.232 13.2345 170.132 13.0492 170.029Z" fill="#6B7280"/>
<path d="M0 174.16H18.0906V175.387C18.0906 175.726 17.816 176 17.4774 176H0.61324C0.274557 176 0 175.726 0 175.387V174.16Z" fill="#1A56DB"/>
<path d="M30.6621 162.662V174.16H48.7527C48.7527 171.401 42.6203 170.174 40.1673 168.488C38.205 167.139 37.9188 164.042 38.021 162.662H30.6621Z" fill="#374151"/>
<path d="M30.6621 174.16H48.7527V175.387C48.7527 175.726 48.4781 176 48.1395 176H31.2753C30.9367 176 30.6621 175.726 30.6621 175.387V174.16Z" fill="#1C64F2"/>
<path fill-rule="evenodd" clip-rule="evenodd" d="M33.8817 170.174C34.4744 170.174 34.9549 169.694 34.9549 169.101C34.9549 168.509 34.4744 168.028 33.8817 168.028C33.289 168.028 32.8086 168.509 32.8086 169.101C32.8086 169.694 33.289 170.174 33.8817 170.174ZM33.8817 170.788C34.8131 170.788 35.5681 170.033 35.5681 169.101C35.5681 168.17 34.8131 167.415 33.8817 167.415C32.9503 167.415 32.1953 168.17 32.1953 169.101C32.1953 170.033 32.9503 170.788 33.8817 170.788Z" fill="#6B7280"/>
<path fill-rule="evenodd" clip-rule="evenodd" d="M43.3819 170.052L43.1264 170.308C42.0339 171.4 40.5521 172.014 39.007 172.014H30.6621V172.627H39.007C40.7147 172.627 42.3525 171.949 43.5601 170.741L43.9923 170.309C43.8018 170.228 43.6112 170.148 43.4218 170.069C43.4085 170.063 43.3952 170.058 43.3819 170.052Z" fill="#6B7280"/>
<path d="M28.2994 163.04L21.3101 102.871L13.2559 163.05C13.2151 163.355 12.9553 163.582 12.648 163.582H0.832786C0.469319 163.582 0.185613 163.268 0.222756 162.906L9.96517 68.0698H32.5018L41.0271 162.914C41.0593 163.273 40.7766 163.582 40.4163 163.582H28.9085C28.5972 163.582 28.3353 163.349 28.2994 163.04Z" fill="#1C64F2"/>
<path fill-rule="evenodd" clip-rule="evenodd" d="M8.17773 163.582L19.4703 87.8469L21.3002 102.944L13.2557 163.05C13.215 163.355 12.9552 163.582 12.6479 163.582H8.17773ZM21.7377 106.554L22.526 113.34L22.5365 113.143L21.7377 106.554Z" fill="url(#paint3_linear_535_98454)"/>
<path fill-rule="evenodd" clip-rule="evenodd" d="M21.77 74.8154V79.7213C21.77 81.7534 23.4173 83.4008 25.4494 83.4008C27.4815 83.4008 29.1289 81.7534 29.1289 79.7213V74.8154H21.77ZM21.7339 74.2021C21.4151 74.2021 21.1567 74.4606 21.1567 74.7793V79.7213C21.1567 82.0921 23.0786 84.014 25.4494 84.014C27.8202 84.014 29.7421 82.0921 29.7421 79.7213V74.7793C29.7421 74.4606 29.4837 74.2021 29.1649 74.2021H21.7339Z" fill="#C3DDFD" fill-opacity="0.4"/>
<path fill-rule="evenodd" clip-rule="evenodd" d="M10.7316 74.8154V80.0279C10.7316 81.8907 12.2417 83.4008 14.1045 83.4008C15.9672 83.4008 17.4773 81.8907 17.4773 80.0279V74.8154H10.7316ZM10.6956 74.2021C10.3768 74.2021 10.1184 74.4606 10.1184 74.7793V80.0279C10.1184 82.2294 11.903 84.014 14.1045 84.014C16.3059 84.014 18.0905 82.2294 18.0905 80.0279V74.7793C18.0905 74.4606 17.8321 74.2021 17.5134 74.2021H10.6956Z" fill="#C3DDFD" fill-opacity="0.4"/>
<path fill-rule="evenodd" clip-rule="evenodd" d="M13.7979 159.749L0.306641 159.749L0.306641 159.136L13.7979 159.136L13.7979 159.749Z" fill="#C3DDFD"/>
<path fill-rule="evenodd" clip-rule="evenodd" d="M40.7804 159.749L27.5957 159.749L27.5957 159.136L40.7804 159.136L40.7804 159.749Z" fill="#C3DDFD"/>
<path d="M14.5645 23.7631C16.0363 25.9708 16.9153 28.2602 17.1708 29.129L20.8503 28.3624L23.9165 18.0907C26.3695 15.3311 21.6168 13.1848 18.3973 13.798C15.5058 14.3487 14.7179 16.0465 14.7179 17.1708C11.6517 17.1708 12.7248 21.0036 14.5645 23.7631Z" fill="#111928"/>
<path d="M23.1501 35.5681L22.2302 26.9828C21.5658 25.3986 20.2372 22.7514 20.2372 24.8364C20.2372 26.9214 18.193 28.567 17.171 29.1291C17.0483 31.95 15.2801 35.3126 14.4114 36.6413L23.1501 35.5681Z" fill="#FDBA8C"/>
<path d="M23.1501 35.5681L22.2302 26.9828C21.5658 25.3986 20.2372 22.7514 20.2372 24.8364C20.2372 26.9214 18.193 28.567 17.171 29.1291C17.0483 31.95 15.2801 35.3126 14.4114 36.6413L23.1501 35.5681Z" fill="url(#paint4_linear_535_98454)"/>
<path d="M19.0104 21.3102C18.5504 23.4565 20.3902 28.0558 23.6097 27.5959C24.9922 27.3984 25.5832 25.7589 25.6618 23.831C25.6717 23.5887 26.2218 23.859 26.2161 23.6098C26.208 23.2592 25.6365 22.3869 25.6001 22.0337C25.3888 19.9848 24.727 17.9996 23.9163 17.3241C23.6608 17.1708 23.0319 17.6307 22.8432 18.8572C22.5366 20.8502 21.7701 21.7701 21.3101 21.3102C20.7264 20.7264 19.4703 19.1638 19.0104 21.3102Z" fill="#FDBA8C"/>
<path d="M24.2641 21.556C24.2348 21.7296 24.3517 21.8941 24.5253 21.9235C24.699 21.9529 24.8635 21.8359 24.8929 21.6623C24.9222 21.4887 24.8053 21.3241 24.6317 21.2947C24.458 21.2654 24.2935 21.3823 24.2641 21.556Z" fill="#111928"/>
<path fill-rule="evenodd" clip-rule="evenodd" d="M24.8226 20.4251C25.0443 20.4654 25.2089 20.5898 25.3572 20.7508C25.4146 20.8131 25.5116 20.8171 25.5739 20.7597C25.6361 20.7024 25.6401 20.6054 25.5828 20.5431C25.4114 20.3571 25.191 20.1805 24.8774 20.1234C24.5655 20.0667 24.1879 20.133 23.71 20.3757C23.6345 20.4141 23.6043 20.5064 23.6427 20.5818C23.681 20.6573 23.7733 20.6875 23.8488 20.6491C24.2913 20.4244 24.5992 20.3845 24.8226 20.4251Z" fill="#111928"/>
<path fill-rule="evenodd" clip-rule="evenodd" d="M25.3542 21.3944C25.2768 21.4288 25.242 21.5194 25.2764 21.5968L26.1336 23.5241C26.1489 23.5585 26.1286 23.5983 26.0918 23.6061L25.2079 23.7941C25.1251 23.8117 25.0722 23.8931 25.0899 23.9759C25.1075 24.0587 25.1889 24.1116 25.2717 24.094L26.1556 23.906C26.3831 23.8576 26.5083 23.612 26.4138 23.3995L25.5566 21.4722C25.5222 21.3948 25.4316 21.36 25.3542 21.3944Z" fill="#111928"/>
<path fill-rule="evenodd" clip-rule="evenodd" d="M24.338 25.3205C24.1044 25.2245 23.9443 25.0335 23.8795 24.7959C23.8572 24.7142 23.773 24.666 23.6913 24.6883C23.6096 24.7106 23.5614 24.7948 23.5837 24.8765C23.6722 25.2012 23.8953 25.4701 24.2215 25.6041C24.5471 25.7379 24.9583 25.7307 25.4166 25.54C25.4948 25.5075 25.5318 25.4178 25.4993 25.3396C25.4668 25.2614 25.3771 25.2244 25.2989 25.2569C24.8975 25.4239 24.5723 25.4167 24.338 25.3205Z" fill="#111928"/>
<path fill-rule="evenodd" clip-rule="evenodd" d="M19.8777 22.0892C19.8613 21.8644 19.9405 21.674 20.0593 21.4901C20.1052 21.419 20.0848 21.3241 20.0137 21.2781C19.9426 21.2322 19.8477 21.2526 19.8017 21.3237C19.6645 21.5361 19.5487 21.7938 19.5719 22.1116C19.595 22.4278 19.7537 22.7768 20.1083 23.1788C20.1643 23.2423 20.2612 23.2484 20.3247 23.1924C20.3882 23.1363 20.3943 23.0395 20.3383 22.976C20.01 22.6037 19.8943 22.3157 19.8777 22.0892Z" fill="#111928"/>
<path d="M79.4146 34.9546C79.5679 36.7944 70.5226 39.554 70.3693 39.554L68.5295 36.9477L74.202 33.115V34.0348C75.8884 33.7282 79.2919 33.4829 79.4146 34.9546Z" fill="#FDBA8C"/>
<path d="M79.4146 34.9546C79.5679 36.7944 70.5226 39.554 70.3693 39.554L68.5295 36.9477L74.202 33.115V34.0348C75.8884 33.7282 79.2919 33.4829 79.4146 34.9546Z" fill="url(#paint5_linear_535_98454)"/>
<path d="M33.4215 69.6027H9.04517C9.04517 66.9965 9.35179 59.3309 9.35179 51.9721C9.35179 40.9295 13.3378 34.3414 14.411 34.3414C15.4842 34.3414 16.864 34.9546 18.857 34.9546C20.85 34.9546 21.7699 33.7281 25.1427 34.3414C27.841 34.832 38.5318 41.4959 43.5399 44.7665L68.9153 35.4572C69.2165 35.3467 69.552 35.487 69.6847 35.7791L71.5117 39.7984C71.6452 40.0922 71.5282 40.4393 71.244 40.5922L48.0172 53.0892C45.231 54.5883 41.8699 54.5503 39.1183 52.9886L32.195 49.0592L33.4215 69.6027Z" fill="#F9FAFB"/>
<path d="M33.4215 69.6027H9.04517C9.04517 66.9965 9.35179 59.3309 9.35179 51.9721C9.35179 40.9295 13.3378 34.3414 14.411 34.3414C15.4842 34.3414 16.864 34.9546 18.857 34.9546C20.85 34.9546 21.7699 33.7281 25.1427 34.3414C27.841 34.832 38.5318 41.4959 43.5399 44.7665L68.9153 35.4572C69.2165 35.3467 69.552 35.487 69.6847 35.7791L71.5117 39.7984C71.6452 40.0922 71.5282 40.4393 71.244 40.5922L48.0172 53.0892C45.231 54.5883 41.8699 54.5503 39.1183 52.9886L32.195 49.0592L33.4215 69.6027Z" fill="url(#paint6_linear_535_98454)"/>
<path fill-rule="evenodd" clip-rule="evenodd" d="M24.6829 69.6028H33.4215L32.1985 49.117L24.6829 44.9199V69.6028Z" fill="url(#paint7_linear_535_98454)"/>
<path fill-rule="evenodd" clip-rule="evenodd" d="M33.4216 67.4565H8.89202V66.8433H33.4216V67.4565Z" fill="#A4CAFE"/>
<path fill-rule="evenodd" clip-rule="evenodd" d="M68.0991 42.4449L65.3395 36.6191L65.8937 36.3566L68.6533 42.1824L68.0991 42.4449Z" fill="#A4CAFE"/>
<defs>
<linearGradient id="paint0_linear_535_98454" x1="121.575" y1="169.254" x2="121.575" y2="95.9721" gradientUnits="userSpaceOnUse">
<stop stop-color="#F9FAFB"/>
<stop offset="1" stop-color="#F9FAFB" stop-opacity="0"/>
</linearGradient>
<linearGradient id="paint1_linear_535_98454" x1="119.275" y1="126.021" x2="119.275" y2="168.028" gradientUnits="userSpaceOnUse">
<stop stop-color="#76A9FA"/>
<stop offset="1" stop-color="#76A9FA" stop-opacity="0"/>
</linearGradient>
<linearGradient id="paint2_linear_535_98454" x1="138.789" y1="167.221" x2="187.099" y2="167.221" gradientUnits="userSpaceOnUse">
<stop stop-color="#76A9FA"/>
<stop offset="1" stop-color="#76A9FA" stop-opacity="0"/>
</linearGradient>
<linearGradient id="paint3_linear_535_98454" x1="65.2902" y1="57.7599" x2="57.5164" y2="140.029" gradientUnits="userSpaceOnUse">
<stop stop-color="#111928"/>
<stop offset="1" stop-color="#111928" stop-opacity="0"/>
</linearGradient>
<linearGradient id="paint4_linear_535_98454" x1="28.5159" y1="18.244" x2="17.8762" y2="30.0033" gradientUnits="userSpaceOnUse">
<stop stop-color="#7F270F"/>
<stop offset="1" stop-color="#7F270F" stop-opacity="0"/>
</linearGradient>
<linearGradient id="paint5_linear_535_98454" x1="56.7247" y1="49.5192" x2="56.5778" y2="35.0732" gradientUnits="userSpaceOnUse">
<stop stop-color="#7F270F"/>
<stop offset="1" stop-color="#7F270F" stop-opacity="0"/>
</linearGradient>
<linearGradient id="paint6_linear_535_98454" x1="13.1845" y1="-3.06626" x2="32.195" y2="51.8188" gradientUnits="userSpaceOnUse">
<stop stop-color="#A4CAFE"/>
<stop offset="1" stop-color="#A4CAFE" stop-opacity="0"/>
</linearGradient>
<linearGradient id="paint7_linear_535_98454" x1="53.06" y1="45.0925" x2="32.9613" y2="67.9102" gradientUnits="userSpaceOnUse">
<stop stop-color="#A4CAFE"/>
<stop offset="1" stop-color="#A4CAFE" stop-opacity="0"/>
</linearGradient>
</defs>
</svg>
