<svg width="28" height="29" viewBox="0 0 28 29" fill="none" xmlns="http://www.w3.org/2000/svg">
<path fill-rule="evenodd" clip-rule="evenodd" d="M8.60433 3.70833C8.17861 3.70833 7.8335 4.05345 7.8335 4.47917C7.8335 4.90489 8.17861 5.25 8.60433 5.25C9.03005 5.25 9.37516 4.90489 9.37516 4.47917C9.37516 4.05345 9.03005 3.70833 8.60433 3.70833ZM4.75016 4.47917C4.75016 2.35057 6.47573 0.625 8.60433 0.625C10.7329 0.625 12.4585 2.35057 12.4585 4.47917C12.4585 6.60776 10.7329 8.33333 8.60433 8.33333C6.47573 8.33333 4.75016 6.60776 4.75016 4.47917ZM14.0002 3.70833C14.0002 2.85689 14.6904 2.16667 15.5418 2.16667H26.3335C27.1849 2.16667 27.8752 2.85689 27.8752 3.70833V17.5833C27.8752 18.4348 27.1849 19.125 26.3335 19.125H22.4793L25.4441 26.2404C25.7716 27.0263 25.3999 27.9289 24.6139 28.2564C23.828 28.5839 22.9254 28.2122 22.5979 27.4263L19.7814 20.6667L16.9649 27.4263C16.6374 28.2122 15.7348 28.5839 14.9489 28.2564C14.1629 27.9289 13.7913 27.0263 14.1188 26.2404L17.0835 19.125H15.5418C14.6904 19.125 14.0002 18.4348 14.0002 17.5833C14.0002 16.7319 14.6904 16.0417 15.5418 16.0417H19.3615C19.3849 16.0411 19.4083 16.0411 19.4317 16.0417H20.1311C20.1546 16.0411 20.178 16.0411 20.2013 16.0417H24.7918V5.25H15.5418C14.6904 5.25 14.0002 4.55977 14.0002 3.70833ZM5.00909 10.5615C5.29501 10.1326 5.77637 9.875 6.29183 9.875H18.6252C19.4766 9.875 20.1668 10.5652 20.1668 11.4167C20.1668 12.2681 19.4766 12.9583 18.6252 12.9583H12.4585V26.8333C12.4585 27.6848 11.7683 28.375 10.9168 28.375C10.0654 28.375 9.37516 27.6848 9.37516 26.8333V20.6667H7.8335V26.8333C7.8335 27.6848 7.14327 28.375 6.29183 28.375C5.44039 28.375 4.75016 27.6848 4.75016 26.8333V16.5084L2.94957 19.2093C2.47728 19.9178 1.52011 20.1092 0.811668 19.6369C0.103228 19.1646 -0.088207 18.2074 0.384086 17.499L5.00909 10.5615ZM7.8335 12.9583V17.5833H9.37516V12.9583H7.8335Z" fill="#FDC700"/>
</svg>
