<svg width="11" height="11" viewBox="0 0 11 11" fill="none" xmlns="http://www.w3.org/2000/svg">
<path fill-rule="evenodd" clip-rule="evenodd" d="M2.42368 1.93285C1.53206 2.81894 1.32465 3.72084 1.51161 4.61886C1.70922 5.56807 2.36612 6.58824 3.36646 7.58874C4.36683 8.58928 5.3869 9.24692 6.33667 9.44585C7.23577 9.63417 8.13872 9.42809 9.02647 8.53923C9.04044 8.52523 9.05503 8.51187 9.07019 8.49918C9.0704 8.499 9.07098 8.49851 9.07145 8.4981L9.0752 8.49476C9.07849 8.4918 9.08282 8.48781 9.08818 8.48271C9.09903 8.4724 9.11242 8.45918 9.12787 8.4433C9.15897 8.41135 9.19407 8.3731 9.22812 8.33352C9.2626 8.29345 9.29197 8.25669 9.31333 8.22747C9.32227 8.21525 9.32787 8.20696 9.33093 8.20232C9.35041 8.15644 9.36049 8.10704 9.36049 8.05708C9.36049 8.00276 9.34858 7.94911 9.32562 7.89993C9.30266 7.85075 9.26922 7.80725 9.22769 7.77248C9.21257 7.75982 9.19802 7.7465 9.18408 7.73255L8.42204 6.96995C8.28424 6.83205 8.19876 6.7955 8.1665 6.78586C8.14487 6.7794 8.12739 6.77767 8.08928 6.79045C8.03821 6.80757 7.95996 6.84916 7.84472 6.93982C7.7307 7.02953 7.61228 7.14113 7.46728 7.27999C7.13225 7.6122 6.67949 7.79879 6.20742 7.79879C5.73265 7.79879 5.27741 7.61006 4.94182 7.27426L3.69445 6.02606C3.6944 6.02601 3.69451 6.02611 3.69445 6.02606C3.42395 5.75552 3.14749 5.37281 3.10624 4.88306C3.06259 4.36469 3.29389 3.89465 3.69424 3.49422C3.69417 3.4943 3.69431 3.49415 3.69424 3.49422L3.99803 3.19015C4.08353 3.10438 4.13185 2.98786 4.13185 2.8665C4.13185 2.72138 4.09228 2.63724 4.02243 2.56725L3.22862 1.77289C3.14998 1.6942 3.08818 1.66592 3.04753 1.65424C3.00542 1.64213 2.95557 1.63923 2.89169 1.65231C2.74954 1.68143 2.57468 1.78394 2.42368 1.93285ZM2.62415 0.346094C3.14047 0.240344 3.7033 0.361625 4.17177 0.830415L4.96583 1.62504C5.31686 1.97671 5.46518 2.41565 5.46518 2.8665C5.46518 3.34103 5.27695 3.79624 4.9417 4.1321L4.63748 4.4366C4.42443 4.64964 4.43351 4.7556 4.43483 4.7706C4.43481 4.77042 4.43484 4.77081 4.43483 4.7706C4.4383 4.81184 4.4702 4.91618 4.63726 5.08325L5.88491 6.33174C5.97053 6.41741 6.08655 6.46545 6.20742 6.46545C6.3283 6.46545 6.44432 6.41741 6.52994 6.33174L6.54031 6.32158C6.55097 6.31137 6.56186 6.30091 6.57299 6.29023C6.82889 6.04453 7.20944 5.67914 7.66547 5.52626C7.93328 5.43648 8.23341 5.41429 8.54816 5.50832C8.85229 5.59917 9.12196 5.78407 9.36519 6.02748L10.1089 6.77175C10.2883 6.92799 10.4331 7.12015 10.5338 7.33591C10.6392 7.56171 10.6938 7.80788 10.6938 8.05708C10.6938 8.30627 10.6392 8.55244 10.5338 8.77824C10.4587 8.93918 10.3232 9.10508 10.2388 9.20313C10.1513 9.30486 10.0445 9.41804 9.95176 9.4995C8.76572 10.677 7.41755 11.0345 6.06333 10.7509C4.75287 10.4764 3.51045 9.61853 2.42357 8.53148C1.33667 7.44439 0.479147 6.20136 0.206262 4.89062C-0.0772309 3.52893 0.288598 2.1744 1.48474 0.986186L1.48613 0.984807C1.75302 0.721242 2.14903 0.443408 2.62415 0.346094Z" fill="#194170"/>
</svg>
