<svg width="20" height="20" viewBox="0 0 20 20" fill="none" xmlns="http://www.w3.org/2000/svg">
<path fill-rule="evenodd" clip-rule="evenodd" d="M8.06124 6.85268C8.3035 6.51295 8.41155 6.0913 8.35707 5.67086L8.23693 4.74361C8.16634 4.19887 7.83189 3.72389 7.34281 3.47383L5.69129 2.62941C5.04764 2.30031 4.26522 2.42367 3.75405 2.93485L3.03471 3.65418C2.52354 4.16536 2.40018 4.94778 2.72927 5.59143L3.57369 7.24295C3.82375 7.73202 4.29873 8.06648 4.84347 8.13706L5.77072 8.25721C6.15728 8.3073 6.54486 8.22 6.86885 8.01732L7.5887 8.73715L6.52068 9.80518C5.49963 9.75733 4.461 10.1225 3.67915 10.9043C2.4793 12.1042 2.25981 13.9082 3.01207 15.3302C3.1923 15.6709 3.48256 15.9345 3.82915 16.0829C3.97761 16.4295 4.24121 16.7198 4.58189 16.9C6.0039 17.6523 7.8079 17.4328 9.00776 16.2329C9.72831 15.5124 10.0949 14.5737 10.1105 13.6318C10.2187 13.8214 10.3537 13.9998 10.5155 14.1617L13.1144 16.7605C14.0907 17.7368 15.6736 17.7368 16.6499 16.7605L16.7932 16.6172C17.7695 15.6409 17.7695 14.058 16.7932 13.0817L14.1943 10.4828C13.9877 10.2761 13.7538 10.1132 13.5043 9.99405L13.5556 9.94272C14.5766 9.99057 15.6153 9.62542 16.3971 8.84357C17.597 7.64371 17.8165 5.83971 17.0642 4.41771C16.884 4.07703 16.5937 3.81342 16.2471 3.66496C16.0987 3.31837 15.8351 3.02811 15.4944 2.84789C14.0724 2.09563 12.2684 2.31511 11.0685 3.51497C10.2867 4.29682 9.92152 5.33544 9.96937 6.35649L8.76722 7.55864L8.06124 6.85268ZM11.7651 6.91777L7.08196 11.6009C6.53176 11.3948 5.9125 11.4273 5.38411 11.6986C5.19445 11.7959 5.01651 11.924 4.85767 12.0828C4.78835 12.1522 4.7249 12.2251 4.6673 12.3011C4.26704 12.829 4.14946 13.5028 4.31454 14.1165C4.35472 14.2658 4.41163 14.4116 4.4853 14.5508L5.70118 13.335L6.57713 14.2109L5.36125 15.4268C5.50049 15.5005 5.64627 15.5574 5.79561 15.5975C6.40926 15.7626 7.08312 15.645 7.61101 15.2448C7.68698 15.1872 7.75993 15.1237 7.82924 15.0544C7.98794 14.8957 8.11595 14.718 8.21327 14.5285C8.48472 14 8.51736 13.3805 8.31117 12.8301L12.9943 8.14698C13.5445 8.3531 14.1638 8.32055 14.6922 8.04934C14.8818 7.95199 15.0598 7.8239 15.2186 7.66506C15.2879 7.59574 15.3514 7.5228 15.409 7.44682C15.8092 6.91893 15.9268 6.24508 15.7617 5.63142C15.7216 5.48208 15.6646 5.3363 15.591 5.19706L14.3751 6.41294L13.4991 5.53699L14.715 4.32111C14.5758 4.24745 14.43 4.19053 14.2807 4.15035C13.667 3.98527 12.9932 4.10285 12.4653 4.50311C12.3893 4.56071 12.3163 4.62417 12.247 4.69348C12.0883 4.85218 11.9603 5.02995 11.863 5.21941C11.5916 5.74791 11.5589 6.3674 11.7651 6.91777ZM5.05764 6.48421L4.21322 4.83269L4.93256 4.11336L6.58408 4.95777L6.70422 5.88502L5.98489 6.60436L5.05764 6.48421ZM13.0158 11.6613L15.6147 14.2602C15.9402 14.5857 15.9402 15.1133 15.6147 15.4387L15.4714 15.582C15.146 15.9075 14.6183 15.9075 14.2929 15.582L11.694 12.9831C11.3686 12.6577 11.3686 12.1301 11.694 11.8046L11.8373 11.6613C12.1628 11.3359 12.6904 11.3359 13.0158 11.6613Z" fill="#4A5565"/>
</svg>
