<svg width="23" height="19" viewBox="0 0 23 19" fill="none" xmlns="http://www.w3.org/2000/svg">
<path fill-rule="evenodd" clip-rule="evenodd" d="M1.30062 1.55257C1.70695 1.14624 2.25805 0.917969 2.83268 0.917969H11.4993C12.074 0.917969 12.6251 1.14624 13.0314 1.55257C13.4377 1.9589 13.666 2.51 13.666 3.08464H19.0827C19.493 3.08464 19.8681 3.31647 20.0516 3.68349L22.2183 8.01682C22.2935 8.16725 22.3327 8.33312 22.3327 8.5013V12.8346C22.3327 13.4329 21.8477 13.918 21.2493 13.918H20.6693C20.6946 14.0949 20.7077 14.2757 20.7077 14.4596C20.7077 16.5537 19.0101 18.2513 16.916 18.2513C14.8219 18.2513 13.1243 16.5537 13.1243 14.4596C13.1243 14.2757 13.1374 14.0949 13.1627 13.918H9.83595C9.86126 14.0949 9.87435 14.2757 9.87435 14.4596C9.87435 16.5537 8.17676 18.2513 6.08268 18.2513C3.9886 18.2513 2.29102 16.5537 2.29102 14.4596C2.29102 14.2757 2.30411 14.0949 2.32941 13.918H1.74935C1.15104 13.918 0.666016 13.4329 0.666016 12.8346V3.08464C0.666016 2.51 0.894289 1.9589 1.30062 1.55257ZM4.77401 13.4961C4.77987 13.4885 4.78564 13.4809 4.7913 13.4731C5.08826 13.085 5.55624 12.8346 6.08268 12.8346C6.60913 12.8346 7.0771 13.085 7.37406 13.4731C7.37973 13.4809 7.38549 13.4885 7.39135 13.4961C7.59018 13.7657 7.70768 14.099 7.70768 14.4596C7.70768 15.3571 6.98015 16.0846 6.08268 16.0846C5.18522 16.0846 4.45768 15.3571 4.45768 14.4596C4.45768 14.099 4.57519 13.7657 4.77401 13.4961ZM8.7363 11.7513C8.05242 11.0812 7.11581 10.668 6.08268 10.668C5.04956 10.668 4.11294 11.0812 3.42907 11.7513H2.83268V3.08464H11.4993V11.7513H8.7363ZM14.2624 11.7513H13.666V5.2513H18.4131L19.4965 7.41797H15.8327C15.2344 7.41797 14.7493 7.903 14.7493 8.5013C14.7493 9.09961 15.2344 9.58464 15.8327 9.58464H20.166V11.7513H19.5696C18.8858 11.0812 17.9491 10.668 16.916 10.668C15.8829 10.668 14.9463 11.0812 14.2624 11.7513ZM15.6073 13.4961C15.6132 13.4885 15.619 13.4809 15.6246 13.4731C15.9216 13.085 16.3896 12.8346 16.916 12.8346C17.4425 12.8346 17.9104 13.085 18.2074 13.4731C18.2131 13.4809 18.2188 13.4885 18.2247 13.4961C18.4235 13.7657 18.541 14.099 18.541 14.4596C18.541 15.3571 17.8135 16.0846 16.916 16.0846C16.0186 16.0846 15.291 15.3571 15.291 14.4596C15.291 14.099 15.4085 13.7657 15.6073 13.4961Z" fill="#194170"/>
</svg>
