<svg width="17" height="16" viewBox="0 0 17 16" fill="none" xmlns="http://www.w3.org/2000/svg">
<path fill-rule="evenodd" clip-rule="evenodd" d="M9.03157 5.17261V6.87032C9.40184 6.32763 9.91218 5.88699 10.5125 5.59161C11.1129 5.29624 11.7826 5.15627 12.456 5.18545C16.0549 5.18545 16.8327 7.34559 16.8327 10.1555V15.877H13.4994V10.8052C13.4994 9.59564 13.2449 8.03923 11.2827 8.03923C9.37935 8.03923 9.05491 9.35586 9.05491 10.7153V15.877H5.73157V5.17261H9.03157Z" fill="#4A5565"/>
<path fill-rule="evenodd" clip-rule="evenodd" d="M3.49935 2.4826C3.49935 2.80017 3.4016 3.11061 3.21847 3.37466C3.03533 3.63871 2.77503 3.84451 2.47049 3.96603C2.16595 4.08756 1.83083 4.11936 1.50753 4.0574C1.18423 3.99545 0.887259 3.84253 0.654172 3.61797C0.421084 3.39342 0.26235 3.10732 0.198041 2.79585C0.133732 2.48439 0.166738 2.16154 0.292884 1.86815C0.41903 1.57475 0.632651 1.32399 0.906733 1.14755C1.18081 0.971123 1.50305 0.876953 1.83268 0.876953C2.27471 0.876953 2.69863 1.04612 3.01119 1.34724C3.32376 1.64836 3.49935 2.05676 3.49935 2.4826Z" fill="#4A5565"/>
<path d="M3.49935 5.18545H0.166017V15.877H3.49935V5.18545Z" fill="#4A5565"/>
</svg>
