<svg width="27" height="27" viewBox="0 0 27 27" fill="none" xmlns="http://www.w3.org/2000/svg">
<path fill-rule="evenodd" clip-rule="evenodd" d="M9 4.47035e-08C9.39782 4.47035e-08 9.77936 0.158035 10.0607 0.43934L15.6213 6H17.3787L13.9393 2.56066C13.3536 1.97487 13.3536 1.02513 13.9393 0.43934C14.5251 -0.146447 15.4749 -0.146447 16.0607 0.43934L21.7045 6.08319C23.0214 6.40013 24 7.58579 24 9V12C25.6569 12 27 13.3431 27 15V18C27 19.6569 25.6569 21 24 21V24C24 25.6569 22.6569 27 21 27H3C1.34315 27 0 25.6569 0 24V9C0 7.58579 0.978554 6.40013 2.2955 6.08319L7.93934 0.43934C8.22064 0.158035 8.60218 4.47035e-08 9 4.47035e-08ZM6.62132 6H11.3787L9 3.62132L6.62132 6ZM21 21H18C15.5147 21 13.5 18.9853 13.5 16.5C13.5 14.0147 15.5147 12 18 12H21V9H3V24H21V21ZM18 15C17.1716 15 16.5 15.6716 16.5 16.5C16.5 17.3284 17.1716 18 18 18H24V15H18Z" fill="#194170"/>
</svg>
