<svg width="14" height="14" viewBox="0 0 14 14" fill="none" xmlns="http://www.w3.org/2000/svg">
<path fill-rule="evenodd" clip-rule="evenodd" d="M8.19169 3.30417L7.59545 3.8614C7.36007 4.08137 6.99094 4.06889 6.77096 3.83351C6.55099 3.59814 6.56347 3.229 6.79885 3.00903L7.40152 2.44579L7.40463 2.44296C7.70219 2.17281 8.20892 1.84911 8.84317 1.75304C9.50526 1.65275 10.2587 1.8095 10.9765 2.43512L10.9915 2.44825L11.0057 2.46239C11.4859 2.94269 11.7558 3.59411 11.7558 4.27334C11.7558 4.95255 11.486 5.60394 11.0057 6.08425C11.0057 6.08426 11.0057 6.08423 11.0057 6.08425L9.00818 8.08233C8.52787 8.5626 7.87638 8.83248 7.19715 8.83248C6.51792 8.83248 5.8665 8.56267 5.38619 8.0824C5.15838 7.85461 5.15836 7.48526 5.38616 7.25745C5.61395 7.02963 5.9833 7.02961 6.21112 7.25741C6.47264 7.51891 6.82732 7.66581 7.19715 7.66581C7.56695 7.66581 7.9216 7.51893 8.18311 7.25748L10.1806 5.2594C10.4421 4.99788 10.5891 4.64316 10.5891 4.27334C10.5891 3.90995 10.4473 3.56119 10.1943 3.30107C9.7418 2.91339 9.33836 2.858 9.01789 2.90654C8.66781 2.95957 8.36596 3.14688 8.19169 3.30417ZM4.63565 5.12173C5.11596 4.64146 5.76737 4.37165 6.4466 4.37165C7.12584 4.37165 7.77725 4.64146 8.25756 5.12173C8.48538 5.34952 8.48539 5.71887 8.2576 5.94668C8.0298 6.1745 7.66045 6.17452 7.43264 5.94672C7.17112 5.68522 6.81644 5.53832 6.4466 5.53832C6.07681 5.53832 5.72216 5.6852 5.46064 5.94665L3.46311 7.94473C3.20161 8.20624 3.05467 8.56097 3.05467 8.93079C3.05467 9.29418 3.1965 9.64293 3.44951 9.90306C3.90195 10.2907 4.3054 10.3461 4.62586 10.2976C4.97594 10.2446 5.27778 10.0573 5.45205 9.89997L6.0483 9.34273C6.28368 9.12276 6.65282 9.13524 6.87279 9.37062C7.09277 9.60599 7.08028 9.97513 6.8449 10.1951L6.24223 10.7583L6.23912 10.7612C5.94157 11.0313 5.43484 11.355 4.80059 11.4511C4.1385 11.5514 3.38502 11.3946 2.66728 10.769L2.65222 10.7559L2.63808 10.7417C2.15781 10.2614 1.888 9.61002 1.888 8.93079C1.888 8.25158 2.1578 7.60019 2.63804 7.11988C2.63805 7.11987 2.63803 7.1199 2.63804 7.11988L4.63565 5.12173Z" fill="#4A5565"/>
</svg>
