<svg width="20" height="20" viewBox="0 0 20 20" fill="none" xmlns="http://www.w3.org/2000/svg">
<path fill-rule="evenodd" clip-rule="evenodd" d="M3.75 10C3.75 9.30964 4.30964 8.75 5 8.75H5.00833C5.69869 8.75 6.25833 9.30964 6.25833 10C6.25833 10.6904 5.69869 11.25 5.00833 11.25H5C4.30964 11.25 3.75 10.6904 3.75 10ZM8.75834 10C8.75834 9.30964 9.31799 8.75 10.0083 8.75H10.0167C10.707 8.75 11.2667 9.30964 11.2667 10C11.2667 10.6904 10.707 11.25 10.0167 11.25H10.0083C9.31799 11.25 8.75834 10.6904 8.75834 10ZM13.7583 10C13.7583 9.30964 14.318 8.75 15.0083 8.75H15.0167C15.707 8.75 16.2667 9.30964 16.2667 10C16.2667 10.6904 15.707 11.25 15.0167 11.25H15.0083C14.318 11.25 13.7583 10.6904 13.7583 10Z" fill="#4A5565"/>
</svg>
