<svg width="10" height="17" viewBox="0 0 10 17" fill="none" xmlns="http://www.w3.org/2000/svg">
<path fill-rule="evenodd" clip-rule="evenodd" d="M1.66667 1.66667V14.0995L4.47942 11.8493C4.78377 11.6058 5.21623 11.6058 5.52058 11.8493L8.33333 14.0995V1.66667H1.66667ZM0.428784 0.48034C0.710532 0.179809 1.1046 0 1.52778 0H8.47222C8.8954 0 9.28947 0.179808 9.57122 0.48034C9.85126 0.779051 10 1.17334 10 1.57407V15.8333C10 16.1537 9.81638 16.4457 9.52766 16.5844C9.23894 16.7232 8.89623 16.6842 8.64609 16.4841L5 13.5672L1.35391 16.4841C1.10377 16.6842 0.761064 16.7232 0.472343 16.5844C0.183621 16.4457 0 16.1537 0 15.8333V1.57407C0 1.17333 0.148743 0.779051 0.428784 0.48034Z" fill="#4A5565"/>
</svg>
