<svg width="20" height="20" viewBox="0 0 20 20" fill="none" xmlns="http://www.w3.org/2000/svg">
<path d="M3.33334 15.8334V17.5001C3.33334 17.9603 3.70644 18.3334 4.16668 18.3334H15.8333C16.2936 18.3334 16.6667 17.9603 16.6667 17.5001V15.8334H3.33334Z" fill="#194170"/>
<path fill-rule="evenodd" clip-rule="evenodd" d="M7.50001 2.50008C7.50001 2.03984 7.87311 1.66675 8.33334 1.66675H15C15.4602 1.66675 15.8333 2.03984 15.8333 2.50008V5.00008C15.8333 5.46032 15.4602 5.83342 15 5.83342H13.3333V6.66675H15C15.4247 6.66675 15.7814 6.98603 15.8283 7.40806L16.5792 14.1667H3.42083L4.17179 7.40806C4.21869 6.98603 4.57541 6.66675 5.00003 6.66675H10V5.83342H8.33334C7.87311 5.83342 7.50001 5.46032 7.50001 5.00008V2.50008ZM8.34169 9.16675H6.66669V10.8417H8.34169V9.16675ZM9.16669 9.16675H10.8417V10.8417H9.16669V9.16675ZM13.3417 9.16675H11.6667V10.8417H13.3417V9.16675ZM6.66669 11.6667H8.34169V13.3417H6.66669V11.6667ZM10.8417 11.6667H9.16669V13.3417H10.8417V11.6667ZM11.6667 11.6667H13.3417V13.3417H11.6667V11.6667ZM9.16668 3.33341H14.1667V4.16675H9.16668V3.33341Z" fill="#194170"/>
</svg>
