<svg width="12" height="17" viewBox="0 0 12 17" fill="none" xmlns="http://www.w3.org/2000/svg">
<path fill-rule="evenodd" clip-rule="evenodd" d="M1.70854 1.70854C2.80251 0.614582 4.28624 0 5.83333 0C7.38043 0 8.86416 0.614582 9.95812 1.70854C11.0521 2.80251 11.6667 4.28624 11.6667 5.83333C11.6667 7.83942 10.6689 9.0613 9.8451 10.07L9.81222 10.1103C8.97538 11.1354 8.33333 11.9495 8.33333 13.3333C8.33333 13.7936 7.96024 14.1667 7.5 14.1667H4.16667C3.70643 14.1667 3.33333 13.7936 3.33333 13.3333C3.33333 11.9898 2.69116 11.1563 1.84928 10.1039L1.81211 10.0575C0.994055 9.03536 0 7.79334 0 5.83333C0 4.28624 0.614582 2.80251 1.70854 1.70854ZM3.33333 15.8333C3.33333 15.3731 3.70643 15 4.16667 15H7.5C7.96024 15 8.33333 15.3731 8.33333 15.8333C8.33333 16.2936 7.96024 16.6667 7.5 16.6667H4.16667C3.70643 16.6667 3.33333 16.2936 3.33333 15.8333ZM4.65482 4.65482C4.96738 4.34226 5.39131 4.16667 5.83333 4.16667C6.29357 4.16667 6.66667 3.79357 6.66667 3.33333C6.66667 2.8731 6.29357 2.5 5.83333 2.5C4.94928 2.5 4.10143 2.85119 3.47631 3.47631C2.85119 4.10143 2.5 4.94928 2.5 5.83333C2.5 6.29357 2.8731 6.66667 3.33333 6.66667C3.79357 6.66667 4.16667 6.29357 4.16667 5.83333C4.16667 5.39131 4.34226 4.96738 4.65482 4.65482Z" fill="#194170"/>
</svg>
