<svg width="17" height="17" viewBox="0 0 17 17" fill="none" xmlns="http://www.w3.org/2000/svg">
<path fill-rule="evenodd" clip-rule="evenodd" d="M15.2412 5.4726C15.3524 5.74134 15.52 5.98309 15.7326 6.18158V6.18245C16.0274 6.45816 16.2624 6.79148 16.4231 7.16176C16.5838 7.53203 16.6667 7.93136 16.6667 8.33499C16.6667 8.73863 16.5838 9.13796 16.4231 9.50823C16.2624 9.8785 16.0274 10.2118 15.7326 10.4875C15.5199 10.6858 15.3522 10.9274 15.2409 11.196C15.1295 11.4646 15.077 11.7539 15.087 12.0445C15.1009 12.4479 15.0318 12.8498 14.8838 13.2254C14.7358 13.6009 14.5122 13.942 14.2269 14.2274C13.9415 14.5129 13.6005 14.7366 13.225 14.8847C12.8495 15.0328 12.4475 15.102 12.0441 15.0882C11.7536 15.0805 11.4648 15.1341 11.1964 15.2455C10.928 15.3569 10.686 15.5236 10.4863 15.7347C10.2106 16.0293 9.87735 16.2642 9.50715 16.4248C9.13696 16.5854 8.73774 16.6683 8.33421 16.6683C7.93069 16.6683 7.53146 16.5854 7.16127 16.4248C6.79108 16.2642 6.45781 16.0293 6.18211 15.7347C5.98372 15.5216 5.7419 15.3536 5.47299 15.2421C5.20407 15.1306 4.91435 15.0781 4.6234 15.0882C4.21985 15.1022 3.81775 15.033 3.44209 14.8849C3.06644 14.7368 2.72526 14.513 2.43978 14.2275C2.1543 13.9419 1.93062 13.6007 1.78265 13.225C1.63469 12.8493 1.56559 12.4472 1.57967 12.0436C1.58964 11.753 1.53717 11.4637 1.42581 11.1951C1.31444 10.9265 1.14676 10.6849 0.934083 10.4867C0.639287 10.2109 0.404265 9.87763 0.243587 9.50735C0.0829089 9.13708 0 8.73775 0 8.33412C0 7.93048 0.0829089 7.53115 0.243587 7.16088C0.404265 6.79061 0.639287 6.45728 0.934083 6.18158C1.14683 5.98317 1.31454 5.74145 1.42591 5.47271C1.53728 5.20397 1.58971 4.91447 1.57967 4.62375C1.56668 4.22032 1.6364 3.8185 1.78453 3.44303C1.93267 3.06756 2.15609 2.72639 2.44104 2.44051C2.72827 2.15747 3.0697 1.93536 3.44486 1.7875C3.82002 1.63963 4.22118 1.56906 4.62428 1.58002C4.91528 1.59228 5.20546 1.54087 5.47453 1.42936C5.7436 1.31785 5.98508 1.14894 6.18211 0.934429C6.45767 0.639541 6.79089 0.40443 7.16111 0.243688C7.53131 0.082945 7.93061 0 8.33421 0C8.73781 0 9.13711 0.082945 9.50732 0.243688C9.87753 0.40443 10.2108 0.639541 10.4863 0.934429C10.6848 1.14704 10.9266 1.31466 11.1953 1.42602C11.464 1.53737 11.7534 1.58989 12.0441 1.58002C12.4476 1.56606 12.8496 1.63525 13.2252 1.78327C13.6008 1.93129 13.942 2.15499 14.2274 2.44046C14.5129 2.72592 14.7366 3.06706 14.8846 3.44265C15.0326 3.81825 15.1018 4.22028 15.0879 4.62375C15.0777 4.91441 15.13 5.20387 15.2412 5.4726ZM6.60621 4.47619C6.14598 4.47619 5.77288 4.84929 5.77288 5.30953C5.77288 5.76976 6.14598 6.14286 6.60621 6.14286H6.61485C7.07509 6.14286 7.44818 5.76976 7.44818 5.30953C7.44818 4.84929 7.07509 4.47619 6.61485 4.47619H6.60621ZM11.5133 6.33056C11.8387 6.00513 11.8387 5.47749 11.5133 5.15205C11.1879 4.82662 10.6602 4.82662 10.3348 5.15205L5.15339 10.3335C4.82795 10.6589 4.82795 11.1865 5.15339 11.512C5.47883 11.8374 6.00646 11.8374 6.3319 11.512L11.5133 6.33056ZM9.18828 10.5212C8.72804 10.5212 8.35494 10.8943 8.35494 11.3545C8.35494 11.8147 8.72804 12.1878 9.18828 12.1878H9.19691C9.65715 12.1878 10.0302 11.8147 10.0302 11.3545C10.0302 10.8943 9.65715 10.5212 9.19691 10.5212H9.18828Z" fill="#194170"/>
</svg>
