<svg width="20" height="20" viewBox="0 0 20 20" fill="none" xmlns="http://www.w3.org/2000/svg">
<path fill-rule="evenodd" clip-rule="evenodd" d="M16.9477 3.05295C17.1248 3.23007 17.2423 3.45799 17.2838 3.70501C17.5293 5.13087 17.8312 8.03437 16.5294 9.33867C15.0541 10.8116 9.45833 13.9355 7.68666 14.9072C7.52984 14.9931 7.34934 15.0255 7.17246 14.9996C6.99557 14.9737 6.83194 14.8909 6.70631 14.7637L5.97145 14.0296L5.2405 13.2931C5.11332 13.1675 5.03051 13.0039 5.00462 12.827C4.97872 12.6501 5.01114 12.4696 5.09698 12.3128C6.06713 10.541 9.1909 4.94499 10.6653 3.46972C11.9664 2.16777 14.8698 2.4713 16.2956 2.71678C16.5426 2.75832 16.7706 2.87583 16.9477 3.05295ZM4.50592 6.31303L7.83987 6.02911L5.59763 9.76319L3.21657 9.48397C3.06321 9.46286 2.91881 9.39925 2.79971 9.30035C2.6806 9.20146 2.59154 9.07121 2.54258 8.92434C2.49363 8.77747 2.48673 8.61983 2.52268 8.46925C2.55863 8.31867 2.63599 8.18114 2.746 8.07223L4.50592 6.31303ZM13.9703 12.1634L13.6864 15.4975L11.9273 17.2574C11.8182 17.3663 11.681 17.4427 11.531 17.478C11.381 17.5132 11.2241 17.5061 11.078 17.4572C10.9318 17.4083 10.8021 17.3198 10.7035 17.2014C10.6049 17.083 10.5411 16.9394 10.5195 16.7869L10.1673 14.4473L13.9703 12.1634ZM14.6706 6.98889C14.6706 7.90502 13.928 8.6477 13.0119 8.6477C12.0958 8.6477 11.3531 7.90502 11.3531 6.98889C11.3531 6.07276 12.0958 5.33008 13.0119 5.33008C13.928 5.33008 14.6706 6.07276 14.6706 6.98889Z" fill="#194170"/>
</svg>
