<svg width="17" height="17" viewBox="0 0 17 17" fill="none" xmlns="http://www.w3.org/2000/svg">
<path fill-rule="evenodd" clip-rule="evenodd" d="M5.53407 2.28107C6.38522 1.88673 7.33358 1.66667 8.33333 1.66667C10.8031 1.66667 12.9592 3.00968 14.1112 5.00525H13.4957C12.9539 5.00525 12.5147 5.21341 12.5147 5.7552C12.5147 6.02982 12.5147 7.45442 10.8268 7.42837C9.18314 7.42837 9.18314 5.98507 9.18314 5.7552C9.18314 4.56437 8.52727 4.37949 7.72341 4.1529C7.41185 4.06508 7.07806 3.97099 6.75161 3.80964C5.91481 3.39605 5.62895 2.82407 5.53407 2.28107ZM3.33333 1.66606C2.84074 2.03606 2.39048 2.45937 1.99113 2.92744C1.60802 3.37647 1.27176 3.86669 0.989914 4.39052C0.989917 4.39052 0.989918 4.39052 0.989922 4.39052C0.358347 5.56435 0 6.90699 0 8.33333C0 12.7406 3.42137 16.3488 7.753 16.6468C7.76804 16.6478 7.78309 16.6488 7.79815 16.6498C7.9751 16.661 8.15355 16.6667 8.33333 16.6667C8.47674 16.6667 8.61931 16.6631 8.76094 16.6559C8.76135 16.6559 8.76175 16.6558 8.76217 16.6558C9.11194 16.6381 9.45603 16.5988 9.79312 16.5392C9.84012 16.5309 9.88698 16.5222 9.9337 16.5132C9.96011 16.508 9.98647 16.5027 10.0128 16.4974C10.6718 16.3625 11.3025 16.1499 11.8948 15.8694C13.5881 15.0678 14.9679 13.7124 15.8005 12.0369C15.8838 11.8693 15.9616 11.6985 16.0337 11.5247C16.0394 11.5109 16.0451 11.4971 16.0508 11.4833C16.2197 11.0699 16.3563 10.6399 16.4576 10.1964C16.4715 10.1354 16.4848 10.0742 16.4974 10.0128C16.6084 9.47031 16.6667 8.90863 16.6667 8.33333C16.6667 7.64193 16.5825 6.97018 16.4237 6.32781C16.4174 6.30206 16.4109 6.27636 16.4043 6.2507C16.2682 5.72157 16.0814 5.21277 15.8494 4.72978C14.5054 1.9317 11.645 0 8.33333 0C7.11083 0 5.94981 0.263244 4.90386 0.73614C4.53319 0.90373 4.17696 1.09765 3.83758 1.31552C3.78264 1.35079 3.72814 1.38669 3.67409 1.4232C3.5584 1.50136 3.44478 1.58234 3.33333 1.66606ZM14.4769 10.9265C14.2766 10.8655 14.0661 10.8333 13.8513 10.8333H13.6711C12.1038 10.8333 10.8333 12.1039 10.8333 13.6711V14.5154C12.4733 13.8516 13.789 12.5541 14.4769 10.9265ZM8.42806 14.9994C8.39654 14.9998 8.36496 15 8.33333 15C4.65144 15 1.66667 12.0152 1.66667 8.33333C1.66667 7.10157 2.00072 5.94783 2.58318 4.95777C3.37575 5.40924 3.76749 6.23919 4.11283 6.97085C4.28637 7.33853 4.4482 7.68138 4.6433 7.9389C5.0931 8.53265 5.52884 8.7879 5.96955 9.04607C6.40325 9.30013 6.84175 9.557 7.3032 10.1421C8.50281 11.663 8.4847 13.7809 8.42806 14.9994Z" fill="#194170"/>
</svg>
