<svg width="20" height="20" viewBox="0 0 20 20" fill="none" xmlns="http://www.w3.org/2000/svg">
<path d="M7.00015 5.63572C6.79049 5.71869 6.68106 5.79915 6.64869 5.83152L5.47018 4.65301L7.75049 2.37269C8.6782 1.44499 10.2951 1.4585 11.3648 2.52817L12.3306 3.49394C12.6572 3.18743 13.1706 3.1937 13.4897 3.51274L16.9101 6.93322C17.2292 7.25227 17.2355 7.76567 16.9289 8.09234L18.0503 9.2137C18.3757 9.53914 18.3757 10.0668 18.0503 10.3922L16.34 12.1024C16.0146 12.4279 15.487 12.4279 15.1615 12.1024L14.0402 10.9811C13.732 11.2701 13.2577 11.2808 12.9372 11.0133L9.40962 7.48572C9.14204 7.16518 9.15278 6.6909 9.44182 6.38269L8.73518 5.67605C8.58574 5.52661 8.22965 5.40771 7.68679 5.46803C7.43845 5.49563 7.19815 5.55736 7.00015 5.63572Z" fill="#194170"/>
<path d="M8.2655 8.69863L3.18985 13.7743C2.86441 14.0997 2.86441 14.6274 3.18985 14.9528L5.47017 17.2331C5.7956 17.5585 6.32324 17.5585 6.64868 17.2331L11.7243 12.1575L8.2655 8.69863Z" fill="#194170"/>
</svg>
